{
	"asset":{
		"generator":"Khronos glTF Blender I/O v3.6.27",
		"version":"2.0"
	},
	"extensionsUsed":[
		"KHR_materials_specular",
		"KHR_materials_ior"
	],
	"scene":0,
	"scenes":[
		{
			"name":"Scene",
			"nodes":[
				0,
				1,
				2,
				3
			]
		}
	],
	"nodes":[
		{
			"mesh":0,
			"name":"Cylinder1505",
			"rotation":[
				-0.7071068286895752,
				0,
				0,
				0.7071068286895752
			],
			"scale":[
				0.7260450124740601,
				0.7260450124740601,
				0.7260450124740601
			],
			"translation":[
				1360.6680908203125,
				-227.66259765625,
				-0.1701628863811493
			]
		},
		{
			"mesh":1,
			"name":"Rectangle375",
			"rotation":[
				0.7071066498756409,
				0,
				0.70710688829422,
				2.444488984565396e-07
			],
			"scale":[
				0.7260450124740601,
				0.7260450124740601,
				0.7260450124740601
			],
			"translation":[
				1358.5625,
				-201.895263671875,
				-0.170166015625
			]
		},
		{
			"name":"Group45067",
			"scale":[
				0.0010000000474974513,
				0.0010000000474974513,
				0.0010000000474974513
			],
			"translation":[
				0.019709961488842964,
				1.3549964427947998,
				-3.523437976837158
			]
		},
		{
			"mesh":2,
			"name":"sleeve body"
		}
	],
	"materials":[
		{
			"doubleSided":true,
			"extensions":{
				"KHR_materials_specular":{
					"specularColorFactor":[
						2.371357614441398,
						2.371357614441398,
						2.371357614441398
					]
				},
				"KHR_materials_ior":{
					"ior":1.4500000476837158
				}
			},
			"name":"_Metal Painted white",
			"normalTexture":{
				"index":0
			},
			"pbrMetallicRoughness":{
				"metallicRoughnessTexture":{
					"index":1
				},
				"roughnessFactor":0.5527864098548889
			}
		},
		{
			"doubleSided":true,
			"extensions":{
				"KHR_materials_specular":{
					"specularColorFactor":[
						2.371357614441398,
						2.371357614441398,
						2.371357614441398
					]
				},
				"KHR_materials_ior":{
					"ior":1.4500000476837158
				}
			},
			"name":"Long sleeve LINES",
			"pbrMetallicRoughness":{
				"baseColorTexture":{
					"index":2
				},
				"metallicFactor":0,
				"roughnessFactor":0.5527864098548889
			}
		}
	],
	"meshes":[
		{
			"name":"\u7f51\u683c.001",
			"primitives":[
				{
					"attributes":{
						"POSITION":0,
						"NORMAL":1,
						"TEXCOORD_0":2
					},
					"indices":3,
					"material":0
				}
			]
		},
		{
			"name":"\u7f51\u683c.005",
			"primitives":[
				{
					"attributes":{
						"POSITION":4,
						"NORMAL":5,
						"TEXCOORD_0":6
					},
					"indices":7,
					"material":0
				}
			]
		},
		{
			"name":"\u7f51\u683c.028",
			"primitives":[
				{
					"attributes":{
						"POSITION":8,
						"NORMAL":9,
						"TEXCOORD_0":10
					},
					"indices":11,
					"material":1
				}
			]
		}
	],
	"textures":[
		{
			"sampler":0,
			"source":0
		},
		{
			"sampler":0,
			"source":1
		},
		{
			"sampler":0,
			"source":2
		}
	],
	"images":[
		{
			"mimeType":"image/png",
			"name":"metal_reflections",
			"uri":"metal_reflections.png"
		},
		{
			"mimeType":"image/png",
			"name":"Image",
			"uri":"Image.png"
		},
		{
			"mimeType":"image/jpeg",
			"name":"Long sleeve LINES",
			"uri":"Long%20sleeve%20LINES.jpg"
		}
	],
	"accessors":[
		{
			"bufferView":0,
			"componentType":5126,
			"count":2668,
			"max":[
				22.697460174560547,
				22.700210571289062,
				617.7776489257812
			],
			"min":[
				-22.697755813598633,
				-22.70025634765625,
				80.61187744140625
			],
			"type":"VEC3"
		},
		{
			"bufferView":1,
			"componentType":5126,
			"count":2668,
			"type":"VEC3"
		},
		{
			"bufferView":2,
			"componentType":5126,
			"count":2668,
			"type":"VEC2"
		},
		{
			"bufferView":3,
			"componentType":5123,
			"count":11664,
			"type":"SCALAR"
		},
		{
			"bufferView":4,
			"componentType":5126,
			"count":4484,
			"max":[
				22.926315307617188,
				22.313846588134766,
				25.8591251373291
			],
			"min":[
				-22.92633628845215,
				-50.045772552490234,
				-43.2863883972168
			],
			"type":"VEC3"
		},
		{
			"bufferView":5,
			"componentType":5126,
			"count":4484,
			"type":"VEC3"
		},
		{
			"bufferView":6,
			"componentType":5126,
			"count":4484,
			"type":"VEC2"
		},
		{
			"bufferView":7,
			"componentType":5123,
			"count":21168,
			"type":"SCALAR"
		},
		{
			"bufferView":8,
			"componentType":5126,
			"count":87514,
			"max":[
				0.4915884733200073,
				0.6426880359649658,
				-1.258427381515503
			],
			"min":[
				-0.5227967500686646,
				0.006156444549560547,
				-1.545460820198059
			],
			"type":"VEC3"
		},
		{
			"bufferView":9,
			"componentType":5126,
			"count":87514,
			"type":"VEC3"
		},
		{
			"bufferView":10,
			"componentType":5126,
			"count":87514,
			"type":"VEC2"
		},
		{
			"bufferView":11,
			"componentType":5125,
			"count":518064,
			"type":"SCALAR"
		}
	],
	"bufferViews":[
		{
			"buffer":0,
			"byteLength":32016,
			"byteOffset":0,
			"target":34962
		},
		{
			"buffer":0,
			"byteLength":32016,
			"byteOffset":32016,
			"target":34962
		},
		{
			"buffer":0,
			"byteLength":21344,
			"byteOffset":64032,
			"target":34962
		},
		{
			"buffer":0,
			"byteLength":23328,
			"byteOffset":85376,
			"target":34963
		},
		{
			"buffer":0,
			"byteLength":53808,
			"byteOffset":108704,
			"target":34962
		},
		{
			"buffer":0,
			"byteLength":53808,
			"byteOffset":162512,
			"target":34962
		},
		{
			"buffer":0,
			"byteLength":35872,
			"byteOffset":216320,
			"target":34962
		},
		{
			"buffer":0,
			"byteLength":42336,
			"byteOffset":252192,
			"target":34963
		},
		{
			"buffer":0,
			"byteLength":1050168,
			"byteOffset":294528,
			"target":34962
		},
		{
			"buffer":0,
			"byteLength":1050168,
			"byteOffset":1344696,
			"target":34962
		},
		{
			"buffer":0,
			"byteLength":700112,
			"byteOffset":2394864,
			"target":34962
		},
		{
			"buffer":0,
			"byteLength":2072256,
			"byteOffset":3094976,
			"target":34963
		}
	],
	"samplers":[
		{
			"magFilter":9729,
			"minFilter":9987
		}
	],
	"buffers":[
		{
			"byteLength":5167232,
			"uri":"shirt.bin"
		}
	]
}
