<svg width="90" height="101" viewBox="0 0 90 101" fill="none" xmlns="http://www.w3.org/2000/svg">
<path d="M6.228 84.87V97.83C7.632 96.678 8.604 95.076 9.144 93.006H6.84V91.494H10.71V92.754C10.134 95.598 8.964 97.776 7.164 99.252L6.228 98.028V99.288C6.228 100.278 5.67 100.782 4.59 100.782H3.51L3.132 99.36C3.492 99.396 3.816 99.432 4.14 99.432C4.482 99.432 4.662 99.198 4.662 98.748V94.896H3.024C2.988 97.362 2.61 99.36 1.89 100.872L0.648 99.756C1.188 98.46 1.458 96.822 1.476 94.824V84.87H6.228ZM3.024 93.384H4.662V90.666H3.024V93.384ZM3.024 89.172H4.662V86.382H3.024V89.172ZM11.286 100.728H9.792L9.36 99.09L10.8 99.18C11.124 99.18 11.304 98.964 11.304 98.532V89.172H7.974V87.624H12.96V90.018C13.104 90.522 13.266 91.008 13.446 91.476C14.31 90.72 15.102 89.73 15.786 88.506L17.064 89.568C16.164 91.008 15.156 92.106 14.022 92.862C14.904 94.734 16.038 96.336 17.442 97.65L16.29 99C14.922 97.452 13.806 95.652 12.96 93.6V99.036C12.96 100.152 12.402 100.728 11.286 100.728ZM10.53 84.15C11.934 84.528 13.266 85.086 14.544 85.806L13.914 87.318C12.618 86.526 11.25 85.932 9.828 85.5L10.53 84.15ZM20.43 84.402C21.636 85.374 22.662 86.328 23.508 87.264L22.266 88.488C21.546 87.57 20.538 86.58 19.242 85.536L20.43 84.402ZM30.744 100.548C29.772 100.548 28.71 100.53 27.558 100.512C26.406 100.494 25.452 100.386 24.714 100.206C23.994 99.99 23.364 99.558 22.824 98.946C22.572 98.64 22.356 98.496 22.14 98.496C21.762 98.496 21.114 99.306 20.196 100.944L18.936 99.774C19.836 98.298 20.664 97.38 21.384 97.02V91.926H18.954V90.342H22.986V97.164C23.058 97.236 23.148 97.308 23.238 97.416C23.652 97.902 24.084 98.262 24.534 98.496C25.056 98.748 25.848 98.91 26.91 98.946C27.918 98.964 29.124 98.982 30.51 98.982C31.392 98.982 32.292 98.964 33.21 98.946C34.11 98.928 34.812 98.892 35.298 98.856L34.884 100.548H30.744ZM26.424 84.186L28.116 84.402C28.008 84.906 27.882 85.374 27.738 85.824H34.542V86.886C34.29 88.038 33.966 89.172 33.588 90.306L32.004 89.874C32.328 89.154 32.616 88.326 32.832 87.408H27.144C26.532 88.794 25.74 90.036 24.732 91.116L23.688 89.766C25.038 88.254 25.956 86.382 26.424 84.186ZM28.872 97.92H27.09L26.712 96.354C27.252 96.426 27.792 96.462 28.296 96.462C28.602 96.462 28.764 96.3 28.764 95.976V88.65H30.402V96.372C30.402 97.398 29.88 97.92 28.872 97.92ZM25.884 91.062L27.36 91.386C26.856 93.492 26.136 95.31 25.218 96.84L23.832 95.976C24.786 94.464 25.47 92.826 25.884 91.062ZM32.688 90.792C33.516 92.448 34.218 94.23 34.812 96.12L33.354 96.786C32.706 94.698 31.986 92.88 31.194 91.296L32.688 90.792ZM47.376 100.26H43.38C41.976 100.26 41.274 99.558 41.274 98.19V88.002H42.984V97.83C42.984 98.334 43.29 98.586 43.902 98.586H47.052C47.412 98.586 47.664 98.406 47.826 98.064C48.006 97.668 48.15 96.48 48.222 94.464L49.842 95.004C49.698 97.56 49.428 99.072 49.032 99.576C48.672 100.026 48.114 100.26 47.376 100.26ZM38.556 89.784L40.194 90.126C39.708 93.33 39.006 96.102 38.106 98.424L36.63 97.506C37.53 95.094 38.16 92.52 38.556 89.784ZM50.652 89.298C51.696 91.71 52.632 94.266 53.424 97.002L51.858 97.704C50.994 94.752 50.04 92.124 48.996 89.856L50.652 89.298ZM44.244 84.204C45.828 86.022 47.052 87.606 47.916 88.974L46.476 89.946C45.576 88.47 44.37 86.85 42.84 85.086L44.244 84.204ZM57.852 92.034V94.284H61.848V92.034H57.852ZM61.848 95.886H57.852V97.308H56.142V86.598H61.848V84.276H63.558V86.598H69.372V95.886H63.558V97.704C63.558 98.55 63.936 98.982 64.692 98.982H68.616C68.976 98.982 69.264 98.874 69.444 98.694C69.588 98.514 69.696 97.848 69.75 96.732L71.388 97.29C71.28 98.838 71.064 99.774 70.74 100.116C70.398 100.422 69.786 100.584 68.904 100.584H64.296C62.658 100.584 61.848 99.702 61.848 97.956V95.886ZM63.558 94.284H67.68V92.034H63.558V94.284ZM67.68 90.468V88.218H63.558V90.468H67.68ZM61.848 88.218H57.852V90.468H61.848V88.218ZM80.838 88.524C80.154 90 79.29 91.368 78.21 92.592V98.532C79.74 98.082 81.162 97.56 82.458 96.984L82.764 98.658C80.946 99.378 78.768 100.08 76.23 100.728L75.852 99.108C76.284 98.928 76.518 98.658 76.518 98.262V94.284C75.654 95.022 74.718 95.706 73.71 96.336L72.792 94.86C75.636 93.204 77.742 91.08 79.074 88.506H73.242V86.868H80.19C79.866 86.022 79.506 85.248 79.11 84.546L80.964 84.258C81.306 85.014 81.63 85.896 81.954 86.868H88.758V88.506H82.494C82.746 90.09 83.196 91.53 83.844 92.862C84.96 92.214 86.022 91.242 87.03 89.964L88.254 91.188C87.174 92.502 85.95 93.51 84.582 94.212C85.698 96.012 87.174 97.524 89.046 98.784L87.966 100.566C83.97 97.632 81.594 93.618 80.838 88.524Z" fill="#4A505E"/>
<path d="M76 26.6421C76 23.0898 73.195 20.1296 69.6162 20.1296C66.8112 20.1296 65.2637 22.0044 63.8128 24.1753L63.5226 24.6686C61.6849 27.2342 59.4602 30.4904 55.7847 30.5891C51.9158 30.6878 47.7566 27.2342 42.0499 21.215C37.0203 15.9853 32.6677 9.17673 30.4431 4.83505C28.8955 1.67747 26.1872 0 22.7051 0C17.869 0 14 3.94698 14 8.88071C14 11.4462 14.8705 14.8012 15.8378 18.4521C16.9017 22.6951 18.1591 27.5302 18.1591 31.7732C18.1591 36.4109 16.9017 42.2327 15.741 47.3638C14.7738 51.6068 14 55.3564 14 57.8233C14 62.757 17.869 66.704 22.7051 66.704C27.5413 66.704 31.4103 62.757 31.4103 57.8233C31.4103 55.6524 30.6365 53.6789 29.766 51.4094C29.0889 49.6333 28.3151 47.6598 27.7348 45.0943C28.7988 44.8969 30.2496 44.7982 31.6037 44.6996C33.3448 44.6009 34.8924 44.5022 36.053 44.0088C37.5039 43.4168 38.7613 42.3314 39.4384 40.8513C40.1154 39.3711 40.2122 37.6937 39.6318 36.2136C39.0515 34.6348 37.7941 33.352 36.2465 32.6613C34.7956 32.0692 33.1513 32.0692 31.7005 32.7599C30.6365 33.2533 29.5725 34.0427 28.3151 35.0295C27.6381 35.5228 26.8643 36.1149 26.0905 36.7069C25.897 34.9308 25.8003 33.352 25.8003 31.7732C25.8003 24.4713 26.8643 21.3137 27.6381 21.0177C28.5086 20.623 31.8939 23.1885 35.376 27.5302C37.9875 30.7864 39.922 34.2401 41.663 37.299C43.1139 39.8645 44.3713 42.0353 45.6287 43.4168C46.9828 44.8969 49.014 45.6863 51.142 45.6863C53.1732 45.6863 55.0109 44.7982 56.1716 43.4168C56.7519 42.7261 57.3323 41.838 58.1061 40.8513C60.0406 38.0884 62.9423 33.8454 65.3604 33.8454C65.5538 33.8454 65.7473 33.944 65.844 34.0427C66.2309 34.5361 66.908 36.2135 66.0374 41.9367C65.7473 44.0088 65.2637 46.4757 64.8768 48.9426C64.0062 53.5803 63.2325 58.0206 63.2325 60.4875C63.2325 64.0398 66.0374 67 69.6162 67C73.0983 67 76 64.1384 76 60.4875C76 59.106 75.6131 56.8365 75.0328 54.0736C74.3557 50.4227 73.4852 45.8837 73.4852 42.6274C73.4852 39.6672 74.259 36.2136 74.936 33.2533C75.5164 30.4904 76 28.3196 76 26.6421Z" fill="#4179FD"/>
</svg>
