<svg width="16" height="16" viewBox="0 0 16 16" fill="none" xmlns="http://www.w3.org/2000/svg">
<g clip-path="url(#clip0_2195_7748)">
<path d="M12.9865 8.23335C11.9398 5.51335 8.21317 5.36668 9.11317 1.41335C9.17984 1.12001 8.8665 0.893346 8.61317 1.04668C6.19317 2.47335 4.45317 5.33335 5.91317 9.08001C6.03317 9.38668 5.67317 9.67335 5.41317 9.47335C4.2065 8.56001 4.07984 7.24668 4.1865 6.30668C4.2265 5.96001 3.77317 5.79335 3.57984 6.08001C3.1265 6.77335 2.6665 7.89335 2.6665 9.58001C2.91984 13.3133 6.07317 14.46 7.2065 14.6067C8.8265 14.8133 10.5798 14.5133 11.8398 13.36C13.2265 12.0733 13.7332 10.02 12.9865 8.23335ZM6.79984 11.5867C7.75984 11.3533 8.25317 10.66 8.3865 10.0467C8.6065 9.09335 7.7465 8.16001 8.3265 6.65335C8.5465 7.90001 10.5065 8.68001 10.5065 10.04C10.5598 11.7267 8.73317 13.1733 6.79984 11.5867Z" fill="#EF7B0F"/>
</g>
<defs>
<clipPath id="clip0_2195_7748">
<rect width="16" height="16" fill="white"/>
</clipPath>
</defs>
</svg>
