<svg width="16" height="16" viewBox="0 0 16 16" fill="none" xmlns="http://www.w3.org/2000/svg">
<g clip-path="url(#clip0_2195_7745)">
<path d="M12.2429 7.16407C13.2842 8.20474 13.2842 9.89341 12.2429 10.9347L8.47156 14.7061C8.21156 14.9661 7.7889 14.9661 7.5289 14.7061L3.75756 10.9347C2.71623 9.89341 2.71623 8.20474 3.75756 7.16341C4.7989 6.12208 6.48756 6.12208 7.5289 7.16341L7.99956 7.63474L8.47156 7.16341C9.5129 6.12208 11.2016 6.12208 12.2429 7.16341V7.16407ZM4.70023 8.10541C4.18023 8.62607 4.18023 9.47074 4.70023 9.99141L8.00023 13.2914L11.3002 9.99141C11.8202 9.47074 11.8202 8.62607 11.3002 8.10541C10.7796 7.58541 9.9349 7.58541 9.41356 8.10674L7.9989 9.51874L6.58556 8.10541C6.06556 7.58541 5.2209 7.58541 4.70023 8.10541ZM8.00023 0.510742C9.47356 0.510742 10.6669 1.70408 10.6669 3.17741C10.6669 4.65074 9.47356 5.84408 8.00023 5.84408C6.5269 5.84408 5.33356 4.65074 5.33356 3.17741C5.33356 1.70408 6.5269 0.510742 8.00023 0.510742ZM8.00023 1.84408C7.26356 1.84408 6.6669 2.44074 6.6669 3.17741C6.6669 3.91408 7.26356 4.51074 8.00023 4.51074C8.7369 4.51074 9.33356 3.91408 9.33356 3.17741C9.33356 2.44074 8.7369 1.84408 8.00023 1.84408Z" fill="#B9A7FF"/>
</g>
<defs>
<clipPath id="clip0_2195_7745">
<rect width="16" height="16" fill="white"/>
</clipPath>
</defs>
</svg>
