<svg width="16" height="16" viewBox="0 0 16 16" fill="none" xmlns="http://www.w3.org/2000/svg">
<g clip-path="url(#clip0_2193_8505)">
<path d="M11.745 3.82274L12.7137 2.85408L13.6564 3.79674L12.6877 4.76541C13.6449 5.96352 14.107 7.48266 13.9791 9.01083C13.8512 10.539 13.143 11.9602 12 12.9826C10.857 14.0049 9.36596 14.5508 7.83304 14.5081C6.30012 14.4655 4.84172 13.8375 3.75736 12.7531C2.673 11.6687 2.045 10.2103 2.00233 8.67742C1.95965 7.1445 2.50555 5.65342 3.5279 4.51042C4.55025 3.36741 5.97145 2.65924 7.49963 2.53135C9.0278 2.40347 10.5469 2.86556 11.745 3.82274ZM7.99971 13.1774C8.61255 13.1774 9.21938 13.0567 9.78557 12.8222C10.3518 12.5877 10.8662 12.2439 11.2995 11.8106C11.7329 11.3772 12.0766 10.8628 12.3112 10.2966C12.5457 9.73041 12.6664 9.12358 12.6664 8.51074C12.6664 7.89791 12.5457 7.29107 12.3112 6.72489C12.0766 6.1587 11.7329 5.64425 11.2995 5.21091C10.8662 4.77757 10.3518 4.43383 9.78557 4.1993C9.21938 3.96478 8.61255 3.84408 7.99971 3.84408C6.76204 3.84408 5.57505 4.33574 4.69988 5.21091C3.82471 6.08608 3.33305 7.27307 3.33305 8.51074C3.33305 9.74842 3.82471 10.9354 4.69988 11.8106C5.57505 12.6857 6.76204 13.1774 7.99971 13.1774ZM7.33305 5.17741H8.66638V9.17741H7.33305V5.17741ZM5.33305 0.510742H10.6664V1.84408H5.33305V0.510742Z" fill="#F4C54A"/>
</g>
<defs>
<clipPath id="clip0_2193_8505">
<rect width="16" height="16" fill="white"/>
</clipPath>
</defs>
</svg>
