<svg xmlns="http://www.w3.org/2000/svg" width="21" height="21" viewBox="0 0 21 21" fill="none">
    <path d="M3.73991 8.19588V6.5088C3.73991 6.13598 3.9473 5.79412 4.27796 5.6219L10.5432 2.35859C10.8347 2.20678 11.1821 2.20786 11.4726 2.36149L17.6357 5.62054C17.9633 5.79378 18.1683 6.13397 18.1683 6.50455V8.19589" stroke="#4169DC" stroke-width="1.5" stroke-linecap="round"/>
    <path d="M18.1683 12.3168L18.1683 14.0038C18.1683 14.3766 17.9609 14.7185 17.6302 14.8907L11.3649 18.154C11.0735 18.3059 10.726 18.3048 10.4355 18.1511L4.27244 14.8921C3.94484 14.7189 3.7399 14.3787 3.7399 14.0081L3.7399 12.3167" stroke="#4169DC" stroke-width="1.5" stroke-linecap="round"/>
    <path d="M10.324 6.82928L12.2887 13.0224H11.063L10.6662 11.6861H8.76954L8.37515 13.0224H7.14952L9.12267 6.82928H10.324ZM14.1041 6.82928V13.0224H12.9306V6.82928H14.1029H14.1041ZM9.73306 8.53046H9.70879L9.05835 10.7122H10.3798L9.73306 8.53046Z" fill="#4169DC"/>
    <circle cx="3.75853" cy="12.2784" r="1.35432" fill="#4169DC"/>
    <circle cx="18.0499" cy="8.39558" r="1.35432" fill="#4169DC"/>
</svg>