<svg width="16" height="16" viewBox="0 0 16 16" fill="none" xmlns="http://www.w3.org/2000/svg">
<g clip-path="url(#clip0_2193_8508)">
<path d="M8.00035 2.01932C9.56635 0.61332 11.9863 0.659987 13.495 2.17132C15.003 3.68332 15.055 6.09132 13.6523 7.66199L7.99901 13.3233L2.34701 7.66199C0.944345 6.09132 0.997012 3.67932 2.50435 2.17132C4.01435 0.661987 6.42968 0.61132 8.00035 2.01932ZM12.551 3.11332C11.551 2.11199 9.93768 2.07132 8.89101 3.01132L8.00101 3.80999L7.11035 3.01199C6.06035 2.07065 4.45035 2.11199 3.44768 3.11465C2.45435 4.10799 2.40435 5.69799 3.31968 6.74865L7.99968 11.436L12.6797 6.74932C13.5957 5.69799 13.5457 4.10999 12.551 3.11332Z" fill="#FF6584"/>
</g>
<defs>
<clipPath id="clip0_2193_8508">
<rect width="16" height="16" fill="white"/>
</clipPath>
</defs>
</svg>
