<svg width="16" height="16" viewBox="0 0 16 16" fill="none" xmlns="http://www.w3.org/2000/svg">
<g clip-path="url(#clip0_2193_8502)">
<path d="M6.55293 5.70424L5.33293 6.14824V8.5109H3.9996V5.2109H4.0096L7.5216 3.93224C7.68427 3.87024 7.8616 3.8389 8.04293 3.8449C8.40527 3.85394 8.75579 3.97564 9.04576 4.19309C9.33574 4.41054 9.55076 4.71294 9.66093 5.05824C9.78493 5.4469 9.89827 5.70957 10.0009 5.84624C10.3112 6.25998 10.7136 6.59572 11.1763 6.82682C11.639 7.05792 12.1491 7.17801 12.6663 7.17757V8.5109C11.9778 8.51165 11.2977 8.35976 10.675 8.06615C10.0523 7.77254 9.50239 7.34452 9.06493 6.8129L8.6776 9.0109L9.9996 10.2909V15.1776H8.66627V11.1869L7.2996 9.86224L6.66827 12.7276L2.07227 11.9176L2.30427 10.6042L5.58693 11.1829L6.55293 5.70424ZM8.9996 3.5109C8.64598 3.5109 8.30684 3.37043 8.05679 3.12038C7.80674 2.87033 7.66627 2.53119 7.66627 2.17757C7.66627 1.82395 7.80674 1.48481 8.05679 1.23476C8.30684 0.984714 8.64598 0.844238 8.9996 0.844238C9.35322 0.844238 9.69236 0.984714 9.94241 1.23476C10.1925 1.48481 10.3329 1.82395 10.3329 2.17757C10.3329 2.53119 10.1925 2.87033 9.94241 3.12038C9.69236 3.37043 9.35322 3.5109 8.9996 3.5109Z" fill="#4169DC"/>
</g>
<defs>
<clipPath id="clip0_2193_8502">
<rect width="16" height="16" fill="white"/>
</clipPath>
</defs>
</svg>