<svg width="44" height="44" viewBox="0 0 44 44" fill="none" xmlns="http://www.w3.org/2000/svg">
<path d="M16.279 20.093H12.465V23.907H16.279V20.093ZM23.907 20.093H20.093V23.907H23.907V20.093ZM31.5349 20.093H27.7209V23.907H31.5349V20.093ZM35.3489 6.74406H33.4419V2.93008H29.6279V6.74406H14.372V2.93008H10.558V6.74406H8.65101C6.53424 6.74406 4.85612 8.46035 4.85612 10.558L4.83704 37.2559C4.83704 39.3536 6.53424 41.0699 8.65101 41.0699H35.3489C37.4466 41.0699 39.1628 39.3536 39.1628 37.2559V10.558C39.1628 8.46035 37.4466 6.74406 35.3489 6.74406ZM35.3489 37.2559H8.65101V16.279H35.3489V37.2559Z" fill="white"/>
</svg>
