<svg width="51" height="51" viewBox="0 0 51 51" fill="none" xmlns="http://www.w3.org/2000/svg">
<path d="M26.2689 23.7574C29.8065 23.7574 32.6775 20.8865 32.6775 17.3488C32.6775 13.8062 29.8016 10.9303 26.2689 10.9402C22.7262 10.9402 19.8603 13.8062 19.8603 17.3488C19.8603 20.8865 22.7262 23.7574 26.2689 23.7574ZM30.3389 24.9117L26.3137 29.6386L22.2983 24.9366C18.084 26.8274 15.0837 31.5641 15.0837 37.1318C15.0837 37.8931 15.1534 38.6395 15.2628 39.3709C17.6412 42.3662 21.7112 44.3465 26.3435 44.3465C30.9758 44.3465 35.0459 42.3662 37.4242 39.3709C37.5287 38.6395 37.6033 37.8931 37.6033 37.1318C37.5934 31.5393 34.5782 26.7925 30.3389 24.9117ZM34.8866 17.3488C34.8866 17.4732 34.8767 17.5926 34.8667 17.717C35.7673 18.2643 36.8122 18.5977 37.9417 18.5977C41.2106 18.5977 43.8676 15.9358 43.8676 12.6718C43.8726 9.3978 41.2156 6.73585 37.9466 6.73585C35.2051 6.73585 32.9163 8.61165 32.2396 11.1393C33.8716 12.7116 34.8866 14.9108 34.8866 17.3488ZM14.1831 18.5977C15.4768 18.5977 16.666 18.1698 17.6362 17.4682C17.6412 17.4235 17.6362 17.3886 17.6362 17.3488C17.6362 15.065 18.5368 13.0001 19.9847 11.4478C19.4224 8.75595 17.0391 6.73585 14.1831 6.73585C10.9092 6.73585 8.2522 9.3978 8.2522 12.6718C8.2522 15.9407 10.8992 18.5977 14.1831 18.5977Z" fill="white"/>
<path d="M41.7185 19.6725L37.9918 24.0411L34.4939 19.9362C34.066 21.2796 33.3246 22.4787 32.3494 23.449C36.917 26.0164 39.8178 31.2457 39.8178 37.1269C39.8178 37.2563 39.8079 37.3906 39.7979 37.5299C43.3356 37.097 46.3757 35.4203 48.2614 33.0419C48.3609 32.3603 48.4256 31.6786 48.4256 30.9671C48.4306 25.8074 45.6343 21.409 41.7185 19.6725ZM20.2537 23.4937C19.1889 22.4538 18.3779 21.1452 17.9649 19.6675L17.96 19.6625L14.2332 24.0311L10.5214 19.6824C6.62054 21.4388 3.84912 25.8223 3.84912 30.9671C3.84912 31.6786 3.9138 32.3603 4.01332 33.0419C5.96873 35.5148 9.18795 37.2264 12.8848 37.5747C12.8898 37.4254 12.8749 37.2762 12.8749 37.1269C12.8749 31.2855 15.7359 26.0811 20.2537 23.4937Z" fill="white"/>
</svg>
