<svg width="45" height="40" viewBox="0 0 45 40" fill="none" xmlns="http://www.w3.org/2000/svg">
<path d="M2.82471 26.2109V29.3477C2.82471 30.7055 4.0042 31.8062 5.46143 31.8062H18.5338V35.484H12.5476C11.4854 35.484 10.4215 35.4648 9.35981 35.484H9.31323C8.76216 35.484 8.23437 35.9363 8.25854 36.4676C8.28271 36.9988 8.72129 37.4508 9.31323 37.4508H32.4232C33.4849 37.4508 34.5488 37.4699 35.6105 37.4508H35.6571C36.2082 37.4508 36.7364 36.9984 36.7118 36.4676C36.6872 35.9367 36.2486 35.484 35.6571 35.484H26.437V31.8078H39.5111C40.9662 31.8078 42.1457 30.707 42.1457 29.3492V26.2109H2.82471ZM39.5406 2.53906H5.48867C4.79013 2.5401 4.1206 2.78748 3.62707 3.22691C3.13354 3.66634 2.85635 4.26189 2.85635 4.88281V24.3867H42.1751V4.88281C42.1751 4.26155 41.8976 3.6657 41.4036 3.22622C40.9096 2.78674 40.2395 2.53958 39.5406 2.53906ZM33.2867 11.5918L32.9839 11.8859L29.6001 15.173L27.9838 16.7441C27.9874 16.791 27.99 16.8383 27.99 16.8859C27.9896 17.1689 27.9215 17.4485 27.7903 17.7062C27.6591 17.964 27.4677 18.194 27.2289 18.381C26.99 18.5681 26.7092 18.7078 26.4049 18.791C26.1007 18.8742 25.7801 18.8989 25.4643 18.8635C25.1485 18.8282 24.8447 18.7336 24.5732 18.5859C24.3017 18.4383 24.0686 18.241 23.8894 18.0072C23.7102 17.7734 23.5889 17.5084 23.5337 17.2297C23.4785 16.9511 23.4905 16.6652 23.5691 16.391L21.1196 13.8398L19.4294 12.082C19.1158 12.1452 18.7906 12.1476 18.4758 12.0891L18.2122 12.3148L15.0516 15.0379L13.6959 16.2059C13.7863 16.5785 13.7394 16.9671 13.5621 17.3141C13.3848 17.6612 13.0865 17.9484 12.7114 18.1331C12.3363 18.3178 11.9042 18.3903 11.4792 18.3399C11.0541 18.2894 10.6586 18.1187 10.3511 17.853C10.0437 17.5873 9.84058 17.2406 9.77192 16.8644C9.70325 16.4881 9.77265 16.1022 9.96985 15.7637C10.167 15.4252 10.4816 15.1521 10.8669 14.9848C11.2522 14.8175 11.6879 14.7649 12.1095 14.8348L12.2347 14.727L15.3953 12.0035L16.8103 10.7844C16.7058 10.5105 16.6694 10.2197 16.7038 9.93212C16.7382 9.64453 16.8425 9.36703 17.0095 9.11882C17.1765 8.8706 17.4022 8.65762 17.6709 8.49461C17.9397 8.3316 18.2451 8.22245 18.566 8.17474C18.8869 8.12702 19.2156 8.14187 19.5294 8.21825C19.8432 8.29464 20.1346 8.43074 20.3834 8.61713C20.6321 8.80351 20.8324 9.03574 20.9702 9.29772C21.108 9.55969 21.1801 9.84517 21.1815 10.1344C21.1813 10.2834 21.1624 10.432 21.1253 10.5773L21.592 11.0633L24.6589 14.2578L25.3058 14.9309C25.4505 14.9052 25.5977 14.8921 25.7453 14.8918C26.082 14.8909 26.4146 14.9577 26.7182 15.0871L30.0941 11.8059C30.5423 11.3702 30.9904 10.9348 31.4384 10.4996C31.2742 10.1481 31.2414 9.75897 31.3451 9.38968C31.4487 9.02038 31.6832 8.6905 32.014 8.44876C32.3447 8.20701 32.7541 8.06621 33.1818 8.04715C33.6094 8.02809 34.0326 8.13178 34.3889 8.3429C34.7452 8.55403 35.0156 8.8614 35.1603 9.21962C35.305 9.57785 35.3163 9.96794 35.1924 10.3323C35.0686 10.6966 34.8162 11.0159 34.4726 11.243C34.1289 11.4701 33.7123 11.5929 33.2841 11.5934L33.2867 11.5918Z" fill="white"/>
</svg>
