<svg width="39" height="39" viewBox="0 0 39 39" fill="none" xmlns="http://www.w3.org/2000/svg">
<g clip-path="url(#clip0_571_2024)">
<path d="M32.9335 15.5475C32.7472 15.8251 32.3708 15.9011 32.0894 15.7148H32.0856C32.0134 15.6692 31.9259 15.7414 31.9601 15.8175C32.2909 16.597 32.4506 17.4411 32.4278 18.289C32.3936 19.4525 32.0134 20.5741 31.3289 21.5323C31.2795 21.6008 31.2301 21.6692 31.1769 21.7376C30.2225 22.962 29.6293 24.4259 29.5153 25.9734C29.5115 26.0076 29.5115 26.0456 29.5077 26.0799C29.3518 27.9582 28.8689 29.7909 28.0666 31.5209C27.8727 31.9734 27.6483 32.4221 27.4012 32.8517C26.2871 34.7795 24.6027 36.4791 22.6521 37.6388C21.1578 38.5285 19.6788 39 18.4544 39C18.1388 39 17.8384 38.9696 17.5571 38.9049C17.5191 38.8973 16.6635 38.6958 15.5419 38.2357C14.9335 37.9848 14.5305 37.8099 14.0856 37.4943C13.5913 37.1445 13.3404 36.8555 13.1008 36.5741C12.9867 36.4411 12.8689 36.3042 12.7054 36.1407C12.2833 35.7148 12.0324 35.5741 11.789 35.4373C11.4506 35.2472 11.0286 35.0152 10.6445 34.3764C10.2491 33.7186 10.2111 33.1787 10.1845 32.7833C10.1654 32.5209 10.1578 32.3916 10.0514 32.1787C9.83845 31.7605 9.46963 31.5323 9.07419 31.2928C8.99814 31.2472 8.9221 31.1977 8.84605 31.1521C6.86506 29.8859 5.93351 27.7871 5.37837 26.5323C5.29852 26.3536 5.23008 26.1977 5.16925 26.0722C5.03236 25.7833 4.56468 24.7338 4.34415 23.3422C4.17305 22.2624 4.19586 21.2281 4.40499 20.2738C3.70537 19.6692 3.05518 18.8289 2.9259 17.7452C2.77761 16.5057 3.35556 15.1673 4.51145 14.0646C5.49624 13.1255 6.83845 12.4221 8.35176 12.0418C8.56468 11.9886 8.78522 11.9392 9.00195 11.9011C9.05138 11.8897 9.10461 11.8821 9.15404 11.8745H9.15784C9.45062 11.8251 9.68636 11.6084 9.7662 11.3232C9.79662 11.2129 9.82704 11.1065 9.86126 11C9.67875 10.9125 9.48864 10.8327 9.29852 10.7567C9.10841 10.6806 8.9183 10.6122 8.72438 10.5513C8.34795 10.4297 7.96012 10.327 7.56468 10.251C5.89548 9.93156 4.15024 10.0646 2.37837 10.6502C2.05898 10.7567 1.71678 10.5818 1.61031 10.2624C1.50385 9.94297 1.67875 9.60076 1.99814 9.4943C3.97153 8.84411 5.9221 8.69582 7.79662 9.05704C8.2529 9.14449 8.70537 9.26236 9.15404 9.41445C9.34415 9.47909 9.53807 9.54753 9.72818 9.62358C9.91449 9.69962 10.1008 9.77567 10.2871 9.86312C10.7928 8.71483 11.4924 7.68441 12.405 6.87072C12.2149 6.76426 12.0248 6.6654 11.8384 6.57034C11.6407 6.47148 11.443 6.37643 11.2491 6.28898C9.29852 5.41825 7.44301 5.09506 6.02856 4.9962C5.69396 4.97339 5.43921 4.68061 5.46583 4.34601C5.48864 4.01141 5.78141 3.75666 6.11601 3.78327C7.38598 3.87072 8.64453 4.10647 9.86506 4.47909C10.6978 4.73384 11.5 5.04943 12.2681 5.42586C12.4772 5.52852 12.6826 5.63498 12.8841 5.74525C13.0856 5.85552 13.2833 5.96578 13.4772 6.08745C14.0286 5.75285 14.6369 5.4905 15.3023 5.31179C15.9639 4.11787 16.2491 2.42206 16.0362 0.342207C16.0172 0.1635 16.1578 0.00760647 16.3404 0.00760651H19.3708C19.5191 0.00760651 19.6483 0.11407 19.6712 0.262359C19.9031 1.75285 19.8689 3.57795 19.2111 5.03042C20.3632 3.87833 21.2795 2.4905 22.0704 0.977188C22.1959 0.733842 22.4696 0.604565 22.7396 0.661599L25.4924 1.25095C25.8613 1.3308 26.0742 1.72624 25.9297 2.07605C25.2263 3.77567 24.1959 5.37643 22.8423 6.98099C23.348 7.48669 23.9639 8.21673 24.386 8.96958C24.5837 8.90875 24.7852 8.85171 24.9867 8.79848C25.1883 8.74525 25.3898 8.69202 25.5913 8.64639C27.6027 8.17871 29.6635 8.04183 31.7434 8.24335C32.078 8.27757 32.3213 8.57415 32.2909 8.90875C32.2605 9.24335 31.9601 9.48669 31.6255 9.45627C29.7662 9.27757 27.9259 9.38403 26.1274 9.77567C25.9259 9.82129 25.7244 9.86692 25.5229 9.92015C25.3213 9.96958 25.1236 10.0266 24.9259 10.0837L25.789 11.8973C25.9791 12.2433 26.059 12.5361 26.0438 12.7909C26.0057 13.5361 25.1883 13.9316 24.0666 14.1863C23.7738 14.251 23.4962 14.3308 23.2339 14.3916C22.9715 14.4525 22.732 14.4981 22.5153 14.4981C22.1312 14.4981 21.8232 14.3574 21.6293 13.9125C21.6103 13.8745 21.5951 13.8327 21.5799 13.7909L20.8651 11.8365L20.4658 10.7491C20.4544 10.7262 20.443 10.7034 20.4278 10.6806C19.8042 9.55133 18.9259 9.04563 18.0172 9.04563C17.7396 9.04563 17.4582 9.09126 17.1807 9.18251C16.8042 9.30418 16.4354 9.50951 16.0856 9.78327C15.3061 10.3992 14.6255 11.3688 14.2225 12.6084C14.078 13.0532 13.9677 13.5323 13.8993 14.0418C13.7662 15.0266 13.7966 16.1255 14.0438 17.3042C14.2681 18.4335 13.1198 18.9506 11.9411 18.9506C10.9335 18.9506 9.91069 18.5703 9.71678 17.8593C9.69396 17.7719 9.67115 17.6844 9.65214 17.597C9.46963 16.8289 9.35936 16.0228 9.32894 15.2053C9.30993 14.7034 9.32134 14.1939 9.35936 13.6882C9.15024 13.7262 8.94111 13.7719 8.73959 13.8251C8.52666 13.8783 8.32134 13.943 8.11982 14.0114C7.19586 14.3308 6.38598 14.7985 5.77381 15.384C5.05138 16.076 4.66354 16.8783 4.74339 17.5285C4.78141 17.8441 4.9297 18.1369 5.12742 18.3954C5.16164 18.3346 5.19586 18.2738 5.23389 18.2167C5.90309 17.1255 6.89929 16.2357 8.13503 15.616C8.19206 16.4943 8.32894 17.3574 8.54567 18.1673V18.1749C8.54567 18.1787 8.54947 18.1863 8.54947 18.1939C8.73959 18.8707 9.2643 19.4297 10.0248 19.7757C10.5761 20.0266 11.2567 20.1635 11.9449 20.1635C13.1578 20.1635 14.1845 19.7567 14.77 19.0456C15.2187 18.4981 15.386 17.7909 15.2415 17.0608V17.0532C15.1312 16.5171 15.0666 15.9886 15.0514 15.4715C15.5913 16.2472 15.9943 16.9924 16.2453 17.6198C16.675 18.7034 16.5837 19.2091 16.5191 19.3004C16.3213 19.5741 16.3822 19.9544 16.6559 20.1483C16.7624 20.2243 16.8879 20.2624 17.0134 20.2624C17.2035 20.2624 17.386 20.1749 17.5077 20.0114C18.04 19.2738 17.732 18.0608 17.3784 17.1711C16.9183 16.0114 16.1578 14.7871 15.2073 13.6616C15.3974 12.7529 15.7586 11.9392 16.2795 11.3004C16.4658 11.0722 16.6673 10.8745 16.8765 10.7148C17.2833 10.3308 17.4962 10.1863 17.7966 10.1369C17.9753 10.1065 18.1578 10.1217 18.3327 10.1711L18.5153 10.2205C18.8613 10.3916 19.0172 10.5209 19.2149 10.7871L19.3822 11.1293C19.6293 11.6958 19.6293 11.9962 19.8156 12.5019L20.4354 14.1977C20.4734 14.3004 20.5153 14.3992 20.5609 14.4943C19.6673 15.0494 19.0134 15.6122 18.6293 15.9848L18.3251 16.2776L18.4924 16.6654C18.8042 17.3878 18.9905 18.1407 19.0514 18.9087C19.0818 19.2814 19.0818 19.6578 19.0514 20.0266L19.0134 20.5019L19.0704 20.5209C19.0019 20.7681 19.097 21.0418 19.3213 21.1901C20.7282 22.1179 20.8651 22.9125 20.8727 23.1369C20.8955 23.7985 20.3365 24.5818 19.3784 25.2395C18.2111 26.038 16.5571 26.5818 14.7244 26.7719C14.3898 26.8061 14.1464 27.1065 14.1807 27.4411C14.2111 27.7529 14.4772 27.9886 14.7852 27.9886C14.808 27.9886 14.827 27.9886 14.8499 27.9848C16.8803 27.7757 18.732 27.1597 20.0666 26.2472C20.2301 26.1331 20.386 26.019 20.5343 25.8973C20.4316 26.4715 20.2529 27.0228 20.0096 27.5513C18.6255 30.5095 15.5571 31.4411 14.6483 31.654C14.3213 31.73 14.1198 32.057 14.1959 32.3878C14.2605 32.6692 14.5115 32.8555 14.789 32.8555C14.8346 32.8555 14.8841 32.8517 14.9297 32.8403C15.9715 32.5932 19.4962 31.5209 21.1122 28.0684C21.5343 27.1673 21.7814 26.1977 21.8461 25.1825C22.3137 25.3992 22.8651 25.7719 23.1236 26.3954C23.3289 26.8935 23.1997 27.4259 23.1122 27.7757L23.097 27.8441C22.9601 28.4107 22.6711 28.9468 22.2605 29.3916C22.04 29.6312 22.0362 30.0038 22.2605 30.2357C22.5038 30.4905 22.9107 30.4829 23.1464 30.2281C23.7016 29.6274 24.0932 28.9049 24.2795 28.1331L24.2947 28.0722C24.405 27.6274 24.6103 26.7985 24.2491 25.9316C23.7586 24.7529 22.6978 24.1787 21.9753 23.9164C22.059 23.6426 22.097 23.3688 22.0856 23.0951C22.0742 22.7643 21.9525 22.057 21.2491 21.2472L23.1122 21.8669C23.1769 21.8897 23.2415 21.8973 23.3061 21.8973C23.5609 21.8973 23.7966 21.7376 23.8841 21.4829C23.9905 21.1635 23.8194 20.8213 23.5 20.7148L20.2871 19.6426C20.2947 19.365 20.2833 19.0837 20.2643 18.8099C20.2035 18.0532 20.0362 17.308 19.77 16.5894C20.154 16.251 20.6978 15.8251 21.386 15.4183C21.713 15.6122 22.0932 15.711 22.5153 15.711C22.9791 15.711 23.4392 15.5932 23.8803 15.4791C24.0286 15.4411 24.1845 15.3992 24.3327 15.365C25.154 15.1787 26.2605 14.8365 26.8537 13.9962C26.9335 13.8821 27.0057 13.7567 27.0666 13.6236C27.078 13.5932 27.0932 13.5627 27.1046 13.5323C27.2795 13.0913 27.7396 12.8365 28.2073 12.9087H28.2149C28.8765 13.0152 29.4848 13.1749 30.0362 13.3612C31.2415 13.7681 32.1769 14.3042 32.7662 14.6996C33.0476 14.8897 33.1198 15.27 32.9335 15.5475Z" fill="white"/>
</g>
<defs>
<clipPath id="clip0_571_2024">
<rect width="39" height="39" fill="white"/>
</clipPath>
</defs>
</svg>
