<svg width="178" height="26" viewBox="0 0 178 26" fill="none" xmlns="http://www.w3.org/2000/svg">
<path d="M0.0650288 24.8958L4.57822 0.353636H13.0064C20.318 0.353636 21.9318 2.54616 21.1189 6.96658C20.6507 9.51275 19.4316 11.2456 16.5576 11.9882L16.5316 12.1296C19.3125 12.8723 20.4446 14.7465 19.8788 17.8231C19.0594 22.2789 16.5612 24.8958 9.24956 24.8958H0.0650288ZM8.19301 10.4676H10.0299C13.5957 10.4676 15.17 9.93711 15.6122 7.5324C16.0804 4.98624 14.7047 4.6326 11.1029 4.6326H9.26603L8.19301 10.4676ZM6.33311 20.5815H8.85435C12.7083 20.5815 13.9354 19.9803 14.3971 17.4695C14.8198 15.1709 13.8888 14.3575 9.99891 14.3575H7.47767L6.33311 20.5815Z" fill="#D0E0FF"/>
<path d="M29.7534 20.2279H39.6943L38.8359 24.8958H23.4203L27.9335 0.353636H33.4082L29.7534 20.2279Z" fill="#D0E0FF"/>
<path d="M51.7088 25.2494C44.4693 25.2494 40.8445 22.6326 42.6849 12.6247C44.5252 2.61689 49.1125 0 56.3521 0C63.6997 0 67.2164 2.61689 65.376 12.6247C63.5356 22.6326 59.0564 25.2494 51.7088 25.2494ZM52.5347 20.7583C57.145 20.7583 58.5372 18.6719 59.6492 12.6247C60.7482 6.64831 60.156 4.38506 55.5457 4.38506C50.9714 4.38506 49.5467 6.64831 48.4477 12.6247C47.3357 18.6719 47.9605 20.7583 52.5347 20.7583Z" fill="#D0E0FF"/>
<path d="M79.5891 25.2494C71.9173 25.2494 67.7002 22.9155 69.5926 12.6247C71.3355 3.14734 76.6686 0 84.4124 0C86.8256 0 89.5765 0.31827 90.9852 0.884085L90.1203 5.58741C88.3709 4.91551 86.1603 4.59724 83.9992 4.59724C79.2089 4.59724 76.7161 6.40077 75.5716 12.6247C74.375 19.1316 75.8833 20.7229 80.7817 20.7229C81.7902 20.7229 82.6251 20.6876 83.486 20.5108L84.4615 15.2062H80.2114L81.0373 10.7151H90.3659L87.8947 24.1532C85.9112 24.7544 82.7226 25.2494 79.5891 25.2494Z" fill="#D0E0FF"/>
<path d="M108.577 20.2279H118.518L117.66 24.8958H102.244L106.757 0.353636H112.232L108.577 20.2279Z" fill="#D0E0FF"/>
<path d="M121.273 24.8958L125.786 0.353636H131.261L126.748 24.8958H121.273Z" fill="#D0E0FF"/>
<path d="M138.586 24.8958L134.491 0.353636H140.542L143.097 19.1669H143.313L153.004 0.353636H158.695L145.393 24.8958H138.586Z" fill="#D0E0FF"/>
<path d="M163.765 20.2279H174.066L173.207 24.8958H157.432L161.945 0.353636H177.216L176.358 5.0216H166.561L165.631 10.0786H174.708L173.882 14.5697H164.805L163.765 20.2279Z" fill="#D0E0FF"/>
</svg>
