<svg xmlns="http://www.w3.org/2000/svg" width="250" height="31" viewBox="0 0 250 31" fill="none">
  <path d="M0.904252 29.6358L6.50248 0.537205H14.6171L16.9417 12.6243L17.6699 17.3696H17.8523L20.4064 12.6243L27.1994 0.537205H35.3141L29.7158 29.6358H22.4218L24.0754 21.0405C24.6438 18.0859 26.1519 13.5644 27.0765 10.6545H26.8941L23.1232 17.4591L17.1342 27.2631H14.2165L11.9998 17.4591L10.9383 10.6545H10.756C10.5609 13.5644 10.3292 18.0859 9.76078 21.0405L8.10715 29.6358H0.904252Z" fill="#2D50A0" fill-opacity="0.15"/>
  <path d="M48.685 30.173C40.4792 30.173 36.0026 24.5323 37.8457 14.9522C39.6888 5.37204 46.2841 0 54.4899 0C62.6958 0 67.2154 5.41681 65.3809 14.9522C63.5378 24.5323 56.8908 30.173 48.685 30.173ZM49.9597 23.5474C53.5155 23.5474 56.3411 20.2347 57.3574 14.9522C58.3737 9.66967 56.7711 6.62552 53.2153 6.62552C49.6594 6.62552 46.8855 9.66967 45.8692 14.9522C44.8529 20.2347 46.4038 23.5474 49.9597 23.5474Z" fill="#2D50A0" fill-opacity="0.15"/>
  <path d="M67.8616 29.6358L73.4598 0.537205H84.1274C90.3273 0.537205 95.0492 2.05928 93.9468 7.78946C93.4645 10.2964 91.4544 13.1615 87.8175 14.0568L87.783 14.2359C91.8221 15.0417 93.5057 17.1905 92.7651 21.0405C91.611 27.0393 85.8232 29.6358 79.4409 29.6358H67.8616ZM79.0961 11.9976H81.7402C84.2931 11.9976 85.7195 10.7441 86.064 8.9534C86.4086 7.16272 85.3611 6.44645 82.8082 6.44645H80.1641L79.0961 11.9976ZM76.8396 23.7265H80.0307C83.1307 23.7265 84.8134 22.5626 85.2268 20.4138C85.6403 18.2649 84.3537 17.3696 81.2537 17.3696H78.0626L76.8396 23.7265Z" fill="#2D50A0" fill-opacity="0.15"/>
  <path d="M95.7753 29.6358L101.374 0.537205H109.215L103.616 29.6358H95.7753Z" fill="#2D50A0" fill-opacity="0.15"/>
  <path d="M110.2 29.6358L115.798 0.537205H123.639L119.281 23.1893H130.496L129.255 29.6358H110.2Z" fill="#2D50A0" fill-opacity="0.15"/>
  <path d="M134.374 29.6358L139.972 0.537205H159.119L157.879 6.98365H146.573L145.694 11.5499H155.359L154.119 17.9963H144.454L143.455 23.1893H155.217L153.977 29.6358H134.374Z" fill="#2D50A0" fill-opacity="0.15"/>
  <path d="M170.757 15.3103C172.634 5.55111 180.54 0 188.199 0C191.937 0 194.784 1.79068 196.485 3.84996L191.287 8.59527C190.069 7.34179 188.93 6.62552 187.016 6.62552C183.46 6.62552 179.848 9.75921 178.832 15.0417C177.781 20.5033 179.748 23.5474 183.578 23.5474C185.857 23.5474 187.688 22.5626 189.222 21.2196L192.612 25.8753C189.554 28.7404 185.859 30.173 182.212 30.173C174.462 30.173 168.845 25.2486 170.757 15.3103Z" fill="#2D50A0" fill-opacity="0.15"/>
  <path d="M195.643 15.3103C197.521 5.55111 205.427 0 213.085 0C216.824 0 219.67 1.79068 221.371 3.84996L216.173 8.59527C214.955 7.34179 213.817 6.62552 211.902 6.62552C208.346 6.62552 204.734 9.75921 203.718 15.0417C202.667 20.5033 204.635 23.5474 208.464 23.5474C210.743 23.5474 212.574 22.5626 214.109 21.2196L217.498 25.8753C214.44 28.7404 210.745 30.173 207.098 30.173C199.348 30.173 193.731 25.2486 195.643 15.3103Z" fill="#2D50A0" fill-opacity="0.15"/>
  <path d="M222.507 15.5789L225.401 0.537205H233.242L230.176 16.4743C229.177 21.6672 230.182 23.5474 233.282 23.5474C236.382 23.5474 238.203 21.6672 239.202 16.4743L242.268 0.537205H249.836L246.942 15.5789C245.03 25.5172 240.305 30.173 232.008 30.173C223.711 30.173 220.595 25.5172 222.507 15.5789Z" fill="#2D50A0" fill-opacity="0.15"/>
</svg>