<svg width="48" height="48" viewBox="0 0 48 48" fill="none" xmlns="http://www.w3.org/2000/svg">
<path d="M38.2232 1.875H9.37776C4.28807 1.875 0.148071 6.01547 0.148071 11.1047V29.6845C0.148071 34.7738 4.28807 38.9142 9.37776 38.9142H21.9632V42.4894H14.4831C13.4682 42.4894 12.6454 43.3122 12.6454 44.3271C12.6454 45.3421 13.4682 46.1648 14.4831 46.1648H33.1183C34.1333 46.1648 34.956 45.3421 34.956 44.3271C34.956 43.3122 34.1333 42.4894 33.1183 42.4894H25.6387V38.9142H38.2232C43.3129 38.9142 47.4529 34.7738 47.4529 29.6845V11.1047C47.4529 6.01547 43.3129 1.875 38.2232 1.875ZM43.7774 29.6845C43.7774 32.7469 41.2865 35.2387 38.2232 35.2387H9.37776C6.31495 35.2387 3.82354 32.7473 3.82354 29.6845V11.1047C3.82354 8.04234 6.31448 5.55047 9.37776 5.55047H38.2232C41.286 5.55047 43.7774 8.04187 43.7774 11.1047V29.6845Z" fill="white"/>
<path d="M11.6105 15.2618C11.6105 14.2469 12.4333 13.4241 13.4482 13.4241H34.1534C35.1683 13.4241 35.9911 14.2469 35.9911 15.2618C35.9911 16.2768 35.1683 17.0995 34.1534 17.0995H13.4482C12.4333 17.0995 11.6105 16.2768 11.6105 15.2618ZM11.6105 25.5274C11.6105 24.5125 12.4333 23.6897 13.4482 23.6897H26.4537C27.4686 23.6897 28.2914 24.5125 28.2914 25.5274C28.2914 26.5424 27.4686 27.3652 26.4537 27.3652H13.4482C12.4333 27.3652 11.6105 26.5424 11.6105 25.5274Z" fill="white"/>
</svg>
