<svg width="48" height="48" viewBox="0 0 48 48" fill="none" xmlns="http://www.w3.org/2000/svg">
<path d="M41.1256 29.3807H34.3701L30.4257 21.734C30.3125 21.5215 30.1396 21.3475 29.9286 21.2339C29.7176 21.1204 29.4781 21.0723 29.2401 21.0957C29.0021 21.1191 28.7763 21.2129 28.591 21.3655C28.4058 21.518 28.2694 21.7224 28.199 21.9529L24.9099 33.642L22.3137 5.9457C22.2617 5.43995 22.035 4.96877 21.6733 4.61466C21.3116 4.26054 20.838 4.04606 20.3353 4.00875C19.8316 3.96329 19.328 4.09597 18.9107 4.38406C18.4934 4.67215 18.1884 5.09771 18.048 5.58779L11.5075 29.3702H1.81148C1.33618 29.3657 0.878528 29.5516 0.538925 29.8871C0.199322 30.2226 0.00550609 30.6803 0 31.1598C0 32.1472 0.811826 32.9494 1.81148 32.9494H14.3416L19.4087 14.5146L21.9903 42.053C22.0863 43.0868 22.921 43.9058 23.9687 43.9921C25.0184 44.0805 25.9826 43.4194 26.2643 42.4173L30.0417 28.9849L32.0828 32.9409H41.1256C41.7913 34.0526 43.0017 34.7326 44.3082 34.7305C46.345 34.7305 48 33.1283 48 31.1514C48 29.1807 46.345 27.5869 44.3082 27.5869C43.6696 27.5823 43.0407 27.7447 42.4829 28.0583C41.9251 28.372 41.4575 28.8261 41.1256 29.3765V29.3807Z" fill="white"/>
</svg>
