<svg width="497" height="106" viewBox="0 0 497 106" fill="none" xmlns="http://www.w3.org/2000/svg">
<path d="M437.196 28.8682L416 28.4884L436.439 28.1085L439.467 22.031L442.117 31.907L446.28 0L450.065 39.5039L451.958 32.2868H458.393L462.556 19.7519L466.341 36.4651H467.477L472.776 11.0155L475.425 28.8682L497 29.6279H474.668L472.776 16.3333L468.612 37.6047H465.584L462.556 25.0698L459.528 33.8062H453.093L449.308 49L446.28 11.7752L442.495 36.4651L439.089 24.3101L437.196 28.8682Z" fill="#2D50A0"/>
<path d="M253.328 83.12L255.248 75.992L257.744 76.4L256.544 80.744H259.856C260.288 78.992 260.648 77.144 260.912 75.224L263.48 75.536C263.192 77.384 262.856 79.112 262.448 80.744H273.368V83.12H261.824C261.584 83.84 261.368 84.512 261.152 85.184H270.656V87.296C270.08 89.168 268.928 90.896 267.224 92.48C269.024 93.464 271.16 94.352 273.632 95.168L272.336 97.544C269.48 96.488 267.08 95.36 265.136 94.136C263.264 95.432 260.984 96.608 258.296 97.664L256.976 95.312C259.304 94.472 261.296 93.56 262.928 92.576C261.464 91.376 260.36 90.128 259.592 88.808C257.888 92.264 255.752 95.048 253.184 97.136L251.864 94.808C255.104 91.928 257.528 88.04 259.16 83.12H253.328ZM261.416 87.44C262.208 88.76 263.408 89.984 265.016 91.136C266.432 89.984 267.464 88.736 268.112 87.44H261.416ZM267.512 75.2C269.144 76.424 270.536 77.648 271.64 78.896L269.864 80.696C268.928 79.472 267.584 78.176 265.808 76.832L267.512 75.2ZM280.376 86.552C280.328 87.152 280.28 87.752 280.208 88.328H284.216V86.552H280.376ZM279.872 90.584C279.392 93.104 278.648 95.408 277.616 97.472L275.744 95.768C277.184 92.744 277.904 88.832 277.928 84.056V76.04H296.864V82.328H280.472V84.344H284.216V82.784H286.64V84.344H290.528V82.808H292.976V84.344H296.72V86.552H292.976V88.328H297.464V90.584H295.16L296.456 91.856C295.664 92.864 294.8 93.704 293.888 94.352C295.136 94.88 296.504 95.216 297.992 95.336L297.416 97.592C293.288 97.256 289.952 95.336 287.432 91.832L289.208 90.632C289.952 91.616 290.792 92.432 291.704 93.104C292.664 92.552 293.552 91.712 294.416 90.584H284.696V94.784C285.992 94.448 287.12 94.088 288.08 93.68L288.536 95.984C286.64 96.584 284.384 97.112 281.768 97.592L281.096 95.384C281.912 95.096 282.32 94.52 282.32 93.704V90.584H279.872ZM286.64 88.328H290.528V86.552H286.64V88.328ZM294.344 78.32H280.472V80.12H294.344V78.32ZM321.44 76.28V78.728H304.256V85.352C304.16 90.392 303.344 94.448 301.76 97.496L299.792 95.744C301.016 93.248 301.664 89.792 301.712 85.352V76.28H321.44ZM320.672 83.384C320.624 90.008 320.288 93.968 319.64 95.288C318.968 96.584 317.84 97.256 316.232 97.256C315.44 97.256 314.48 97.208 313.376 97.136L312.704 94.808C313.904 94.856 314.864 94.904 315.632 94.952C316.712 94.904 317.384 94.4 317.648 93.392C317.936 92.408 318.104 89.816 318.152 85.64H313.352C313.016 88.184 312.416 90.344 311.528 92.072C310.28 94.424 308.288 96.224 305.504 97.472L304.112 95.264C306.8 93.92 308.6 92.264 309.536 90.296C310.112 88.952 310.544 87.416 310.784 85.64H305.528V83.384H311.024L311.096 81.992V79.592H313.616V81.992L313.568 83.384H320.672ZM324.32 81.632H327.536V78.92C326.648 79.04 325.736 79.136 324.824 79.232L324.32 76.88C327.272 76.64 329.912 76.184 332.24 75.464L333.128 77.816C332.096 78.104 331.016 78.344 329.912 78.536V81.632H332.6V83.96H329.912V84.92C330.968 85.88 332.048 86.912 333.128 88.064L331.712 90.2C331.04 89.048 330.44 88.064 329.912 87.296V97.4H327.536V87.752C326.816 89.648 325.904 91.4 324.824 92.984L323.72 90.176C325.328 88.352 326.504 86.264 327.248 83.96H324.32V81.632ZM333.32 89.648H337.976V87.464C336.536 87.584 335.048 87.68 333.512 87.776L333.056 85.592C337.328 85.4 341.12 85.064 344.48 84.536L345.272 86.624C343.76 86.864 342.152 87.056 340.424 87.248V89.648H345.176V91.88H340.424V94.424H345.992V96.704H332.504V94.424H337.976V91.88H333.32V89.648ZM333.92 76.04H344.696V83.432H333.92V76.04ZM342.272 81.224V78.248H336.368V81.224H342.272Z" fill="#2D50A0"/>
<path d="M208.611 105.44V89.6023L194.675 66.6008H203.238L212.304 82.8306H212.64L221.818 66.6008H230.045L215.998 89.4904V105.44H208.611Z" fill="#2D50A0"/>
<path d="M195.579 105.44H186.961L177.279 90.7776H176.999H172.242V105.44H164.911V66.6008H176.999C187.52 66.6008 191.942 69.8467 191.942 78.6332C191.942 85.1811 189.591 88.539 184.442 89.9381L195.579 105.44ZM172.242 85.1811H175.992C182.204 85.1811 184.61 84.1737 184.61 78.6332C184.61 73.5964 182.204 72.533 175.992 72.533H172.242V85.1811Z" fill="#2D50A0"/>
<path d="M138.322 106C127.129 106 120.973 101.859 120.973 86.0205C120.973 70.3504 127.129 66.0411 138.322 66.0411C149.515 66.0411 155.615 70.3504 155.615 86.0205C155.615 101.859 149.515 106 138.322 106ZM138.322 99.8438C146.213 99.8438 147.948 96.0942 147.948 86.0205C147.948 76.1147 146.213 72.0853 138.322 72.0853C130.375 72.0853 128.64 76.1147 128.64 86.0205C128.64 96.0942 130.375 99.8438 138.322 99.8438Z" fill="#2D50A0"/>
<path d="M116.471 66.6008V73.0367H105.894V105.44H98.5624V73.0367H88.041V66.6008H116.471Z" fill="#2D50A0"/>
<path d="M69.1478 106C64.5587 106 59.9136 105.328 57.731 104.601V98.053C60.0815 98.9484 64.8385 99.676 68.9239 99.676C74.2966 99.676 76.4232 98.3888 76.4232 94.4153C76.4232 90.7775 75.136 89.7702 68.756 88.1472C60.5852 86.2444 58.0108 83.9498 58.0108 77.1221C58.0108 69.2311 62.7678 65.9851 71.7781 65.9851C75.9755 65.9851 79.6692 66.6567 81.6839 67.3842V73.5963C79.6692 72.8688 75.3599 72.1412 72.002 72.1412C67.3009 72.1412 65.1743 73.0926 65.1743 76.9542C65.1743 79.9204 66.0697 80.8158 72.2259 82.3269C81.2922 84.5654 83.6987 87.1398 83.6987 94.5272C83.6987 102.138 79.2774 106 69.1478 106Z" fill="#8AB335"/>
<path d="M41.6172 105.44V66.6008H48.9486V105.44H41.6172Z" fill="#2D50A0"/>
<path d="M23.953 66.6008H31.2844V105.44H23.953V87.6995H7.3314V105.44H0V66.6008H7.3314V81.5993H23.953V66.6008Z" fill="#2D50A0"/>
<path d="M400.797 9.55969V15.9956H390.219V48.3993H382.888V15.9956H372.367V9.55969H400.797Z" fill="#2D50A0"/>
<path d="M332.801 48.3993V9.55969H344.05L358.153 38.8293H358.489V9.55969H365.652V48.3993H355.69L340.356 17.2828H340.02V48.3993H332.801Z" fill="#2D50A0"/>
<path d="M307.697 41.9633H324.374V48.3993H300.365V9.55969H323.367V15.9397H307.697V25.3418H322.247V31.4419H307.697V41.9633Z" fill="#8AB335"/>
<path d="M250.878 48.3993V9.55969H262.742L270.354 32.5053H270.689L278.525 9.55969H290.053V48.3993H282.834V16.7232H282.498L274.159 40.5642H266.66L258.377 16.7232H258.041V48.3993H250.878Z" fill="#2D50A0"/>
<path d="M214.999 48.3993V9.55969H227.423C238.84 9.55969 242.366 13.3093 242.366 22.4876C242.366 32.2814 238.001 35.8072 227.423 35.8072H222.33V48.3993H214.999ZM222.33 29.8749H226.528C232.796 29.8749 234.867 28.252 234.867 22.5995C234.867 17.2828 232.74 15.492 226.528 15.492H222.33V29.8749Z" fill="#2D50A0"/>
<path d="M188.411 48.9589C177.218 48.9589 171.062 44.8175 171.062 28.9795C171.062 13.3093 177.218 9 188.411 9C199.604 9 205.704 13.3093 205.704 28.9795C205.704 44.8175 199.604 48.9589 188.411 48.9589ZM188.411 42.8028C196.302 42.8028 198.037 39.0531 198.037 28.9795C198.037 19.0737 196.302 15.0442 188.411 15.0442C180.464 15.0442 178.729 19.0737 178.729 28.9795C178.729 39.0531 180.464 42.8028 188.411 42.8028Z" fill="#8AB335"/>
<path d="M151.611 41.9633H167.561V48.3993H144.28V9.55969H151.611V41.9633Z" fill="#2D50A0"/>
<path d="M119.176 41.9633H135.854V48.3993H111.845V9.55969H134.846V15.9397H119.176V25.3418H133.727V31.4419H119.176V41.9633Z" fill="#2D50A0"/>
<path d="M82.6922 48.3993L69.3726 9.55969H77.3755L87.2813 40.6202H87.6171L97.8027 9.55969H105.358L91.8145 48.3993H82.6922Z" fill="#2D50A0"/>
<path d="M48.0741 41.9633H64.7516V48.3993H40.7427V9.55969H63.7442V15.9397H48.0741V25.3418H62.6249V31.4419H48.0741V41.9633Z" fill="#2D50A0"/>
<path d="M0 9.55969H12.5921C23.897 9.55969 31.4522 12.8057 31.4522 28.9795C31.4522 43.9781 23.897 48.3993 12.5921 48.3993H0V9.55969ZM7.3314 42.0753H12.2563C19.7556 42.0753 23.897 39.2211 23.897 28.9795C23.897 18.1783 19.5877 15.7718 12.2563 15.7718H7.3314V42.0753Z" fill="#2D50A0"/>
</svg>
