<svg width="476" height="97" viewBox="0 0 476 97" fill="none" xmlns="http://www.w3.org/2000/svg">
<path d="M345.339 96.0507V57.368H356.543L370.589 86.5194H370.923V57.368H378.058V96.0507H368.136L352.864 65.06H352.529V96.0507H345.339Z" fill="#8AB335"/>
<path d="M318.858 96.608C307.71 96.608 301.579 92.4833 301.579 76.7093C301.579 61.1024 307.71 56.8105 318.858 56.8105C330.006 56.8105 336.081 61.1024 336.081 76.7093C336.081 92.4833 330.006 96.608 318.858 96.608ZM318.858 90.4767C326.717 90.4767 328.445 86.7422 328.445 76.7093C328.445 66.8435 326.717 62.8303 318.858 62.8303C310.943 62.8303 309.215 66.8435 309.215 76.7093C309.215 86.7422 310.943 90.4767 318.858 90.4767Z" fill="#2D50A0"/>
<path d="M285.085 96.0507V57.368H292.386V96.0507H285.085Z" fill="#2D50A0"/>
<path d="M278.453 57.368V63.778H267.919V96.0507H260.617V63.778H250.138V57.368H278.453Z" fill="#2D50A0"/>
<path d="M227.914 96.6081C217.881 96.6081 212.307 93.3195 212.307 83.3423V57.368H219.609V82.339C219.609 87.9128 221.504 90.3096 227.97 90.3096C234.714 90.3096 236.386 87.7456 236.386 82.339V57.368H243.632V83.3423C243.632 92.7621 238.114 96.6081 227.914 96.6081Z" fill="#2D50A0"/>
<path d="M171.896 57.368H184.437C195.696 57.368 203.221 60.6009 203.221 76.7094C203.221 91.6473 195.696 96.0507 184.437 96.0507H171.896V57.368ZM179.198 89.7522H184.103C191.572 89.7522 195.696 86.9095 195.696 76.7094C195.696 65.9518 191.404 63.555 184.103 63.555H179.198V89.7522Z" fill="#8AB335"/>
<path d="M145.415 96.608C134.267 96.608 128.136 92.4833 128.136 76.7093C128.136 61.1024 134.267 56.8105 145.415 56.8105C156.563 56.8105 162.638 61.1024 162.638 76.7093C162.638 92.4833 156.563 96.608 145.415 96.608ZM145.415 90.4767C153.274 90.4767 155.002 86.7422 155.002 76.7093C155.002 66.8435 153.274 62.8303 145.415 62.8303C137.5 62.8303 135.772 66.8435 135.772 76.7093C135.772 86.7422 137.5 90.4767 145.415 90.4767Z" fill="#2D50A0"/>
<path d="M123.788 96.0507H115.204L105.562 81.4472H105.283H100.545V96.0507H93.2434V57.368H105.283C115.762 57.368 120.165 60.6009 120.165 69.3519C120.165 75.8733 117.824 79.2176 112.696 80.6111L123.788 96.0507ZM100.545 75.8733H104.28C110.467 75.8733 112.863 74.87 112.863 69.3519C112.863 64.3354 110.467 63.2763 104.28 63.2763H100.545V75.8733Z" fill="#2D50A0"/>
<path d="M86.6123 57.368V63.778H76.0776V96.0507H68.7759V63.778H58.297V57.368H86.6123Z" fill="#2D50A0"/>
<path d="M18.8911 96.0507V57.368H30.0945L44.1407 86.5194H44.4751V57.368H51.6097V96.0507H41.6882L26.4158 65.06H26.0813V96.0507H18.8911Z" fill="#2D50A0"/>
<path d="M1.33771 96.0507V57.368H8.63948V96.0507H1.33771Z" fill="#2D50A0"/>
<path d="M256.736 39.24V23.9119L242.69 0.557373H252.611L260.916 15.997H261.251L269.834 0.557373H279.366L265.264 23.7447V39.24H256.736Z" fill="#2D50A0"/>
<path d="M203.406 39.24V0.557373H216.337L228.488 28.2038H228.823V0.557373H237.128V39.24H225.478L212.101 9.81H211.767V39.24H203.406Z" fill="#2D50A0"/>
<path d="M188.935 39.24L185.647 29.653H169.928L166.584 39.24H157.777L172.214 0.557373H183.584L197.909 39.24H188.935ZM172.381 22.6299H183.194L178.178 7.97062H177.509L172.381 22.6299Z" fill="#2D50A0"/>
<path d="M128.781 39.24V0.557373H141.991C153.585 0.557373 157.208 4.40334 157.208 13.7117C157.208 23.8004 152.916 27.3119 141.991 27.3119H137.253V39.24H128.781ZM137.253 20.5118H140.876C146.618 20.5118 148.568 19.0069 148.568 13.8789C148.568 8.91818 146.562 7.24602 140.876 7.24602H137.253V20.5118Z" fill="#2D50A0"/>
<path d="M78.514 39.24V0.557373H92.2815L98.6914 22.3512H99.0259L105.715 0.557373H119.092V39.24H110.731V8.8067H110.397L102.928 31.9383H94.4553L87.0978 8.8067H86.7634V39.24H78.514Z" fill="#2D50A0"/>
<path d="M52.2572 39.7974C41.0537 39.7974 34.6995 35.6728 34.6995 19.8987C34.6995 4.12466 41.0537 0 52.2572 0C63.6279 0 69.8149 4.12466 69.8149 19.8987C69.8149 35.6728 63.6279 39.7974 52.2572 39.7974ZM52.2572 32.7186C59.3917 32.7186 60.9524 29.43 60.9524 19.8987C60.9524 10.4789 59.3917 6.9116 52.2572 6.9116C45.1784 6.9116 43.6177 10.4789 43.6177 19.8987C43.6177 29.43 45.1784 32.7186 52.2572 32.7186Z" fill="#8AB335"/>
<path d="M18.7282 39.7974C7.41325 39.7974 0 36.1187 0 19.8987C0 4.96075 7.30177 0 18.6725 0C22.2955 0 25.3054 0.44591 27.7021 1.28199V8.58376C25.3054 7.74768 22.5184 7.24603 19.2298 7.24603C12.2625 7.24603 9.19688 10.3674 9.19688 19.843C9.19688 29.8759 12.2625 32.4399 19.1184 32.4399C22.2955 32.4399 25.1939 31.994 28.148 30.935V38.181C25.8628 39.1286 22.4627 39.7974 18.7282 39.7974Z" fill="#2D50A0"/>
<path d="M416.196 76.8682L395 76.4884L415.439 76.1085L418.467 70.031L421.117 79.907L425.28 48L429.065 87.5039L430.958 80.2868H437.393L441.556 67.7519L445.341 84.4651H446.477L451.776 59.0155L454.425 76.8682L476 77.6279H453.668L451.776 64.3333L447.612 85.6047H444.584L441.556 73.0698L438.528 81.8062H432.093L428.308 97L425.28 59.7752L421.495 84.4651L418.089 72.3101L416.196 76.8682Z" fill="#2D50A0"/>
<path d="M292.44 8.992L294.768 9.928C293.088 14.752 290.88 18.448 288.12 21.04L286.128 19.312C288.984 16.72 291.096 13.264 292.44 8.992ZM301.656 21.208C303.336 23.776 304.8 26.536 306.024 29.464L303.672 30.52C303.36 29.752 303.048 29.008 302.736 28.288C298.584 28.912 293.952 29.368 288.864 29.704L288.432 27.256C290.04 26.896 292.416 23.272 295.536 16.384L298.008 17.248C296.136 21.112 294.216 24.424 292.248 27.16C295.488 26.944 298.632 26.608 301.704 26.128C300.96 24.64 300.192 23.248 299.4 21.976L301.656 21.208ZM296.736 8.92H302.376C303.192 13.144 305.088 16.552 308.088 19.168L306.12 20.944C303.336 18.376 301.44 15.16 300.456 11.272H296.736V8.92ZM312.288 18.352H323.424V26.32H312.288V18.352ZM321.024 24.112V20.56H314.664V24.112H321.024ZM327.36 30.328H324.048L323.4 27.928L326.808 28C327.336 28 327.6 27.568 327.6 26.752V11.44H311.616V9.04H330.096V27.448C330.096 29.368 329.184 30.328 327.36 30.328ZM310.272 13.768H325.608V16.048H310.272V13.768ZM347.688 16.36H350.184V30.328H347.688V16.36ZM339.648 16.432H342.144V20.896C342.072 25.336 340.68 28.576 337.944 30.64L336.048 28.96C338.4 27.28 339.6 24.592 339.648 20.896V16.432ZM344.112 8.416H345.888C348.816 11.728 352.224 14.344 356.064 16.264L354.816 18.52C350.976 16.552 347.688 13.96 345 10.792C342.552 13.84 339.288 16.48 335.232 18.736L333.984 16.456C338.064 14.296 341.424 11.632 344.112 8.416ZM366.744 25.216V27.616C364.344 28.48 361.632 29.2 358.584 29.752L358.272 27.256C361.488 26.752 364.32 26.08 366.744 25.216ZM362.016 8.152L364.416 9.088C363.264 11.872 362.112 14.152 360.936 15.952C361.752 15.856 362.568 15.76 363.36 15.616C363.792 14.752 364.272 13.864 364.752 12.904L367.008 13.792C365.016 17.536 363.336 20.272 361.968 22.048C363.432 21.688 364.92 21.232 366.456 20.656V22.936C363.792 23.92 361.272 24.568 358.872 24.88L358.224 22.6C358.656 22.408 359.04 22.168 359.352 21.88C360.072 21.112 360.984 19.792 362.088 17.92C360.96 18.088 359.784 18.256 358.536 18.424L357.912 16.12C358.296 15.952 358.656 15.64 358.992 15.16C360.144 13.048 361.152 10.696 362.016 8.152ZM379.032 20.056V30.52H376.584V29.632H369.984V30.52H367.536V20.056H379.032ZM369.984 27.28H376.584V22.408H369.984V27.28ZM370.44 11.392H366.696V9.04H379.392C379.344 13.792 379.056 16.624 378.48 17.584C377.904 18.496 376.896 18.976 375.504 18.976C374.976 18.976 374.376 18.928 373.656 18.856L373.056 16.672L374.952 16.792C375.816 16.768 376.344 16.456 376.56 15.88C376.752 15.304 376.896 13.816 376.944 11.392H372.888C372.456 13.264 371.928 14.776 371.28 15.904C370.392 17.272 369.096 18.496 367.368 19.6L365.808 17.608C367.248 16.744 368.352 15.808 369.096 14.776C369.672 13.912 370.104 12.784 370.44 11.392Z" fill="#2D50A0"/>
</svg>
