<svg width="221" height="37" viewBox="0 0 221 37" fill="none" xmlns="http://www.w3.org/2000/svg">
<path d="M0 0.518209H10.7381C13.0942 0.518209 15.0576 0.760039 16.6282 1.2437C18.2292 1.69281 19.4978 2.4183 20.4342 3.42017C21.4007 4.38749 22.0804 5.64846 22.4731 7.20308C22.8959 8.72316 23.1074 10.5714 23.1074 12.7479C23.1074 15.0971 22.8808 17.0836 22.4277 18.7073C21.9747 20.2964 21.2497 21.592 20.2529 22.5938C19.2561 23.5957 17.9724 24.3212 16.4017 24.7703C14.831 25.1849 12.9431 25.3922 10.7381 25.3922H6.8869V36.4818H0V0.518209ZM9.83196 19.07C11.01 19.07 11.9917 18.9837 12.777 18.8109C13.5624 18.6036 14.1967 18.2582 14.68 17.7745C15.1935 17.2908 15.5559 16.669 15.7674 15.909C15.9788 15.1144 16.0845 14.1125 16.0845 12.9034C16.0845 11.7633 15.9788 10.796 15.7674 10.0014C15.5559 9.20681 15.1935 8.56769 14.68 8.08403C14.1967 7.60037 13.5473 7.2549 12.7317 7.04762C11.9464 6.84034 10.9798 6.7367 9.83196 6.7367H6.8869V19.07H9.83196Z" fill="white" fill-opacity="0.16"/>
<path d="M45.3185 27.5686H32.5415L29.823 36.4818H22.6642L34.3991 0.518209H43.6421L55.2864 36.4818H47.9917L45.3185 27.5686ZM43.3249 21.0392L39.2471 7.41036H38.7034L34.535 21.0392H43.3249Z" fill="white" fill-opacity="0.16"/>
<path d="M76.5184 36.4818L69.1331 23.3711H65.7349V36.4818H58.848V0.518209H69.5409C71.6553 0.518209 73.4676 0.725491 74.9779 1.14006C76.5184 1.55462 77.787 2.21102 78.7838 3.10924C79.7806 4.00747 80.5055 5.18207 80.9586 6.63305C81.4419 8.08403 81.6836 9.84594 81.6836 11.9188C81.6836 14.9244 81.2003 17.2736 80.2337 18.9664C79.2973 20.6592 77.8172 21.8511 75.7934 22.542L84.6286 36.4818H76.5184ZM68.4988 17.5154C69.6466 17.5154 70.6283 17.4463 71.4438 17.3081C72.2594 17.1354 72.9088 16.8417 73.3921 16.4272C73.9056 16.0126 74.2681 15.4426 74.4795 14.7171C74.7211 13.9916 74.842 13.0588 74.842 11.9188C74.842 10.8478 74.7211 9.98413 74.4795 9.32773C74.2681 8.63679 73.9056 8.10131 73.3921 7.72129C72.9088 7.34127 72.2594 7.08216 71.4438 6.94397C70.6283 6.80579 69.6466 6.7367 68.4988 6.7367H65.7349V17.5154H68.4988Z" fill="white" fill-opacity="0.16"/>
<path d="M107.163 7.41036H98.9167V36.4818H92.0752V7.41036H83.829V0.518209H107.163V7.41036Z" fill="white" fill-opacity="0.16"/>
<path d="M111.457 0.518209H121.969L131.846 26.2213H132.118V0.518209H138.869V36.4818H129.4L118.525 9.12045H118.254V36.4818H111.457V0.518209Z" fill="white" fill-opacity="0.16"/>
<path d="M165.682 29.6415V36.4818H145.837V0.518209H165.048V7.35854H152.724V14.7689H164.142V21.3501H152.724V29.6415H165.682Z" fill="white" fill-opacity="0.16"/>
<path d="M188.949 36.4818L181.564 23.3711H178.166V36.4818H171.279V0.518209H181.972C184.086 0.518209 185.898 0.725491 187.409 1.14006C188.949 1.55462 190.218 2.21102 191.215 3.10924C192.211 4.00747 192.936 5.18207 193.389 6.63305C193.873 8.08403 194.114 9.84594 194.114 11.9188C194.114 14.9244 193.631 17.2736 192.664 18.9664C191.728 20.6592 190.248 21.8511 188.224 22.542L197.059 36.4818H188.949ZM180.93 17.5154C182.077 17.5154 183.059 17.4463 183.875 17.3081C184.69 17.1354 185.34 16.8417 185.823 16.4272C186.336 16.0126 186.699 15.4426 186.91 14.7171C187.152 13.9916 187.273 13.0588 187.273 11.9188C187.273 10.8478 187.152 9.98413 186.91 9.32773C186.699 8.63679 186.336 8.10131 185.823 7.72129C185.34 7.34127 184.69 7.08216 183.875 6.94397C183.059 6.80579 182.077 6.7367 180.93 6.7367H178.166V17.5154H180.93Z" fill="white" fill-opacity="0.16"/>
<path d="M208.903 37C207.06 37 205.308 36.8618 203.647 36.5854C202.016 36.3091 200.717 36.0154 199.75 35.7045V28.8123C200.234 29.0196 200.823 29.2096 201.517 29.3824C202.212 29.5551 202.952 29.7106 203.737 29.8487C204.523 29.9524 205.323 30.056 206.139 30.1597C206.985 30.2288 207.815 30.2633 208.631 30.2633C209.658 30.2633 210.519 30.1942 211.213 30.056C211.938 29.9178 212.512 29.676 212.935 29.3305C213.388 28.9851 213.705 28.5359 213.887 27.9832C214.068 27.4304 214.158 26.7568 214.158 25.9622C214.158 25.2712 214.083 24.6839 213.932 24.2003C213.781 23.7166 213.494 23.2848 213.071 22.9048C212.678 22.5247 212.104 22.1793 211.349 21.8683C210.624 21.5574 209.658 21.2292 208.45 20.8838C206.758 20.4346 205.353 19.951 204.236 19.4328C203.148 18.88 202.272 18.2236 201.608 17.4636C200.943 16.669 200.475 15.719 200.203 14.6134C199.932 13.5079 199.796 12.1433 199.796 10.5196C199.796 6.71942 200.792 4.02474 202.786 2.43558C204.81 0.811858 207.649 0 211.304 0C213.086 0 214.657 0.138188 216.016 0.414565C217.406 0.656396 218.523 0.950048 219.369 1.29552V7.77311C218.976 7.63492 218.478 7.49673 217.874 7.35854C217.27 7.18581 216.605 7.03034 215.88 6.89216C215.155 6.75397 214.415 6.65032 213.66 6.58123C212.935 6.51214 212.24 6.47759 211.576 6.47759C209.794 6.47759 208.495 6.73669 207.679 7.2549C206.894 7.77311 206.501 8.79225 206.501 10.3123C206.501 10.8996 206.562 11.4006 206.682 11.8151C206.803 12.2297 207.045 12.6097 207.407 12.9552C207.8 13.2661 208.344 13.5598 209.039 13.8361C209.763 14.1125 210.7 14.4062 211.848 14.7171C213.72 15.2353 215.246 15.8226 216.424 16.479C217.632 17.1008 218.568 17.8609 219.233 18.7591C219.928 19.6228 220.396 20.6592 220.638 21.8683C220.879 23.0429 221 24.4767 221 26.1695C221 29.6933 220.064 32.388 218.191 34.2535C216.318 36.0845 213.222 37 208.903 37Z" fill="white" fill-opacity="0.16"/>
</svg>
