<svg width="25" height="25" viewBox="0 0 25 25" fill="none" xmlns="http://www.w3.org/2000/svg">
<path d="M14.7093 12.5L21.8749 19.6656C22.485 20.2757 22.485 21.2649 21.8749 21.875C21.2648 22.4851 20.2756 22.4851 19.6655 21.875L11.7351 13.9446C10.9373 13.1467 10.9373 11.8532 11.7351 11.0554L19.6655 3.12499C20.2756 2.51488 21.2648 2.51488 21.8749 3.12499C22.485 3.73509 22.485 4.72426 21.8749 5.33436L14.7093 12.5ZM6.89678 12.5L14.0624 19.6656C14.6725 20.2757 14.6725 21.2649 14.0624 21.875C13.4523 22.4851 12.4631 22.4851 11.853 21.875L3.92259 13.9446C3.12478 13.1467 3.12478 11.8532 3.92259 11.0554L11.853 3.12499C12.4631 2.51488 13.4523 2.51488 14.0624 3.12499C14.6725 3.73509 14.6725 4.72426 14.0624 5.33436L6.89678 12.5Z" fill="#2F54AE"/>
</svg>
