<svg width="474" height="101" viewBox="0 0 474 101" fill="none" xmlns="http://www.w3.org/2000/svg">
<path d="M414.196 80.8682L393 80.4884L413.439 80.1085L416.467 74.031L419.117 83.907L423.28 52L427.065 91.5039L428.958 84.2868H435.393L439.556 71.7519L443.341 88.4651H444.477L449.776 63.0155L452.425 80.8682L474 81.6279H451.668L449.776 68.3333L445.612 89.6047H442.584L439.556 77.0698L436.528 85.8062H430.093L426.308 101L423.28 63.7752L419.495 88.4651L416.089 76.3101L414.196 80.8682Z" fill="#2D50A0"/>
<path d="M166.688 13.848H174.488V11.256H176.864V13.848H179.576V16.08H176.864V22.776C176.864 24.408 176.072 25.248 174.536 25.248H171.752L171.224 22.944C172.088 23.04 172.904 23.112 173.72 23.112C174.224 23.112 174.488 22.776 174.488 22.152V16.8C172.712 19.68 170.408 21.984 167.576 23.712L166.232 21.48C168.968 20.136 171.152 18.336 172.784 16.08H166.688V13.848ZM183.032 8.112V29.52H180.632V28.68H165.368V29.52H162.968V8.112H183.032ZM165.368 26.424H180.632V10.368H165.368V26.424ZM186.68 8.04H194.528V10.008C193.832 12.024 193.016 14.16 192.08 16.416C193.544 18.648 194.336 20.568 194.48 22.2C194.48 23.352 194.24 24.192 193.76 24.696C193.04 25.32 191.816 25.632 190.088 25.656L189.248 23.112C189.8 23.208 190.256 23.256 190.592 23.256C191.168 23.208 191.552 23.136 191.744 22.992C191.936 22.848 192.032 22.584 192.032 22.2C192.032 20.592 191.216 18.792 189.632 16.8C190.688 14.424 191.528 12.288 192.104 10.392H189.128V29.52H186.68V8.04ZM199.16 7.464H201.632C201.632 9.864 201.512 12.048 201.32 14.04C202.616 19.512 204.944 23.904 208.28 27.168L206.432 29.328C203.888 26.52 201.896 23.136 200.504 19.176C199.64 23.28 197.504 26.688 194.12 29.4L192.464 27.384C195.344 25.008 197.216 22.128 198.08 18.72C198.776 15.84 199.136 12.072 199.16 7.464ZM223.688 15.36H226.184V29.328H223.688V15.36ZM215.648 15.432H218.144V19.896C218.072 24.336 216.68 27.576 213.944 29.64L212.048 27.96C214.4 26.28 215.6 23.592 215.648 19.896V15.432ZM220.112 7.416H221.888C224.816 10.728 228.224 13.344 232.064 15.264L230.816 17.52C226.976 15.552 223.688 12.96 221 9.792C218.552 12.84 215.288 15.48 211.232 17.736L209.984 15.456C214.064 13.296 217.424 10.632 220.112 7.416ZM242.744 24.216V26.616C240.344 27.48 237.632 28.2 234.584 28.752L234.272 26.256C237.488 25.752 240.32 25.08 242.744 24.216ZM238.016 7.152L240.416 8.088C239.264 10.872 238.112 13.152 236.936 14.952C237.752 14.856 238.568 14.76 239.36 14.616C239.792 13.752 240.272 12.864 240.752 11.904L243.008 12.792C241.016 16.536 239.336 19.272 237.968 21.048C239.432 20.688 240.92 20.232 242.456 19.656V21.936C239.792 22.92 237.272 23.568 234.872 23.88L234.224 21.6C234.656 21.408 235.04 21.168 235.352 20.88C236.072 20.112 236.984 18.792 238.088 16.92C236.96 17.088 235.784 17.256 234.536 17.424L233.912 15.12C234.296 14.952 234.656 14.64 234.992 14.16C236.144 12.048 237.152 9.696 238.016 7.152ZM255.032 19.056V29.52H252.584V28.632H245.984V29.52H243.536V19.056H255.032ZM245.984 26.28H252.584V21.408H245.984V26.28ZM246.44 10.392H242.696V8.04H255.392C255.344 12.792 255.056 15.624 254.48 16.584C253.904 17.496 252.896 17.976 251.504 17.976C250.976 17.976 250.376 17.928 249.656 17.856L249.056 15.672L250.952 15.792C251.816 15.768 252.344 15.456 252.56 14.88C252.752 14.304 252.896 12.816 252.944 10.392H248.888C248.456 12.264 247.928 13.776 247.28 14.904C246.392 16.272 245.096 17.496 243.368 18.6L241.808 16.608C243.248 15.744 244.352 14.808 245.096 13.776C245.672 12.912 246.104 11.784 246.44 10.392Z" fill="#2D50A0"/>
<path d="M344.001 95.0506V56.3679H355.205L369.251 85.5193H369.586V56.3679H376.72V95.0506H366.799L351.526 64.0599H351.192V95.0506H344.001Z" fill="#8AB335"/>
<path d="M317.52 95.608C306.372 95.608 300.241 91.4833 300.241 75.7093C300.241 60.1024 306.372 55.8105 317.52 55.8105C328.668 55.8105 334.743 60.1024 334.743 75.7093C334.743 91.4833 328.668 95.608 317.52 95.608ZM317.52 89.4767C325.379 89.4767 327.107 85.7422 327.107 75.7093C327.107 65.8435 325.379 61.8303 317.52 61.8303C309.605 61.8303 307.877 65.8435 307.877 75.7093C307.877 85.7422 309.605 89.4767 317.52 89.4767Z" fill="#2D50A0"/>
<path d="M283.747 95.0506V56.3679H291.049V95.0506H283.747Z" fill="#2D50A0"/>
<path d="M277.116 56.3679V62.7779H266.581V95.0506H259.279V62.7779H248.801V56.3679H277.116Z" fill="#2D50A0"/>
<path d="M226.576 95.608C216.543 95.608 210.969 92.3194 210.969 82.3421V56.3679H218.271V81.3389C218.271 86.9127 220.166 89.3095 226.632 89.3095C233.376 89.3095 235.048 86.7455 235.048 81.3389V56.3679H242.294V82.3421C242.294 91.762 236.776 95.608 226.576 95.608Z" fill="#2D50A0"/>
<path d="M170.558 56.3679H183.1C194.359 56.3679 201.883 59.6008 201.883 75.7092C201.883 90.6472 194.359 95.0506 183.1 95.0506H170.558V56.3679ZM177.86 88.7521H182.765C190.234 88.7521 194.359 85.9094 194.359 75.7092C194.359 64.9517 190.067 62.5549 182.765 62.5549H177.86V88.7521Z" fill="#8AB335"/>
<path d="M144.077 95.608C132.929 95.608 126.798 91.4833 126.798 75.7093C126.798 60.1024 132.929 55.8105 144.077 55.8105C155.225 55.8105 161.3 60.1024 161.3 75.7093C161.3 91.4833 155.225 95.608 144.077 95.608ZM144.077 89.4767C151.936 89.4767 153.664 85.7422 153.664 75.7093C153.664 65.8435 151.936 61.8303 144.077 61.8303C136.162 61.8303 134.434 65.8435 134.434 75.7093C134.434 85.7422 136.162 89.4767 144.077 89.4767Z" fill="#2D50A0"/>
<path d="M122.451 95.0506H113.867L104.224 80.447H103.945H99.2075V95.0506H91.9058V56.3679H103.945C114.424 56.3679 118.828 59.6008 118.828 68.3517C118.828 74.8732 116.487 78.2175 111.359 79.611L122.451 95.0506ZM99.2075 74.8732H102.942C109.129 74.8732 111.526 73.8699 111.526 68.3517C111.526 63.3353 109.129 62.2762 102.942 62.2762H99.2075V74.8732Z" fill="#2D50A0"/>
<path d="M85.2745 56.3679V62.7779H74.7399V95.0506H67.4381V62.7779H56.9592V56.3679H85.2745Z" fill="#2D50A0"/>
<path d="M17.5532 95.0506V56.3679H28.7567L42.8028 85.5193H43.1373V56.3679H50.2718V95.0506H40.3503L25.0779 64.0599H24.7435V95.0506H17.5532Z" fill="#2D50A0"/>
<path d="M0 95.0506V56.3679H7.30177V95.0506H0Z" fill="#2D50A0"/>
<path d="M101.708 36.088V0H114.552L120.532 20.332H120.844L127.084 0H139.564V36.088H131.764V7.696H131.452L124.484 29.276H116.58L109.716 7.696H109.404V36.088H101.708Z" fill="#2D50A0"/>
<path d="M88.2079 36.088L85.1399 27.144H70.4759L67.3559 36.088H59.1399L72.6079 0H83.2159L96.5799 36.088H88.2079ZM72.7639 20.592H82.8519L78.1719 6.916H77.5479L72.7639 20.592Z" fill="#8AB335"/>
<path d="M40.6525 29.224H55.5245V36.088H32.7485V0H54.7965V6.864H40.6525V14.3H53.7565V20.904H40.6525V29.224Z" fill="#2D50A0"/>
<path d="M26.78 0V6.916H17.316V36.088H9.464V6.916H0V0H26.78Z" fill="#2D50A0"/>
</svg>
