<svg width="220" height="46" viewBox="0 0 220 46" fill="none" xmlns="http://www.w3.org/2000/svg">
<g clip-path="url(#clip0_40_1429)">
<path d="M62.2808 42.3849H59.2736L58.3949 44.9881H57.7612L60.4553 37.2411H61.1121L63.8105 44.9881H63.1377L62.2808 42.3849ZM62.1111 41.8738L61.6457 40.4718C61.3282 39.5677 61.0657 38.7494 60.7989 37.8147H60.7554C60.4915 38.7494 60.2262 39.5618 59.9202 40.4718L59.4403 41.8738H62.1111Z" fill="#2F54AE"/>
<path d="M69.6145 44.9881L67.5613 41.4939H65.9852V44.9881H65.3501V37.2411H67.6034C69.1389 37.2411 70.1756 37.8045 70.1756 39.3129C70.1756 40.546 69.4245 41.258 68.25 41.4385L70.3351 44.9881H69.6145ZM65.9895 40.961H67.4598C68.7938 40.961 69.5347 40.4296 69.5347 39.3129C69.5347 38.1962 68.7938 37.7725 67.4598 37.7725H65.9852L65.9895 40.961Z" fill="#2F54AE"/>
<path d="M73.6265 37.7827H71.2021V37.2411H76.712V37.7827H74.2717V44.9881H73.6265V37.7827Z" fill="#2F54AE"/>
<path d="M78.5059 37.2411H79.1409V44.9881H78.5059V37.2411Z" fill="#2F54AE"/>
<path d="M81.7246 37.2411H85.9745V37.7827H82.3495V40.7688H85.4075V41.3104H82.3597V44.9881H81.7246V37.2411Z" fill="#2F54AE"/>
<path d="M87.6943 37.2411H88.3294V44.9881H87.6943V37.2411Z" fill="#2F54AE"/>
<path d="M90.4248 41.1095C90.4248 38.6344 91.7907 37.1028 93.7481 37.1028C94.1337 37.1022 94.5147 37.1854 94.8652 37.3467C95.2156 37.5081 95.527 37.7437 95.7781 38.0375L95.4185 38.4524C95.2132 38.208 94.9569 38.0117 94.6678 37.8777C94.3787 37.7436 94.0637 37.6749 93.7452 37.6764C92.1155 37.6764 91.0889 38.9868 91.0889 41.0877C91.0889 43.2031 92.0937 44.5528 93.7133 44.5528C94.4963 44.5528 95.0792 44.2237 95.6302 43.6166L95.9898 44.0214C95.3997 44.7115 94.6747 45.1206 93.6843 45.1206C91.7747 45.1206 90.4248 43.586 90.4248 41.1095Z" fill="#2F54AE"/>
<path d="M97.8877 37.2411H98.5228V44.9881H97.8877V37.2411Z" fill="#2F54AE"/>
<path d="M104.586 42.3849H101.581L100.702 44.9881H100.067L102.767 37.2411H103.422L106.129 44.9881H105.451L104.586 42.3849ZM104.417 41.8738L103.954 40.4718C103.637 39.5677 103.383 38.7494 103.107 37.8147H103.065C102.802 38.7494 102.536 39.5618 102.229 40.4718L101.753 41.8738H104.417Z" fill="#2F54AE"/>
<path d="M107.656 37.2411H108.291V44.4363H111.806V44.9881H107.656V37.2411Z" fill="#2F54AE"/>
<path d="M116.208 37.2411H116.843V44.9881H116.208V37.2411Z" fill="#2F54AE"/>
<path d="M119.427 37.2411H120.083L123.239 42.5654L124.096 44.1276H124.148C124.106 43.3618 124.064 42.5858 124.064 41.8316V37.2411H124.667V44.9881H124.011L120.867 39.6536L119.997 38.1015H119.943C119.975 38.8455 120.029 39.5677 120.029 40.3437V44.9881H119.426L119.427 37.2411Z" fill="#2F54AE"/>
<path d="M128.894 37.7827H126.47V37.2411H131.98V37.7827H129.545V44.9881H128.894V37.7827Z" fill="#2F54AE"/>
<path d="M133.769 37.2411H138.029V37.7827H134.404V40.6072H137.462V41.1488H134.404V44.4363H138.15V44.9881H133.769V37.2411Z" fill="#2F54AE"/>
<path d="M140.172 37.2411H140.807V44.4363H144.322V44.9881H140.172V37.2411Z" fill="#2F54AE"/>
<path d="M146.037 37.2411H146.671V44.4363H150.185V44.9881H146.037V37.2411Z" fill="#2F54AE"/>
<path d="M151.9 37.2411H152.535V44.9881H151.9V37.2411Z" fill="#2F54AE"/>
<path d="M154.631 41.1096C154.631 38.6345 156.039 37.1029 158.07 37.1029C158.472 37.0982 158.871 37.179 159.239 37.3401C159.608 37.5012 159.938 37.7389 160.209 38.0376L159.838 38.4525C159.62 38.2015 159.349 38.0019 159.046 37.8678C158.742 37.7336 158.413 37.6683 158.082 37.6765C156.366 37.6765 155.298 38.9868 155.298 41.0877C155.298 43.2032 156.303 44.5528 158.038 44.5528C158.695 44.5528 159.33 44.3505 159.68 43.9996V41.6701H157.893V41.127H160.296V44.2471C159.81 44.7683 159.005 45.1294 157.976 45.1294C155.985 45.1206 154.631 43.5861 154.631 41.1096Z" fill="#2F54AE"/>
<path d="M162.58 37.2411H166.845V37.7827H163.22V40.6072H166.28V41.1488H163.22V44.4363H166.967V44.9881H162.585L162.58 37.2411Z" fill="#2F54AE"/>
<path d="M168.984 37.2411H169.638L172.792 42.5654L173.65 44.1276H173.703C173.661 43.3618 173.618 42.5858 173.618 41.8316V37.2411H174.222V44.9881H173.565L170.421 39.6536L169.551 38.1015H169.498C169.53 38.8455 169.583 39.5677 169.583 40.3437V44.9881H168.98L168.984 37.2411Z" fill="#2F54AE"/>
<path d="M176.318 41.1095C176.318 38.6344 177.684 37.1028 179.643 37.1028C180.029 37.1021 180.41 37.1852 180.76 37.3466C181.111 37.508 181.422 37.7437 181.673 38.0375L181.314 38.4524C181.108 38.2082 180.852 38.012 180.563 37.878C180.275 37.7439 179.96 37.6751 179.642 37.6764C178.01 37.6764 176.984 38.9868 176.984 41.0877C176.984 43.2031 177.99 44.5528 179.61 44.5528C180.393 44.5528 180.974 44.2237 181.525 43.6166L181.885 44.0214C181.292 44.7115 180.58 45.1264 179.578 45.1264C177.674 45.1206 176.318 43.586 176.318 41.1095Z" fill="#2F54AE"/>
<path d="M183.781 37.2411H188.053V37.7827H184.428V40.6072H187.473V41.1488H184.413V44.4363H188.16V44.9881H183.778L183.781 37.2411Z" fill="#2F54AE"/>
<path d="M195.562 37.2411H196.197V44.4363H199.71V44.9881H195.562V37.2411Z" fill="#2F54AE"/>
<path d="M201.426 37.2411H202.061V44.9881H201.426V37.2411Z" fill="#2F54AE"/>
<path d="M204.644 37.2411H208.898V37.7827H205.273V40.7688H208.331V41.3104H205.279V44.9881H204.644V37.2411Z" fill="#2F54AE"/>
<path d="M210.613 37.2411H214.877V37.7827H211.252V40.6072H214.312V41.1488H211.252V44.4363H214.999V44.9881H210.617L210.613 37.2411Z" fill="#2F54AE"/>
<path d="M57.7612 16.4127H60.2349L63.3552 25.109C63.7308 26.2402 64.1063 27.3715 64.5036 28.5027H64.6153C64.9908 27.3715 65.3402 26.2402 65.7187 25.109L68.8115 16.4127H71.2866V32.6725H69.3581V23.6661C69.3581 22.2685 69.5133 20.2942 69.6235 18.8747H69.535L68.2547 22.58L65.1836 31.0317H63.8134L60.7453 22.58L59.4649 18.8747H59.3765C59.465 20.2942 59.6186 22.2685 59.6186 23.6661V32.6725H57.7612V16.4127Z" fill="#2F54AE"/>
<path d="M76.1411 16.4127H85.4847V18.1438H78.1957V23.2396H84.3364V24.9867H78.1957V30.9094H85.7283V32.6565H76.1411V16.4127Z" fill="#2F54AE"/>
<path d="M89.5723 16.4127H93.6322C98.6027 16.4127 101.275 19.3246 101.275 24.4873C101.275 29.65 98.6027 32.6725 93.7192 32.6725H89.5723V16.4127ZM93.4611 30.9865C97.2818 30.9865 99.1609 28.5915 99.1609 24.4873C99.1609 20.383 97.276 18.0812 93.4611 18.0812H91.6298V30.9909L93.4611 30.9865Z" fill="#2F54AE"/>
<path d="M105.191 16.4127H107.246V32.6725H105.191V16.4127Z" fill="#2F54AE"/>
<path d="M111.178 24.5542C111.178 19.2968 114.249 16.1025 118.357 16.1025C119.198 16.1067 120.028 16.2885 120.795 16.6361C121.561 16.9838 122.245 17.4895 122.804 18.1205L121.699 19.4512C120.86 18.5427 119.778 17.8992 118.386 17.8992C115.315 17.8992 113.282 20.4281 113.282 24.4872C113.282 28.5915 115.227 31.1641 118.319 31.1641C119.866 31.1641 121.037 30.4769 122.075 29.3457L123.201 30.6312C121.921 32.1177 120.329 32.9607 118.231 32.9607C114.204 32.9607 111.178 29.8334 111.178 24.5542Z" fill="#2F54AE"/>
<path d="M134.064 27.7034H128.144L126.574 32.6725H124.498L129.999 16.4127H132.274L137.775 32.6725H135.61L134.064 27.7034ZM133.557 26.0626L132.783 23.573C132.187 21.7327 131.679 19.9579 131.149 18.0725H131.06C130.551 19.9797 130.022 21.7327 129.448 23.573L128.652 26.0582L133.557 26.0626Z" fill="#2F54AE"/>
<path d="M140.494 16.4127H142.548V30.9196H149.617V32.6667H140.494V16.4127Z" fill="#2F54AE"/>
<path d="M148.844 16.4127H150.987L153.616 25.2196C154.196 27.1269 154.566 28.6804 155.184 30.5876H155.272C155.869 28.6804 156.267 27.1269 156.841 25.2196L159.451 16.4127H161.518L156.371 32.6725H154.008L148.844 16.4127Z" fill="#2F54AE"/>
<path d="M164.176 16.4127H166.229V32.6725H164.176V16.4127Z" fill="#2F54AE"/>
<path d="M169.919 30.5424L171.135 29.1462C172.305 30.3662 173.94 31.1641 175.619 31.1641C177.739 31.1641 179.021 30.0998 179.021 28.5026C179.021 26.8385 177.849 26.3056 176.325 25.6184L173.988 24.592C172.486 23.9485 170.697 22.7954 170.697 20.4222C170.697 17.9151 172.861 16.0967 175.801 16.0967C176.69 16.0954 177.57 16.2734 178.39 16.62C179.21 16.9666 179.952 17.4749 180.572 18.1146L179.489 19.4249C178.495 18.4931 177.303 17.8948 175.801 17.8948C173.966 17.8948 172.773 18.8266 172.773 20.2898C172.773 21.8651 174.187 22.4649 175.447 22.9963L177.767 23.9951C179.652 24.8162 181.102 25.9242 181.102 28.3425C181.102 30.9151 178.982 32.9563 175.6 32.9563C174.539 32.9667 173.487 32.7577 172.51 32.3424C171.533 31.9272 170.651 31.3144 169.919 30.5424Z" fill="#2F54AE"/>
<path d="M184.718 16.4127H186.772V32.6725H184.718V16.4127Z" fill="#2F54AE"/>
<path d="M190.708 24.4872C190.708 19.275 193.557 16.1025 197.621 16.1025C201.685 16.1025 204.536 19.275 204.536 24.4872C204.536 29.6994 201.687 32.9607 197.621 32.9607C193.555 32.9607 190.708 29.6994 190.708 24.4872ZM202.438 24.4872C202.438 20.4106 200.515 17.8992 197.621 17.8992C194.727 17.8992 192.806 20.4063 192.806 24.4872C192.806 28.5682 194.705 31.1641 197.621 31.1641C200.537 31.1641 202.438 28.5463 202.438 24.4872Z" fill="#2F54AE"/>
<path d="M208.468 16.4127H210.59L216.488 26.661L218.211 30.0096H218.321C218.211 28.3673 218.055 26.5489 218.055 24.8629V16.4127H220V32.6725H217.902L212.003 22.4082L210.263 19.0596H210.175C210.263 20.7019 210.418 22.4315 210.418 24.1393V32.6725H208.468V16.4127Z" fill="#2F54AE"/>
<path d="M39.5116 4.19885C38.6334 4.19856 37.7749 4.45978 37.0446 4.94946C36.3142 5.43914 35.745 6.1353 35.4087 6.94987C35.0724 7.76445 34.9843 8.66086 35.1554 9.52573C35.3266 10.3906 35.7493 11.1851 36.3702 11.8087C36.9911 12.4323 37.7821 12.857 38.6434 13.0292C39.5047 13.2013 40.3975 13.1131 41.2088 12.7757C42.0202 12.4384 42.7137 11.867 43.2016 11.1338C43.6895 10.4007 43.9499 9.53868 43.9499 8.6569C43.9484 7.47528 43.4804 6.34247 42.6484 5.5068C41.8164 4.67113 40.6884 4.20078 39.5116 4.19885Z" fill="#8AB335"/>
<path d="M48.1669 37.9429C47.3926 37.9429 46.6357 38.1734 45.9919 38.6054C45.3481 39.0373 44.8463 39.6512 44.55 40.3695C44.2536 41.0878 44.1761 41.8782 44.3272 42.6408C44.4782 43.4033 44.8511 44.1037 45.3986 44.6535C45.9461 45.2033 46.6437 45.5777 47.4031 45.7293C48.1625 45.881 48.9497 45.8032 49.6651 45.5056C50.3804 45.2081 50.9919 44.7043 51.422 44.0578C51.8522 43.4114 52.0818 42.6514 52.0818 41.8739C52.0818 40.8313 51.6693 39.8314 50.9351 39.0942C50.201 38.357 49.2052 37.9429 48.1669 37.9429Z" fill="#2F54AE"/>
<path d="M43.3252 18.3402C43.3241 17.159 42.8563 16.0265 42.0244 15.1912C41.1926 14.356 40.0647 13.8862 38.8883 13.8851C36.9381 13.8851 35.8434 15.1954 34.8139 16.6514L34.5993 16.9542C33.3364 18.745 31.7632 20.974 29.1735 21.0148C26.465 21.0628 23.5723 18.678 19.5428 14.5504C16.0977 11.0213 13.0629 6.29098 11.5114 3.31361C10.3833 1.1501 8.5114 0.00720215 6.09574 0.00720215C4.48167 0.010664 2.93468 0.656018 1.79335 1.80203C0.652022 2.94805 0.00930704 4.50139 0.00585938 6.12209C0.00585938 7.89396 0.620646 10.2162 1.27313 12.6738C2.04742 15.6002 2.9261 18.9168 2.9261 21.8796C2.9261 25.0593 2.03002 29.0471 1.23834 32.5661C0.577149 35.5056 0.00585938 38.0462 0.00585938 39.7846C0.00585938 41.4081 0.648158 42.9651 1.79146 44.1131C2.93476 45.2611 4.4854 45.906 6.10227 45.906C7.71913 45.906 9.26978 45.2611 10.4131 44.1131C11.5564 42.9651 12.1987 41.4081 12.1987 39.7846C12.1987 38.2631 11.6709 36.9251 11.0619 35.376C10.4798 33.9772 10.0024 32.5367 9.63368 31.0665C10.4051 30.9092 11.4012 30.8466 12.306 30.7899C13.5283 30.7141 14.5853 30.6443 15.4191 30.3414C15.9339 30.1512 16.4063 29.8608 16.809 29.4868C17.2118 29.1129 17.537 28.6627 17.7661 28.1621C17.9951 27.6616 18.1234 27.1206 18.1437 26.5701C18.1639 26.0197 18.0757 25.4706 17.884 24.9545C17.6807 24.4086 17.3682 23.9103 16.9657 23.4904C16.5632 23.0704 16.0793 22.7378 15.5438 22.5129C15.0419 22.2988 14.5012 22.192 13.956 22.1992C13.4108 22.2065 12.873 22.3277 12.377 22.5551C11.6665 22.8813 10.9155 23.4476 10.0382 24.1101C9.59163 24.4493 9.03919 24.8657 8.4911 25.234C8.3446 24.1213 8.26616 23.0005 8.2562 21.8781C8.2562 16.8377 9.01164 14.6946 9.52058 14.482C10.1296 14.2374 12.5017 16.0035 14.9304 18.9561C16.753 21.172 18.1363 23.5714 19.3572 25.6883C20.3722 27.4456 21.2422 28.9612 22.1121 29.8843C22.6092 30.396 23.2076 30.7976 23.8686 31.0632C24.5296 31.3287 25.2387 31.4524 25.9502 31.4261C27.3683 31.3955 28.6602 30.8248 29.4954 29.8595C29.8796 29.4227 30.3132 28.7952 30.8149 28.076C32.1474 26.1673 34.1629 23.2831 35.8898 23.2714C35.9536 23.2666 36.0177 23.2773 36.0765 23.3026C36.1353 23.328 36.1872 23.3672 36.2276 23.417C36.5321 23.7665 36.9526 24.9341 36.39 28.8185C36.1841 30.2351 35.8724 31.9619 35.5722 33.6304C34.9922 36.8421 34.4471 39.8748 34.4471 41.5404C34.4471 42.722 34.9145 43.8552 35.7466 44.6907C36.5787 45.5262 37.7072 45.9955 38.884 45.9955C40.0607 45.9955 41.1893 45.5262 42.0214 44.6907C42.8534 43.8552 43.3209 42.722 43.3209 41.5404C43.3209 40.6072 43.0309 39.0653 42.667 37.0998C42.1986 34.5986 41.6172 31.4843 41.6172 29.1971C41.6172 27.1486 42.1392 24.8016 42.5988 22.7328C42.9859 20.9856 43.3238 19.4802 43.3238 18.3359" fill="#2F54AE"/>
</g>
<defs>
<clipPath id="clip0_40_1429">
<rect width="220" height="46" fill="white"/>
</clipPath>
</defs>
</svg>
