<svg xmlns="http://www.w3.org/2000/svg" width="40" height="38" viewBox="0 0 40 38" fill="none">
  <path d="M28.9928 19.5443C33.1974 19.5443 36.6041 22.7941 36.6041 26.8011V26.9167C36.6041 30.7452 32.9487 33.9823 29.1666 33.9823H27.3916C27.3588 33.9823 27.326 33.9809 27.2933 33.9783C21.2816 33.5041 15.0953 31.0048 11.2028 27.5254C6.60867 23.4191 3.39575 17.1237 3.39575 11.2745C3.39575 7.05137 6.69284 4.0177 11.007 4.0177C15.2112 4.0177 18.6178 7.26749 18.6178 11.2745C18.6178 14.096 16.892 16.4243 14.2545 17.5505C15.1458 18.9147 16.2169 20.1651 17.442 21.2713C18.8595 22.5498 20.432 23.5845 22.0808 24.3073C23.1083 21.4807 25.7599 19.5443 28.9932 19.5443H28.9928Z" fill="#2D50A0"/>
</svg>