<svg xmlns="http://www.w3.org/2000/svg" width="34" height="34" viewBox="0 0 34 34" fill="none">
  <g clip-path="url(#clip0_561_1888)">
    <path d="M33.9364 23.8042V9.97687L26.722 17.1934L33.9364 23.8021M21.7601 22.1531C21.1777 22.7388 20.4849 23.2033 19.7219 23.5195C18.9588 23.8357 18.1406 23.9975 17.3146 23.9955C15.6359 23.9955 14.0549 23.341 12.867 22.1531L8.99737 18.2814L0.692871 25.8931V27.1681C0.692871 28.8362 2.04862 30.192 3.71462 30.192H30.9146C32.5806 30.192 33.9364 28.8362 33.9364 27.1702V25.8527L25.651 18.2622L21.7622 22.151" fill="#2D50A0"/>
    <path d="M30.9762 4.25H3.77625C2.11237 4.25 0.758746 5.60575 0.758746 7.27175V7.90288L13.9996 21.148C14.9027 22.049 16.1034 22.5462 17.3784 22.5462C18.6555 22.5462 19.8561 22.049 20.7571 21.148L34.0001 7.90288V7.27175C34.0001 5.60575 32.6401 4.25 30.9762 4.25ZM0.692871 9.97688V23.8425L7.92637 17.2125L0.692871 9.97688Z" fill="#2D50A0"/>
  </g>
  <defs>
    <clipPath id="clip0_561_1888">
      <rect width="34" height="34" fill="white"/>
    </clipPath>
  </defs>
</svg>