<svg xmlns="http://www.w3.org/2000/svg" width="32" height="34" viewBox="0 0 32 34" fill="none">
  <g clip-path="url(#clip0_561_1891)">
    <path d="M15.9828 7.10089C17.4687 7.10089 18.8937 7.72804 19.9444 8.84438C20.9951 9.96071 21.5853 11.4748 21.5853 13.0535C21.5853 14.6322 20.9951 16.1463 19.9444 17.2626C18.8937 18.379 17.4687 19.0061 15.9828 19.0061C14.497 19.0061 13.072 18.379 12.0213 17.2626C10.9706 16.1463 10.3804 14.6322 10.3804 13.0535C10.3804 11.4748 10.9706 9.96071 12.0213 8.84438C13.072 7.72804 14.497 7.10089 15.9828 7.10089ZM28.2733 13.0561C28.2732 11.0231 27.8264 9.01824 26.9684 7.20109C26.1105 5.38394 24.865 3.80473 23.3313 2.58921C21.7976 1.37369 20.0179 0.555433 18.134 0.1996C16.2502 -0.156233 14.3141 -0.0398142 12.4801 0.539586C10.646 1.11899 8.96463 2.14536 7.56977 3.53699C6.17491 4.92861 5.10513 6.64704 4.44559 8.55544C3.78606 10.4638 3.555 12.5095 3.77081 14.5295C3.98663 16.5495 4.64335 18.4881 5.68869 20.1909L14.8825 33.2155C14.9846 33.4331 15.1418 33.6162 15.3364 33.7441C15.5309 33.8721 15.7552 33.9399 15.9841 33.9399C16.2129 33.9399 16.4372 33.8721 16.6318 33.7441C16.8264 33.6162 16.9835 33.4331 17.0856 33.2155L26.2967 20.1909C27.5373 18.1352 28.2733 15.6924 28.2733 13.0561Z" fill="#2D50A0"/>
  </g>
  <defs>
    <clipPath id="clip0_561_1891">
      <rect width="32" height="34" fill="white"/>
    </clipPath>
  </defs>
</svg>