<svg width="26" height="26" viewBox="0 0 26 26" fill="none" xmlns="http://www.w3.org/2000/svg">
<path d="M19.83 10.647H9.57024V6.84635C9.57024 5.58756 11.1018 4.18681 12.9894 4.18681C14.8776 4.18681 16.411 5.58756 16.411 6.84635V7.9871H16.4244C16.4696 8.30351 16.6274 8.593 16.8689 8.80241C17.1104 9.01182 17.4193 9.12709 17.7389 9.12707C18.4104 9.12707 18.9633 8.63177 19.0558 7.9871H19.0709V6.84648C19.0709 3.90848 16.347 1.52649 12.9895 1.52649C9.63251 1.52649 6.9094 3.90848 6.9094 6.84648V10.647H6.14877C4.89063 10.647 3.86987 11.6679 3.86987 12.9268V22.0476C3.86987 23.3066 4.89063 24.3271 6.14877 24.3271H19.83C21.0898 24.3271 22.1097 23.3066 22.1097 22.0476V12.9268C22.1097 11.6679 21.0898 10.647 19.83 10.647ZM14.1304 19.0645V20.104C14.1304 20.7569 13.6195 21.2858 12.9894 21.2858C12.3608 21.2858 11.8491 20.7569 11.8491 20.104V19.0647C10.9512 18.6438 10.3285 17.74 10.3285 16.6924C10.3285 15.2421 11.5209 14.0662 12.9894 14.0662C14.4594 14.0662 15.6502 15.2421 15.6502 16.6924C15.6502 17.7398 15.0291 18.6438 14.1304 19.0647V19.0645Z" fill="#92A9E1"/>
</svg>
