<svg width="26" height="26" viewBox="0 0 26 26" fill="none" xmlns="http://www.w3.org/2000/svg">
<path d="M20.687 21.2421C20.687 21.6686 20.6017 22.0653 20.4311 22.4321C20.2605 22.7989 20.0259 23.123 19.7274 23.4045C19.4288 23.686 19.0791 23.9078 18.6781 24.0699C18.2772 24.232 17.8465 24.313 17.3858 24.313H8.30118C7.84055 24.313 7.40978 24.232 7.00886 24.0699C6.60794 23.9078 6.2582 23.686 5.95965 23.4045C5.66109 23.123 5.42651 22.7989 5.25591 22.4321C5.0853 22.0653 5 21.6686 5 21.2421V4.09646C5 3.66995 5.0853 3.26903 5.25591 2.8937C5.42651 2.51837 5.66109 2.18996 5.95965 1.90846C6.2582 1.62697 6.60794 1.40518 7.00886 1.24311C7.40978 1.08104 7.84055 1 8.30118 1H17.3858C17.8465 1 18.2772 1.08104 18.6781 1.24311C19.0791 1.40518 19.4288 1.62697 19.7274 1.90846C20.0259 2.18996 20.2605 2.51837 20.4311 2.8937C20.6017 3.26903 20.687 3.66995 20.687 4.09646V21.2421ZM18.6142 5.3248H7.04724V19.9882H18.6142V5.3248ZM12.8307 20.7047C12.4724 20.7047 12.1611 20.8327 11.8967 21.0886C11.6322 21.3445 11.5 21.6601 11.5 22.0354C11.5 22.3937 11.6322 22.7051 11.8967 22.9695C12.1611 23.2339 12.4724 23.3661 12.8307 23.3661C13.206 23.3661 13.5217 23.2339 13.7776 22.9695C14.0335 22.7051 14.1614 22.3937 14.1614 22.0354C14.1614 21.6601 14.0335 21.3445 13.7776 21.0886C13.5217 20.8327 13.206 20.7047 12.8307 20.7047ZM14.878 3.14961C14.878 3.01312 14.8353 2.9065 14.75 2.82972C14.6647 2.75295 14.5709 2.71457 14.4685 2.71457H11.2185C11.1332 2.71457 11.0436 2.75295 10.9498 2.82972C10.856 2.9065 10.8091 3.01312 10.8091 3.14961C10.8091 3.28609 10.8517 3.39272 10.937 3.46949C11.0223 3.54626 11.1161 3.58465 11.2185 3.58465H14.4685C14.5709 3.58465 14.6647 3.54626 14.75 3.46949C14.8353 3.39272 14.878 3.28609 14.878 3.14961Z" fill="#92A9E1"/>
</svg>
