<svg width="25" height="25" viewBox="0 0 25 25" fill="none" xmlns="http://www.w3.org/2000/svg">
<path d="M10.2907 12.5L3.1251 19.6656C2.515 20.2757 2.515 21.2649 3.1251 21.875C3.7352 22.4851 4.72437 22.4851 5.33447 21.875L13.2649 13.9446C14.0627 13.1467 14.0627 11.8532 13.2649 11.0554L5.33447 3.12499C4.72437 2.51488 3.7352 2.51488 3.1251 3.12499C2.515 3.73509 2.515 4.72426 3.1251 5.33436L10.2907 12.5ZM18.1032 12.5L10.9376 19.6656C10.3275 20.2757 10.3275 21.2649 10.9376 21.875C11.5477 22.4851 12.5369 22.4851 13.147 21.875L21.0774 13.9446C21.8752 13.1467 21.8752 11.8532 21.0774 11.0554L13.147 3.12499C12.5369 2.51488 11.5477 2.51488 10.9376 3.12499C10.3275 3.73509 10.3275 4.72426 10.9376 5.33436L18.1032 12.5Z" fill="#2F54AE"/>
</svg>
