<svg width="48" height="48" viewBox="0 0 48 48" fill="none" xmlns="http://www.w3.org/2000/svg">
<path fill-rule="evenodd" clip-rule="evenodd" d="M21.0666 10.0172L23.1325 13.6201C23.5168 14.2902 24.4833 14.2902 24.8675 13.6201L26.9335 10.0172C28.4465 7.3786 31.6974 5.36463 35.6624 5.36463C41.0595 5.36463 44.6219 9.98157 44.6218 15.0149C44.6218 16.3963 44.3825 17.7857 43.9462 19.1687C43.5869 20.3079 44.3775 21.5581 45.572 21.5581C46.2402 21.5581 46.8465 21.1515 47.0588 20.5179C47.6588 18.7282 48 16.8873 48 15.0149C48.0001 8.6172 43.3852 2 35.6624 2C31.958 2 28.6088 3.37092 26.2285 5.56927C25.3401 6.38984 24.5866 7.32569 24.0001 8.34856C23.4135 7.32568 22.6601 6.38982 21.7716 5.56924C19.3915 3.37091 16.0425 2 12.3391 2C4.615 2 0 8.6172 0 15.0149C0 16.8873 0.341235 18.7282 0.94116 20.5179C1.15352 21.1515 1.7598 21.5581 2.42797 21.5581C3.62254 21.5581 4.41315 20.3079 4.05375 19.1687C3.61746 17.7857 3.37816 16.3964 3.37816 15.0149C3.37816 9.98186 6.9404 5.36463 12.3391 5.36463C16.3025 5.36463 19.5535 7.37845 21.0666 10.0172ZM11.8329 30.7408C11.4963 30.4039 11.0414 30.21 10.5652 30.21C9.06265 30.21 8.27805 31.9473 9.33736 33.0129C15.5865 39.299 22.7642 43.5039 23.2945 43.8106C23.5127 43.9371 23.7557 44 24 44C24.2443 44 24.4873 43.9371 24.7055 43.8106C25.2358 43.5039 32.4135 39.299 38.6627 33.0129C39.722 31.9473 38.9374 30.21 37.4348 30.21C36.9586 30.21 36.5037 30.4039 36.1671 30.7408C35.5992 31.3091 35.0155 31.8672 34.4202 32.4137C30.2038 36.2839 25.9033 39.1175 24 40.3017C22.0967 39.1174 17.7961 36.2838 13.5798 32.4137C12.9845 31.8672 12.4008 31.3091 11.8329 30.7408Z" fill="white"/>
<path fill-rule="evenodd" clip-rule="evenodd" d="M22.9722 19.951L19.5816 28.8205C19.1829 29.8636 17.7098 29.9623 17.1686 28.9821L14.6579 24.4352L12.3232 27.6065H7.14458C6.51245 27.6065 6 27.1066 6 26.4901C6 25.8735 6.51245 25.3737 7.14458 25.3737H11.1488L13.6962 21.9136C14.2687 21.1361 15.4783 21.2121 15.9436 22.0549L18.178 26.1014L21.7174 16.8426C22.145 15.7239 23.7651 15.7176 24.2018 16.833L28.2537 27.1813L31.9296 18.6184C32.3928 17.5394 33.9691 17.5649 34.3953 18.6583L37.0128 25.3737H42.8554C43.4876 25.3737 44 25.8735 44 26.4901C44 27.1066 43.4876 27.6065 42.8554 27.6065H35.434L33.1112 21.6469L29.4373 30.2051C28.9745 31.2833 27.3998 31.2589 26.9723 30.167L22.9722 19.951Z" fill="white"/>
</svg>
