<svg width="444" height="101" viewBox="0 0 444 101" fill="none" xmlns="http://www.w3.org/2000/svg">
<path d="M321.196 80.8682L300 80.4884L320.439 80.1085L323.467 74.031L326.117 83.907L330.28 52L334.065 91.5039L335.958 84.2868H342.393L346.556 71.7519L350.341 88.4651H351.477L356.776 63.0155L359.425 80.8682L381 81.6279H358.668L356.776 68.3333L352.612 89.6047H349.584L346.556 77.0698L343.528 85.8062H337.093L333.308 101L330.28 63.7752L326.495 88.4651L323.089 76.3101L321.196 80.8682Z" fill="#2D50A0"/>
<path d="M370.96 13.872V18.552H368.512V16.152H353.488V18.552H351.04V13.872H370.96ZM350.488 8.952H355.696V7.344H358.192V8.952H363.808V7.344H366.304V8.952H371.512V11.304H366.304V12.96H363.808V11.304H358.192V12.96H355.696V11.304H350.488V8.952ZM351.04 19.56H359.824V17.064H362.272V19.56H370.936V21.84H362.272V29.424H359.824V21.84H351.04V19.56ZM356.728 22.464L358.48 23.976C356.704 26.016 354.52 27.816 351.928 29.376L350.392 27.36C352.912 25.968 355.024 24.336 356.728 22.464ZM365.104 22.488C367.504 24.024 369.712 25.656 371.68 27.408L369.976 29.304C367.912 27.36 365.752 25.68 363.52 24.24L365.104 22.488ZM392.824 24.096V29.664H390.4V28.848H379.552V29.664H377.128V24.096H392.824ZM379.552 27H390.4V25.944H379.552V27ZM385.672 14.256C385.888 14.832 386.104 15.48 386.32 16.2H390.232C389.416 15.456 388.72 14.664 388.192 13.824H381.688C381.184 14.664 380.536 15.456 379.744 16.2H383.944C383.704 15.648 383.44 15.144 383.152 14.688L385.672 14.256ZM378.736 7.68C379.456 8.616 380.176 9.672 380.872 10.848L379.48 11.544H388.384C389.296 10.2 390.088 8.76 390.76 7.224L393.112 8.112C392.416 9.432 391.72 10.584 391.024 11.544H395.368V13.824H390.712C391.984 15.192 393.832 16.296 396.28 17.112L395.248 19.272C394.096 18.768 393.064 18.24 392.176 17.664V18.12H377.824V17.736C376.984 18.312 376.072 18.84 375.064 19.344L373.744 17.256C376.288 16.2 378.112 15.072 379.216 13.824H374.68V11.544H378.736C378.088 10.44 377.416 9.48 376.72 8.64L378.736 7.68ZM384.496 7.248C385.144 8.16 385.768 9.192 386.392 10.296L384.424 11.28C383.824 10.152 383.176 9.12 382.48 8.208L384.496 7.248ZM378.112 18.96H391.552V20.76H378.112V18.96ZM378.184 21.48H391.576V23.256H378.184V21.48ZM412.576 10.608H406.072V8.16H419.752V10.608H415.12V16.536H419.416V18.864H415.12V26.256H420.256V28.704H405.352V26.256H407.536V14.088H409.984V26.256H412.576V10.608ZM401.344 7.464C402.832 8.64 404.08 9.792 405.136 10.944L403.432 12.696C402.52 11.568 401.248 10.368 399.592 9.12L401.344 7.464ZM397.912 14.376H403.552V24.048C404.176 23.472 404.824 22.872 405.496 22.2L406.144 24.84C404.68 26.232 403.12 27.504 401.488 28.632L400.528 26.352C400.96 26.016 401.176 25.584 401.176 25.056V16.776H397.912V14.376ZM430.432 7.176H432.952V11.136H440.008V12.336L439.552 17.568H442.888C442.864 22.44 442.456 25.296 441.64 26.112C441.328 26.448 440.824 26.712 440.152 26.856C439.552 26.976 438.952 27.048 438.352 27.072H436.816L436.144 24.72C437.08 24.72 437.968 24.744 438.784 24.744C439.312 24.696 439.72 24.528 439.984 24.216C440.224 23.904 440.368 22.488 440.416 19.992H432.952V29.544H430.432V19.992H422.248V17.568H430.432V13.536H423.64V11.136H430.432V7.176ZM432.952 17.568H437.128L437.488 13.536H432.952V17.568ZM438.88 7.224C440.608 8.04 442.216 9 443.656 10.104L442.312 12.192C440.776 10.896 439.192 9.864 437.608 9.12L438.88 7.224Z" fill="#2D50A0"/>
<path d="M288.94 95.5338H280.403L270.812 81.0089H270.535H265.823V95.5338H258.56V57.0593H270.535C280.957 57.0593 285.337 60.2748 285.337 68.9787C285.337 75.465 283.009 78.7913 277.908 80.1773L288.94 95.5338ZM265.823 75.465H269.537C275.691 75.465 278.074 74.4671 278.074 68.9787C278.074 63.9892 275.691 62.9358 269.537 62.9358H265.823V75.465Z" fill="#2D50A0"/>
<path d="M232.221 96.0882C221.133 96.0882 215.035 91.9857 215.035 76.2965C215.035 60.7737 221.133 56.5049 232.221 56.5049C243.309 56.5049 249.352 60.7737 249.352 76.2965C249.352 91.9857 243.309 96.0882 232.221 96.0882ZM232.221 89.9899C240.038 89.9899 241.757 86.2755 241.757 76.2965C241.757 66.4839 240.038 62.4923 232.221 62.4923C224.349 62.4923 222.63 66.4839 222.63 76.2965C222.63 86.2755 224.349 89.9899 232.221 89.9899Z" fill="#8AB335"/>
<path d="M173.346 95.5338V57.0593H184.49L198.46 86.0538H198.793V57.0593H205.889V95.5338H196.021L180.831 64.7099H180.498V95.5338H173.346Z" fill="#2D50A0"/>
<path d="M147.008 96.0882C135.92 96.0882 129.822 91.9857 129.822 76.2965C129.822 60.7737 135.92 56.5049 147.008 56.5049C158.096 56.5049 164.139 60.7737 164.139 76.2965C164.139 91.9857 158.096 96.0882 147.008 96.0882ZM147.008 89.9899C154.825 89.9899 156.543 86.2755 156.543 76.2965C156.543 66.4839 154.825 62.4923 147.008 62.4923C139.136 62.4923 137.417 66.4839 137.417 76.2965C137.417 86.2755 139.136 89.9899 147.008 89.9899Z" fill="#2D50A0"/>
<path d="M113.377 57.0593H120.639V95.5338H113.377V77.9597H96.9117V95.5338H89.6492V57.0593H96.9117V71.9169H113.377V57.0593Z" fill="#2D50A0"/>
<path d="M66.3102 63.3793H50.7874V73.5246H65.2015V79.8447H50.7874V95.5338H43.5249V57.0593H66.3102V63.3793Z" fill="#8AB335"/>
<path d="M17.186 96.0882C6.09827 96.0882 0 91.9857 0 76.2965C0 60.7737 6.09827 56.5049 17.186 56.5049C28.2738 56.5049 34.3166 60.7737 34.3166 76.2965C34.3166 91.9857 28.2738 96.0882 17.186 96.0882ZM17.186 89.9899C25.0029 89.9899 26.7215 86.2755 26.7215 76.2965C26.7215 66.4839 25.0029 62.4923 17.186 62.4923C9.31371 62.4923 7.59511 66.4839 7.59511 76.2965C7.59511 86.2755 9.31371 89.9899 17.186 89.9899Z" fill="#2D50A0"/>
<path d="M307.479 32.6535H324V39.0289H300.217V0.554443H323.002V6.87446H307.479V16.1882H321.893V22.231H307.479V32.6535Z" fill="#2D50A0"/>
<path d="M293.621 0.554443V6.9299H283.143V39.0289H275.881V6.9299H265.458V0.554443H293.621Z" fill="#2D50A0"/>
<path d="M259.804 39.0289L256.256 28.8282H240.179L236.52 39.0289H229.035L243.449 0.554443H253.207L267.51 39.0289H259.804ZM242.341 22.7299H254.094L248.605 7.04078H247.94L242.341 22.7299Z" fill="#8AB335"/>
<path d="M215.976 39.5833C204.944 39.5833 197.737 35.9243 197.737 19.7916C197.737 4.93405 204.888 0 216.087 0C219.801 0 222.518 0.388072 224.902 1.21965V7.59511C222.518 6.76353 219.857 6.26458 216.53 6.26458C208.991 6.26458 205.498 9.53547 205.498 19.7362C205.498 30.5468 208.88 33.2078 216.253 33.2078C219.635 33.2078 222.407 32.7643 225.345 31.711V37.9756C223.072 38.8626 219.746 39.5833 215.976 39.5833Z" fill="#2D50A0"/>
<path d="M181.331 39.0289V0.554443H188.594V39.0289H181.331Z" fill="#2D50A0"/>
<path d="M173.339 6.87446H157.816V17.0198H172.231V23.3398H157.816V39.0289H150.554V0.554443H173.339V6.87446Z" fill="#2D50A0"/>
<path d="M133.095 39.0289V0.554443H140.357V39.0289H133.095Z" fill="#2D50A0"/>
<path d="M126.5 0.554443V6.9299H116.022V39.0289H108.759V6.9299H98.3369V0.554443H126.5Z" fill="#2D50A0"/>
<path d="M98.023 39.0289H89.4854L79.8945 24.504H79.6174H74.9051V39.0289H67.6426V0.554443H79.6174C90.0398 0.554443 94.4195 3.76989 94.4195 12.4738C94.4195 18.9601 92.0911 22.2864 86.9907 23.6724L98.023 39.0289ZM74.9051 18.9601H78.6194C84.7732 18.9601 87.157 17.9622 87.157 12.4738C87.157 7.48429 84.7732 6.43095 78.6194 6.43095H74.9051V18.9601Z" fill="#2D50A0"/>
<path d="M42.7744 32.6535H59.2952V39.0289H35.512V0.554443H58.2973V6.87446H42.7744V16.1882H57.1885V22.231H42.7744V32.6535Z" fill="#2D50A0"/>
<path d="M18.2394 39.5833C7.20704 39.5833 0 35.9243 0 19.7916C0 4.93405 7.1516 0 18.3502 0C22.0646 0 24.7811 0.388072 27.165 1.21965V7.59511C24.7811 6.76353 22.1201 6.26458 18.7937 6.26458C11.2541 6.26458 7.76143 9.53547 7.76143 19.7362C7.76143 30.5468 11.1432 33.2078 18.5165 33.2078C21.8983 33.2078 24.6702 32.7643 27.6085 31.711V37.9756C25.3355 38.8626 22.0092 39.5833 18.2394 39.5833Z" fill="#2D50A0"/>
</svg>
