<svg xmlns="http://www.w3.org/2000/svg" width="35" height="35" viewBox="0 0 35 35" fill="none">
  <g clip-path="url(#clip0_559_1602)">
    <path d="M32.8192 34.9934C29.3126 34.9847 2.6098 35 2.6098 35C0.586358 34.9431 -1.01708 32.1891 0.781046 29.3191L12.0095 10.9812V3.67281H7.67823C6.65011 3.67281 5.81886 2.94 5.81886 2.03656V1.63625C5.81886 0.732813 6.65011 0 7.67823 0H28.2582C29.2864 0 30.1176 0.732813 30.1176 1.63625V2.03437C30.1176 2.93781 29.2864 3.67062 28.2582 3.67062H23.4107V10.9616H23.4501C23.4501 10.9616 33.2895 28.0831 34.0464 29.3125C35.1401 31.0909 35.8926 34.9978 32.8214 34.9912H32.8192V34.9934ZM13.2782 17.7625H21.8751L18.281 11.7753V3.67281H14.3435L14.3392 11.7316C14.0723 12.2019 4.22855 28.6934 3.48261 30.0081C3.02761 31.3863 3.45198 32.6331 4.87823 32.6769L5.98292 32.6703L13.2782 17.7625ZM21.3129 22.82C21.3129 22.2346 21.0804 21.6732 20.6665 21.2593C20.2525 20.8454 19.6911 20.6128 19.1057 20.6128C18.5204 20.6128 17.9589 20.8454 17.545 21.2593C17.1311 21.6732 16.8985 22.2346 16.8985 22.82C16.8985 23.4054 17.1311 23.9668 17.545 24.3807C17.9589 24.7946 18.5204 25.0272 19.1057 25.0272C19.6911 25.0272 20.2525 24.7946 20.6665 24.3807C21.0804 23.9668 21.3129 23.4054 21.3129 22.82ZM24.627 27.6325C24.6352 27.4026 24.597 27.1733 24.5147 26.9585C24.4324 26.7436 24.3076 26.5476 24.1479 26.382C23.9881 26.2164 23.7966 26.0847 23.5848 25.9948C23.3731 25.9048 23.1453 25.8585 22.9153 25.8585C22.6852 25.8585 22.4575 25.9048 22.2457 25.9948C22.0339 26.0847 21.8424 26.2164 21.6827 26.382C21.5229 26.5476 21.3982 26.7436 21.3158 26.9585C21.2335 27.1733 21.1953 27.4026 21.2035 27.6325C21.2194 28.0759 21.4067 28.4958 21.726 28.8039C22.0452 29.112 22.4716 29.2841 22.9153 29.2841C23.3589 29.2841 23.7853 29.112 24.1046 28.8039C24.4238 28.4958 24.6111 28.0759 24.627 27.6325ZM26.9764 30.1263C26.9764 30.4433 27.1023 30.7474 27.3265 30.9716C27.5507 31.1958 27.8548 31.3217 28.1718 31.3217C28.4889 31.3217 28.793 31.1958 29.0172 30.9716C29.2413 30.7474 29.3673 30.4433 29.3673 30.1263C29.3673 29.8092 29.2413 29.5051 29.0172 29.2809C28.793 29.0567 28.4889 28.9308 28.1718 28.9308C27.8548 28.9308 27.5507 29.0567 27.3265 29.2809C27.1023 29.5051 26.9764 29.8092 26.9764 30.1263Z" fill="white"/>
  </g>
  <defs>
    <clipPath id="clip0_559_1602">
      <rect width="35" height="35" fill="white"/>
    </clipPath>
  </defs>
</svg>