<svg xmlns="http://www.w3.org/2000/svg" width="44" height="44" viewBox="0 0 44 44" fill="none">
  <path d="M43.0031 17.4496L38.5 21.957C38.1219 22.3351 37.6235 22.5285 37.125 22.5285C36.6266 22.5285 36.1281 22.3394 35.75 21.957V39.832C35.75 40.5926 35.1356 41.207 34.375 41.207H22V41.25H9.62501C8.86447 41.25 8.25001 40.6355 8.25001 39.875V22C7.87189 22.3781 7.37345 22.5715 6.87501 22.5715C6.37658 22.5715 5.87814 22.3824 5.50001 22L0.996887 17.4926C-0.31366 16.182 -0.31366 14.0637 0.996887 12.7531L9.35861 4.39139C9.96876 3.78124 10.7981 3.43749 11.666 3.43749H15.5805C15.9113 3.43749 16.2293 3.5578 16.4828 3.77264C17.3293 4.50741 19.5465 6.18749 22.1547 6.18749C24.7672 6.18749 26.9887 4.49882 27.8309 3.76835C28.0801 3.5535 28.3938 3.43319 28.7203 3.43319L32.3211 3.40741H32.3469C33.2106 3.40741 34.0442 3.75116 34.6543 4.36561L43.0031 12.7144C44.3137 14.0207 44.3137 16.1433 43.0031 17.4496Z" fill="white"/>
</svg>