<svg xmlns="http://www.w3.org/2000/svg" width="54" height="54" viewBox="0 0 54 54" fill="none">
  <path d="M40.9793 29.9167C40.9793 31.5609 38.5479 32.8937 35.5485 32.8937C32.5491 32.8937 30.1176 31.5609 30.1176 29.9167C30.1176 28.2725 32.5491 26.9386 35.5485 26.9386C38.5479 26.9386 40.9793 28.2726 40.9793 29.9167Z" fill="white"/>
  <path d="M11.6409 43.4431C11.6409 44.4832 10.7978 45.3264 9.75773 45.3264C8.71769 45.3264 7.87451 44.4832 7.87451 43.4431V21.9075C7.87451 20.8674 8.71769 20.0243 9.75773 20.0243C10.7978 20.0243 11.6409 20.8674 11.6409 21.9075V43.4431Z" fill="white"/>
  <path d="M46.1218 43.4431C46.1218 44.4832 45.2786 45.3264 44.2386 45.3264C43.1985 45.3264 42.3553 44.4832 42.3553 43.4431V21.9075C42.3553 20.8674 43.1985 20.0243 44.2386 20.0243C45.2786 20.0243 46.1218 20.8674 46.1218 21.9075V43.4431Z" fill="white"/>
  <path d="M10.3837 33.5425H44.2385V40.3415H10.3837V33.5425Z" fill="white"/>
  <path d="M30.3635 21.1812C30.3635 22.0226 29.6751 22.7109 28.8338 22.7109H25.1624C24.3211 22.7109 23.6327 22.0226 23.6327 21.1812V10.6364C23.6327 9.79511 24.3211 9.10675 25.1624 9.10675H28.8338C29.6751 9.10675 30.3635 9.79511 30.3635 10.6364V21.1812Z" fill="white"/>
  <path d="M21.7257 19.2743C20.8845 19.2743 20.196 18.5859 20.196 17.7446V14.0732C20.196 13.2318 20.8845 12.5435 21.7257 12.5435H32.2705C33.1118 12.5435 33.8002 13.2318 33.8002 14.0732V17.7446C33.8002 18.5859 33.1118 19.2743 32.2705 19.2743H21.7257Z" fill="white"/>
</svg>