<svg width="46" height="46" viewBox="0 0 46 46" fill="none" xmlns="http://www.w3.org/2000/svg">
<path d="M43.1739 25.461H40.6266C40.3665 22.9094 39.4766 20.2141 37.986 17.4239C36.7008 15.0291 34.9543 12.5494 32.8023 10.0568C30.3456 7.21338 27.3988 4.40163 24.2851 1.92625C24.2377 1.89009 24.1912 1.8527 24.1457 1.81413C23.894 1.57211 23.5584 1.43694 23.2092 1.43694C22.86 1.43694 22.5244 1.57211 22.2726 1.81413C22.241 1.84144 22.1921 1.87738 22.1203 1.93057C18.1671 5.05713 15.2965 8.07157 13.5901 10.0524C11.4425 12.5321 9.7089 15.0075 8.42377 17.4067C6.9374 20.1868 6.0519 22.8965 5.79171 25.4653H3.24877C2.37765 25.4653 1.66321 26.1754 1.66321 27.0509C1.66321 27.9723 2.33308 28.6364 3.24877 28.6364H5.78165C6.14653 32.8887 8.06204 36.8583 11.1636 39.79C14.3998 42.8605 18.6929 44.5688 23.1538 44.5611C27.623 44.5611 31.8866 42.849 35.144 39.7498C38.2305 36.8236 40.144 32.8723 40.526 28.6364H43.0646C43.9358 28.6364 44.6502 27.9263 44.6502 27.0509C44.6545 26.1438 44.0163 25.461 43.1768 25.461H43.1739ZM23.2559 5.00394C24.7969 6.27038 28.0356 9.08788 31.0313 12.6716C34.8953 17.2903 37.0818 21.5841 37.5403 25.4567H28.1836C27.6173 25.4567 27.1228 25.7269 26.7907 26.22L26.7735 26.2473L25.6508 28.4395L23.575 19.5946V19.5903C23.404 18.9074 22.8563 18.4446 22.2137 18.4446C21.5582 18.4446 20.9688 18.7996 20.6813 19.3703L20.677 19.3876L18.0895 25.4653H8.7774C9.99496 16.0856 20.8567 6.92588 23.2559 5.00394ZM8.97577 28.5301H19.2812C19.9008 28.5301 20.4082 28.2023 20.7058 27.6043L20.7101 27.5871L21.5093 25.7054V41.2749C14.9687 40.4757 9.69452 35.2015 8.97577 28.5301ZM24.0508 41.3641V33.8215C24.311 34.1766 24.7063 34.3965 25.152 34.3965H25.2555C25.8218 34.3965 26.3163 34.1263 26.6484 33.6332L26.6656 33.6059L29.2531 28.4309H37.6453C36.8058 35.4746 31.0055 40.9774 24.0523 41.3641H24.0508Z" fill="white"/>
</svg>
