<svg width="52" height="52" viewBox="0 0 52 52" fill="none" xmlns="http://www.w3.org/2000/svg">
<path d="M31.1013 32.4919V9.80029C31.1013 6.30234 28.2255 3.19687 24.799 3.19687C21.3723 3.19687 18.6137 6.1823 18.6137 9.6802V32.2517C16.72 33.9907 15.4919 36.401 15.4919 39.2028C15.4919 44.4484 19.6576 48.7002 24.799 48.7002C29.9402 48.7002 34.1059 44.4484 34.1059 39.2028C34.106 36.401 32.9921 34.2308 31.1013 32.4919ZM24.7979 46.179C21.1236 46.179 18.1227 42.9935 18.0147 39.2266C17.9002 35.2358 20.7751 33.4524 20.7751 33.4524V9.0799C20.7751 7.19732 22.9655 5.3571 24.8012 5.3571C26.6397 5.3571 28.94 7.19732 28.94 9.0799V33.6925C30.5198 34.9058 31.5845 37.2942 31.5815 39.2266C31.5814 42.995 28.4723 46.179 24.7979 46.179ZM34.1391 11.0514H37.6836C38.2871 11.0514 38.7777 10.5603 38.7777 9.95671C38.7777 9.35308 38.2871 8.86191 37.6836 8.86191H34.1391C33.5329 8.86191 33.045 9.35303 33.045 9.95671C33.045 10.5603 33.5358 11.0514 34.1391 11.0514ZM37.6836 12.1461H34.139C33.5328 12.1461 33.0421 12.6373 33.0449 13.2409C33.0449 13.8446 33.5358 14.3357 34.139 14.3357H37.6836C38.287 14.3357 38.7777 13.8446 38.7777 13.2409C38.7777 12.6373 38.287 12.1461 37.6836 12.1461ZM37.6836 15.4333H34.139C33.5328 15.4333 33.0421 15.9244 33.0449 16.528C33.0449 17.1317 33.5358 17.6228 34.139 17.6228H37.6836C38.287 17.6228 38.7777 17.1317 38.7777 16.528C38.7777 15.9243 38.287 15.4333 37.6836 15.4333ZM28.3034 35.2282L26.8987 34.0527C26.8987 34.0527 26.8987 28.3175 26.8987 28.2898C26.8987 27.0962 26.0512 26.1286 24.8575 26.1286C23.6639 26.1286 22.6962 27.0962 22.6962 28.2898V34.0527L21.2944 35.2282C20.1513 36.2769 19.5248 37.6892 19.5248 39.2029C19.5248 42.1694 21.8919 44.5841 24.799 44.5841C27.7059 44.5841 30.073 42.1694 30.073 39.2029C30.073 37.6922 29.4438 36.2797 28.3034 35.2282Z" fill="white"/>
</svg>
