<svg width="26" height="26" viewBox="0 0 26 26" fill="none" xmlns="http://www.w3.org/2000/svg">
<path d="M22.9784 6.90044C22.9076 6.19185 22.3944 5.61115 21.7098 5.46476C20.3216 5.2426 18.9505 4.92128 17.6066 4.50319C16.2906 3.95378 15.0566 3.21948 13.9407 2.32168C13.3556 1.89277 12.5665 1.89277 11.9813 2.32168C10.9248 3.31641 9.66258 4.05707 8.28756 4.48907C7.01435 5.0251 5.66932 5.36352 4.29742 5.49301C3.59763 5.60807 3.07341 6.20777 3.04263 6.92869C3.01186 7.64961 3 10.5318 3 13.7031C3 19.4443 9.6541 25 12.9823 25C16.3092 25 21.9494 21.081 22.8515 13.7899C23.0773 9.48338 22.9784 6.89941 22.9784 6.89941V6.90044ZM19.3551 11.3351L12.4038 18.0096C12.091 18.3132 11.613 18.361 11.2482 18.1247L11.0658 17.9662L7.2303 13.9052C6.87208 13.5089 6.89705 12.892 7.2863 12.5273C7.67555 12.1626 8.2815 12.1883 8.63972 12.5843L11.7981 15.9575L18.0579 9.92872C18.4474 9.56402 19.0536 9.5897 19.4119 9.98625C19.7701 10.3828 19.7449 11 19.3554 11.3647V11.3351H19.3551Z" fill="#92A9E1"/>
</svg>
