<svg width="230" height="62" viewBox="0 0 230 62" fill="none" xmlns="http://www.w3.org/2000/svg">
<g clip-path="url(#clip0_548_1019)">
<path d="M93.5403 29.3395L91.2053 28.233L89.7093 29.3395H84.0397V20.1969H91.9053V19.2977H91.9013L91.9053 19.294L89.5659 18.1853L88.0617 19.2977H84.0397V11.5022H81.4957V29.3395H73.1379V30.2391H81.4957H84.0397H93.5453V29.3395H93.5403Z" fill="#9D0A12"/>
<path d="M132.71 31.2913H135.254V20.8991C136.439 22.3226 136.403 22.8276 136.97 23.3377C137.447 23.7648 138.071 23.7427 138.403 23.3532C139.643 21.8993 136.239 20.2948 135.254 19.87V18.6226H138.341V17.7237H135.254V14.3663C136.404 14.071 137.471 13.7018 138.201 13.2434L136.019 11.5194C136.019 11.5194 133.223 13.5433 129.087 14.5929V15.3615C129.087 15.3615 130.741 15.2279 132.71 14.8954V17.7237H129.087V18.6226H132.152C131.952 19.3626 130.615 24.1036 128.684 26.9232L129.244 27.3724C129.244 27.3724 131.274 25.3499 132.71 22.727V31.2913H132.71Z" fill="#9D0A12"/>
<path d="M149.355 24.9749V24.0751H146.212V11.5223H143.668V24.0751H136.69V24.9749H143.668V31.2907H146.212V24.9749H149.355Z" fill="#9D0A12"/>
<path d="M141.404 17.1091C141.923 17.4829 142.54 17.3948 142.828 16.9742C144.091 15.143 139.068 13.7605 139.068 13.7605L138.733 14.2122C140.783 16.0009 140.692 16.591 141.404 17.1091Z" fill="#9D0A12"/>
<path d="M139.261 18.598L138.884 19.014C140.736 21.0081 140.585 21.5864 141.238 22.175C141.716 22.6028 142.337 22.5797 142.67 22.1899C144.116 20.5024 139.261 18.598 139.261 18.598Z" fill="#9D0A12"/>
<path d="M194.725 18.4994H202.93V17.5991H202.913L202.93 17.5921L200.59 16.4821L199.083 17.5991H194.003C194.451 14.6938 194.346 12.2804 194.294 11.5099H191.276C191.481 13.7929 191.436 15.8115 191.215 17.5991H183.109V18.4994H191.086C189.858 25.9613 185.399 29.0838 183.099 30.2391V31.2868C190.146 29.5005 192.822 23.6494 193.804 18.7273C194.323 27.4852 200.992 31.2857 200.992 31.2857C201.662 29.2227 203.704 29.5661 203.704 29.5661V28.8211C197.309 26.5808 194.977 19.3408 194.725 18.4994Z" fill="#9D0A12"/>
<path d="M230 15.9258L227.658 14.8145L226.171 15.9166H223.744C224.389 15.3014 225.616 14.0343 226.937 12.1883L223.919 11.2329C223.919 11.2329 223.109 14.5205 222.195 15.9166H215.969C216.096 15.8628 216.21 15.7837 216.301 15.6791C217.912 13.8598 212.279 11.5437 212.279 11.5437L211.859 11.9917C213.938 14.1505 213.965 15.017 214.697 15.654C214.837 15.774 214.984 15.8602 215.136 15.9166H211.62C211.492 15.4855 211.304 14.9761 211.304 14.9761H210.635L210.614 15.115C210.238 17.187 209.144 17.6395 209.144 18.9917C209.144 19.6277 209.592 20.3865 210.398 20.3865C211.528 20.3865 211.915 19.3668 211.915 17.9634C211.915 17.6817 211.862 17.2169 211.803 16.8165H227.068L226.377 19.8471H227.37L229.977 16.8165H229.981V16.8125L230 16.7898L230 15.9258Z" fill="#9D0A12"/>
<path d="M218.951 15.0028C219.447 15.4506 220.095 15.4241 220.442 15.0203C221.942 13.2612 216.69 10.9958 216.69 10.9958L216.296 11.4294C218.224 13.5013 218.27 14.392 218.951 15.0028Z" fill="#9D0A12"/>
<path d="M221.483 28.166V24.2349H229.165V23.3444H229.182L226.844 22.2357L225.354 23.3379H221.483V21.9709L224.586 19.6224V18.7222H213.756V19.6224H221.752L218.969 21.9685H218.949V23.3381H209.626V24.2353H218.949V28.1664C218.949 28.5778 218.66 28.6058 218.074 28.6058C217.548 28.6058 215.056 28.4409 214.532 28.4079V29.1491C218.08 29.54 217.598 31.3055 217.598 31.3055C221.456 30.809 221.483 28.166 221.483 28.166Z" fill="#9D0A12"/>
<path d="M164.177 20.5694V19.6054C163.427 19.9171 162.674 20.1975 161.939 20.4506V16.5593H164.177V15.6584H161.939V11.5085H159.397V15.6584H156.46V16.5593H159.397V21.2515C157.337 21.8421 155.855 22.1343 155.855 22.1343L156.591 24.4309C157.61 24.0116 158.547 23.5888 159.397 23.1833V28.0704L159.387 27.8491C159.387 28.5995 159.331 28.8642 157.906 28.8642C157.261 28.8642 156.663 28.8058 156.663 28.8058V29.3795C158.536 29.7319 158.71 31.2839 158.71 31.2839H159.397V31.2911H161.939V21.881C162.974 21.3152 163.735 20.8498 164.177 20.5694Z" fill="#9D0A12"/>
<path d="M176.878 28.713C174.545 28.297 172.692 27.4657 171.229 26.4808C173.888 23.7155 175.264 20.7439 175.427 20.3823H175.444V19.4821H170.717V16.5599H176.673V15.659H176.679L174.339 14.5521L172.84 15.659H170.717V11.5085H168.174V15.659H164.739V16.5599H168.174V19.4821H164.744V20.3823H165.142C165.737 22.8535 166.803 24.8034 168.02 26.3274C165.18 29.189 162.293 30.4663 162.293 30.4663V31.2789C165.227 30.9064 167.649 29.5952 169.584 28.0042C172.303 30.509 175.126 31.3099 175.126 31.3099C175.538 29.7754 176.618 29.4119 176.878 29.3458V28.713H176.878ZM166.294 20.3823H172.055C171.315 22.1356 170.346 23.6376 169.305 24.9073C167.297 22.9263 166.472 20.8745 166.294 20.3823Z" fill="#9D0A12"/>
<path d="M119.094 17.0492H118.572H116.549H110.53H109.513C109.9 16.5404 110.299 15.9776 110.686 15.3628H120.89V14.4632H120.882L120.892 14.4586L118.554 13.3506L117.054 14.4586L117.066 14.4632H111.22C111.617 13.7552 111.988 12.9989 112.295 12.199L109.542 11.4954C109.542 11.4954 108.853 15.9365 106.449 19.4195L106.988 19.8687C106.988 19.8687 107.392 19.5065 107.987 18.8665V21.8433H105.965V22.7443H107.987V26.6231V27.5216V27.9967H110.53V27.5216H116.551C116.53 28.3875 116.361 28.9223 115.32 28.9223H111.536V29.4838C111.536 29.4838 114.686 29.7451 114.686 31.2817C114.686 31.2817 119.063 31.2397 119.083 27.5216H120.892V26.6231H119.094V22.7443H120.892V21.8433H119.094V17.0492H119.094ZM116.549 26.6235H115.268C115.275 26.6172 115.283 26.6117 115.289 26.6047C116.737 24.9157 111.881 23.0126 111.881 23.0126L111.504 23.4273C113.356 25.4206 113.203 25.9997 113.858 26.587C113.873 26.6012 113.891 26.6108 113.906 26.6233H110.53V22.7445H116.549V26.6235ZM116.549 21.8436H115.24C115.256 21.828 115.274 21.8143 115.289 21.7968C116.737 20.1076 111.881 18.2073 111.881 18.2073L111.504 18.62C113.356 20.6128 113.203 21.1933 113.858 21.7799C113.886 21.8044 113.915 21.8213 113.943 21.8436H110.53V17.9477H116.549V21.8436Z" fill="#9D0A12"/>
<path d="M104.576 15.0929C105.054 15.5207 105.678 15.4967 106.008 15.1091C107.455 13.4188 102.601 11.5164 102.601 11.5164L102.223 11.9321C104.073 13.9271 103.924 14.5037 104.576 15.0929Z" fill="#9D0A12"/>
<path d="M102.899 19.5042C103.378 19.934 103.999 19.9095 104.331 19.5211C105.779 17.8308 100.924 15.9323 100.924 15.9323L100.544 16.3445C102.398 18.3384 102.246 18.9161 102.899 19.5042Z" fill="#9D0A12"/>
<path d="M106.981 14.4502C106.272 16.3001 104.074 21.9071 103.197 22.869C102.374 23.7667 100.819 23.2982 100.819 23.2982V24.114C100.819 24.114 102.903 24.5864 102.903 28.8758C102.903 30.257 102.917 31.2826 102.917 31.2826L104.595 31.273C104.595 31.273 104.651 26.154 104.734 24.4423C104.811 22.8391 107.453 15.5982 107.876 14.45L106.981 14.4502Z" fill="#9D0A12"/>
<path d="M76.4097 42.734C75.7801 42.5476 75.3584 42.2266 75.3584 41.5903C75.3584 40.6944 76.2625 40.0831 76.9778 40.0831C78.4079 40.0831 79.1344 40.7944 79.3595 42.0004H80.4309C80.4309 40.1467 78.8741 39.1655 77.0398 39.1655C75.4457 39.1655 73.8126 39.987 73.8126 41.7786C73.8126 42.6983 74.2464 43.631 75.7664 44.0295C76.9913 44.3643 78.9858 44.6887 79.1311 45.9514C79.227 46.7755 78.6313 47.543 77.2644 47.543C76.1389 47.543 74.6144 47.0971 74.4564 45.2965H73.4782C73.515 47.4971 75.1487 48.468 77.1656 48.468C78.9083 48.468 80.6782 47.6706 80.6782 45.6828C80.6782 43.4807 78.0213 43.2121 76.4097 42.734Z" fill="#9D0A12"/>
<path d="M210.317 44.0807C209.855 43.9556 209.422 43.715 209.517 43.2354C209.602 42.8176 210.132 42.5711 210.699 42.5711C211.484 42.5711 212.244 42.8386 212.408 43.7172H213.216C213.216 42.3668 212.081 41.6483 210.744 41.6483C209.582 41.6483 208.39 42.2476 208.39 43.5532C208.39 44.1973 208.632 44.8915 209.891 45.247C211.536 45.7157 212.255 46.0654 212.255 46.731C212.255 47.1501 211.796 47.5118 210.908 47.5118C210.231 47.5118 209.065 47.432 208.951 46.1201H208.149C208.176 47.722 209.365 48.4307 210.836 48.4307C212.105 48.4307 213.397 47.8498 213.397 46.399C213.397 45.4152 212.696 44.7244 210.317 44.0807Z" fill="#9D0A12"/>
<path d="M85.9225 41.6542C85.0818 41.6542 84.3514 42.0899 84.0053 42.6735H83.9803V39.3773H82.5702V48.257H83.9803V44.4648C83.9803 43.5191 84.5864 42.568 85.5265 42.568C86.3698 42.568 86.739 43.2085 86.7752 44.2157V48.257H88.1872V43.8432C88.1874 42.3872 87.321 41.6542 85.9225 41.6542Z" fill="#9D0A12"/>
<path d="M158.173 41.6542C157.334 41.6542 156.601 42.0899 156.255 42.6735H156.231V39.3773H154.822V48.257H156.231V44.4648C156.231 43.5191 156.838 42.568 157.777 42.568C158.618 42.568 158.988 43.2085 159.027 44.2157V48.257H160.437V43.8432C160.437 42.3872 159.57 41.6542 158.173 41.6542Z" fill="#9D0A12"/>
<path d="M117.26 41.6542C116.418 41.6542 115.686 42.0899 115.341 42.6735H115.317V39.3773H113.906V48.257H115.317V44.4648C115.317 43.5191 115.922 42.568 116.861 42.568C117.706 42.568 118.075 43.2085 118.111 44.2157V48.257H119.523V43.8432C119.523 42.3872 118.656 41.6542 117.26 41.6542Z" fill="#9D0A12"/>
<path d="M101.385 41.6542C100.545 41.6542 99.8261 42.0899 99.3942 42.7979L99.369 42.7727V41.8257H98.0331V48.257H99.4431V44.4648C99.4431 43.519 100.049 42.568 100.989 42.568C101.831 42.568 102.202 43.2084 102.239 44.2156V48.257H103.649V43.8432C103.65 42.3871 102.783 41.6542 101.385 41.6542Z" fill="#9D0A12"/>
<path d="M180.103 41.6542C179.261 41.6542 178.544 42.0899 178.109 42.7979L178.086 42.7727V41.8257H176.751V48.257H178.158V44.4648C178.158 43.519 178.767 42.568 179.705 42.568C180.546 42.568 180.918 43.2084 180.954 44.2156V48.257H182.365V43.8432C182.365 42.3871 181.5 41.6542 180.103 41.6542Z" fill="#9D0A12"/>
<path d="M110.38 42.711H110.354C109.995 41.9774 109.265 41.6542 108.46 41.6542C106.643 41.6542 105.566 43.1472 105.566 44.8768C105.566 46.7159 106.408 48.2568 108.436 48.2568C109.228 48.2568 109.957 47.8333 110.354 47.1233H110.379V48.108C110.379 49.1649 109.873 49.8911 108.732 49.8911C107.893 49.8911 107.078 49.624 106.868 48.8029H105.788C105.924 50.3093 107.359 50.806 108.647 50.806C110.675 50.806 111.788 49.8624 111.788 47.9208V41.8263H110.38V42.711ZM108.659 47.3436C107.484 47.3436 106.976 46.0573 106.976 45.0107C106.976 43.9422 107.401 42.5667 108.651 42.5667C109.877 42.5667 110.379 43.7924 110.379 44.8991C110.379 46.0059 109.908 47.3436 108.659 47.3436Z" fill="#9D0A12"/>
<path d="M130.863 41.8263H129.453V48.2559H130.863V41.8263Z" fill="#9D0A12"/>
<path d="M130.863 39.3773H129.453V40.7205H130.863V39.3773Z" fill="#9D0A12"/>
<path d="M139.647 39.3773H132.496V40.2922H135.292V48.2559H136.84V40.2922H139.647V39.3773Z" fill="#9D0A12"/>
<path d="M142.627 41.655C140.721 41.655 139.534 43.2211 139.534 45.0492C139.534 47.0378 140.648 48.4308 142.665 48.4308C144.05 48.4308 145.262 47.6456 145.558 46.2423H144.531C144.283 46.9501 143.551 47.5417 142.665 47.5183C141.302 47.4785 140.847 46.2226 140.901 45.2244H145.676C145.913 43.2959 144.644 41.655 142.627 41.655ZM140.945 44.3066C140.982 43.3471 141.651 42.5398 142.627 42.5721C143.666 42.6076 144.173 43.4112 144.235 44.3066H140.945Z" fill="#9D0A12"/>
<path d="M198.326 41.655C196.419 41.655 195.232 43.2211 195.232 45.0492C195.232 47.0378 196.347 48.4308 198.363 48.4308C199.747 48.4308 200.958 47.6456 201.255 46.2423H200.229C199.981 46.9501 199.25 47.5417 198.363 47.5183C197 47.4785 196.545 46.2226 196.6 45.2244H201.375C201.61 43.2959 200.342 41.655 198.326 41.655ZM196.642 44.3066C196.68 43.3471 197.348 42.5398 198.326 42.5721C199.363 42.6076 199.871 43.4112 199.935 44.3066H196.642Z" fill="#9D0A12"/>
<path d="M150.305 42.5811C150.988 42.5304 151.827 42.7913 152.144 43.972L153.19 43.9792C153.054 42.4002 151.792 41.6539 150.309 41.6539C148.205 41.6539 147.155 43.1716 147.155 45.1113C147.155 46.9995 148.254 48.4306 150.26 48.4306C151.904 48.4306 152.933 47.5244 153.19 45.8449H152.125C151.99 46.7771 151.34 47.5896 150.26 47.5135C149.038 47.4271 148.565 46.1797 148.565 45.1115C148.564 43.1719 149.576 42.6353 150.305 42.5811Z" fill="#9D0A12"/>
<path d="M172.907 44.5497C172.907 45.745 172.834 47.5536 170.829 47.5536C168.827 47.5536 168.752 45.7448 168.752 44.5497V39.3773H167.206V45.0628C167.206 47.3384 168.652 48.4683 170.829 48.4683C173.007 48.4683 174.455 47.3384 174.455 45.0628V39.3773H172.907V44.5497Z" fill="#9D0A12"/>
<path d="M186.07 39.3773H184.66V40.7205H186.07V39.3773Z" fill="#9D0A12"/>
<path d="M186.07 41.8263H184.66V48.2559H186.07V41.8263Z" fill="#9D0A12"/>
<path d="M191.218 46.7646H191.193L189.248 41.8254H187.713L190.041 48.2568H191.693L193.911 41.8254H192.833L191.218 46.7646Z" fill="#9D0A12"/>
<path d="M204.694 43.072H204.67V41.8255H203.346V48.2568H204.758V45.1969C204.758 43.7662 205.535 42.6986 206.488 42.6986C206.685 42.6986 206.897 42.7214 207.093 42.7583V41.8073C206.959 41.7953 206.897 41.7723 206.563 41.7723C205.709 41.7726 204.856 42.3872 204.694 43.072Z" fill="#9D0A12"/>
<path d="M216.597 41.8263H215.185V48.2559H216.597V41.8263Z" fill="#9D0A12"/>
<path d="M216.597 39.3773H215.185V40.7205H216.597V39.3773Z" fill="#9D0A12"/>
<path d="M220.702 39.8997H219.291V41.77H218.229V42.6862H219.291V46.6774C219.329 47.7468 219.576 48.3205 221.06 48.3205C221.37 48.3205 221.666 48.282 221.975 48.2452V47.2955C221.78 47.3434 221.58 47.3434 221.381 47.3434C220.752 47.3434 220.702 47.0462 220.702 46.4613V42.6862H221.976V41.77H220.702V39.8997H220.702Z" fill="#9D0A12"/>
<path d="M95.7714 46.8633C95.7714 46.8508 95.7708 46.8399 95.7708 46.8274V43.5184C95.7708 42.1599 94.4575 41.6542 93.2096 41.6542C91.7858 41.6542 90.4003 42.1373 90.3015 43.7922H91.2029C91.4825 42.5951 92.4787 42.5278 93.1219 42.5914C93.6778 42.6448 94.4454 42.8976 94.4454 43.6419C94.4454 44.4882 93.5551 44.3506 92.5279 44.5492C91.3411 44.6868 90.0652 44.9503 90.0652 46.5553C90.0652 47.809 91.1048 48.4306 92.2553 48.4306C93.0083 48.4306 93.9077 48.1979 94.4643 47.6518V48.4306H95.7723V47.3567H95.7717V46.8633H95.7714ZM94.3594 46.094C94.3594 46.9895 93.3941 47.5221 92.7757 47.5221C92.2799 47.5221 91.4773 47.1371 91.4773 46.4912C91.4773 45.7449 92.0214 45.5203 92.6271 45.4236C93.2572 45.3093 93.9262 45.3224 94.3594 45.0369V46.094Z" fill="#9D0A12"/>
<path d="M127.225 46.8633V46.8274V43.5184C127.225 42.1599 125.914 41.6542 124.665 41.6542C123.241 41.6542 121.856 42.1373 121.756 43.7922H122.658C122.938 42.5951 123.934 42.5278 124.577 42.5914C125.131 42.6448 125.902 42.8976 125.902 43.6419C125.902 44.4882 125.011 44.3506 123.983 44.5492C122.797 44.6868 121.523 44.9503 121.523 46.5553C121.523 47.809 122.56 48.4306 123.709 48.4306C124.465 48.4306 125.364 48.1979 125.92 47.6518V48.4306H127.227V47.3567H127.224V46.8633H127.225ZM125.814 46.094C125.814 46.9895 124.848 47.5221 124.23 47.5221C123.735 47.5221 122.932 47.1371 122.932 46.4912C122.932 45.7449 123.477 45.5203 124.082 45.4236C124.713 45.3093 125.383 45.3224 125.814 45.0369V46.094Z" fill="#9D0A12"/>
<path d="M226.512 46.6275H226.486L224.572 41.8263H223.026L225.695 48.2329L224.74 50.8333H226.015C226.09 50.6553 229.362 41.8263 229.362 41.8263H228.189L226.512 46.6275Z" fill="#9D0A12"/>
<path d="M30.8368 0C13.8331 0 0 13.907 0 30.9998C0 48.0932 13.8331 62 30.8368 62C47.8409 62 61.674 48.0932 61.674 30.9998C61.674 13.907 47.8409 0 30.8368 0ZM30.8368 61.0039C14.3792 61.0039 0.991899 47.5444 0.991899 30.9998C0.991899 14.4563 14.3792 0.997157 30.8368 0.997157C47.2941 0.997157 60.6836 14.4563 60.6836 30.9998C60.6836 47.5444 47.2941 61.0039 30.8368 61.0039Z" fill="#9D0A12"/>
<path d="M54.4191 31.1089L54.356 31.9398L55.7002 32.8731L54.2301 33.6054L54.1648 34.4516L56.3246 33.3005L57.8213 33.4166L57.8757 32.6973L56.3834 32.5831L54.4191 31.1089Z" fill="#9D0A12"/>
<path d="M54.7046 34.7973L54.1158 34.6663L53.5068 37.448L54.0958 37.5792L54.3245 36.5398L57.2175 37.1794L57.3711 36.4731L54.4781 35.8334L54.7046 34.7973Z" fill="#9D0A12"/>
<path d="M53.0889 38.6562L56.4775 39.7708L56.7016 39.0838L53.3132 37.9666L53.0889 38.6562Z" fill="#9D0A12"/>
<path d="M55.1869 40.388C54.9822 40.2957 54.7892 40.2612 54.611 40.2846C54.4322 40.3084 54.2681 40.3795 54.1189 40.4974C53.9685 40.6135 53.7858 40.8156 53.5663 41.1032C53.3474 41.3906 53.1846 41.5595 53.0772 41.6129C52.9932 41.6531 52.9127 41.6555 52.8352 41.6205C52.7512 41.582 52.7003 41.5179 52.681 41.4245C52.6512 41.2806 52.6788 41.1131 52.7656 40.9208C52.8476 40.7353 52.9471 40.6124 53.0611 40.5521C53.1762 40.4923 53.3239 40.4858 53.5036 40.5337L53.7697 39.86C53.4662 39.7358 53.1803 39.7369 52.9077 39.8626C52.6359 39.9899 52.4092 40.2588 52.2252 40.6684C52.1127 40.9208 52.0542 41.152 52.0502 41.3635C52.045 41.5755 52.0946 41.7607 52.1973 41.9219C52.2996 42.0805 52.4325 42.1984 52.5979 42.2727C52.8555 42.388 53.1176 42.388 53.3868 42.2673C53.5787 42.1818 53.7962 41.9818 54.043 41.6675C54.2333 41.4237 54.3593 41.2686 54.4204 41.2032C54.5116 41.1087 54.5936 41.0503 54.6678 41.0289C54.7416 41.0083 54.8171 41.0149 54.8945 41.0503C55.014 41.1046 55.0947 41.2058 55.1367 41.3546C55.1774 41.5033 55.1502 41.6835 55.0553 41.8963C54.9648 42.0971 54.8434 42.2325 54.6898 42.3056C54.5373 42.3786 54.3443 42.3867 54.1119 42.3274L53.8872 42.9974C54.2694 43.1196 54.6067 43.1118 54.8958 42.9768C55.1843 42.8406 55.4215 42.565 55.6075 42.1522C55.7341 41.869 55.8007 41.6148 55.807 41.3885C55.8127 41.1616 55.7572 40.9591 55.6417 40.7826C55.5253 40.6032 55.3736 40.4729 55.1869 40.388Z" fill="#9D0A12"/>
<path d="M53.0219 44.2668C52.8746 44.2933 52.7216 44.3471 52.5602 44.4282C52.6925 44.1395 52.7279 43.8819 52.6681 43.6533C52.6068 43.4256 52.4645 43.2382 52.2386 43.0925C52.0628 42.9772 51.877 42.9177 51.6825 42.9164C51.4889 42.9147 51.3192 42.9685 51.1712 43.0796C51.0233 43.1898 50.8464 43.4068 50.6378 43.7281L49.8147 45.0076L52.8074 46.9551L53.1988 46.3477L51.9497 45.5352L52.0291 45.4114C52.119 45.2716 52.1958 45.1778 52.2597 45.1277C52.3237 45.077 52.4038 45.0452 52.5025 45.0256C52.5994 45.0076 52.8145 44.9956 53.1476 44.9928L54.0819 44.977L54.5499 44.2508L53.7294 44.2375C53.4048 44.2318 53.1672 44.2404 53.0219 44.2668ZM52.0765 44.204C52.0546 44.2928 51.9499 44.482 51.7615 44.7738L51.4724 45.2229L50.7124 44.7294L51.0183 44.2543C51.1771 44.0096 51.2755 43.8631 51.314 43.8173C51.394 43.7307 51.4817 43.6793 51.5781 43.6658C51.6762 43.652 51.7743 43.6774 51.8751 43.7434C51.9641 43.802 52.0267 43.8716 52.0604 43.9505C52.0933 44.031 52.0985 44.1148 52.0765 44.204Z" fill="#9D0A12"/>
<path d="M50.2586 49.075L49.5327 48.4256L50.7218 47.0807L50.2725 46.68L49.0839 48.0253L48.493 47.4974L49.7708 46.0516L49.3202 45.6489L47.564 47.6349L50.2288 50.0164L52.0313 47.9792L51.582 47.5781L50.2586 49.075Z" fill="#9D0A12"/>
<path d="M46.6582 48.4816L47.6906 51.0758L45.2997 49.6303L44.7036 50.1351L47.9741 52.0529L48.5621 51.5555L47.2424 47.9868L46.6582 48.4816Z" fill="#9D0A12"/>
<path d="M43.7041 50.7647L45.702 53.7344L46.2987 53.3287L44.3008 50.359L43.7041 50.7647Z" fill="#9D0A12"/>
<path d="M42.3982 51.572L43.5054 53.6912L41.1063 52.2542L40.4855 52.5818L42.1436 55.7555L42.7359 55.4432L41.6545 53.3725L44.0089 54.7699L44.6472 54.4325L42.99 51.2588L42.3982 51.572Z" fill="#9D0A12"/>
<path d="M39.6773 52.9279L38.9959 53.1595L39.6257 55.0383C39.7165 55.3082 39.7708 55.5031 39.7898 55.6258C39.8083 55.7481 39.7822 55.866 39.7104 55.9782C39.6386 56.091 39.5063 56.1811 39.3131 56.2457C39.1229 56.3111 38.9582 56.3192 38.8201 56.273C38.6817 56.226 38.5746 56.1394 38.4989 56.0094C38.4522 55.9283 38.3814 55.7419 38.2838 55.4497L37.6654 53.6103L36.9829 53.8419L37.5921 55.6536C37.7189 56.0342 37.8388 56.3143 37.9476 56.4935C38.0227 56.6136 38.1282 56.7181 38.265 56.8054C38.4019 56.8918 38.5666 56.9443 38.7591 56.9622C38.9508 56.981 39.2086 56.9357 39.53 56.8259C39.7978 56.7358 40.003 56.6273 40.1457 56.5022C40.2882 56.3776 40.3896 56.24 40.4503 56.0912C40.5104 55.9412 40.531 55.7765 40.5119 55.5952C40.4912 55.4141 40.4125 55.1201 40.2756 54.7118L39.6773 52.9279Z" fill="#9D0A12"/>
<path d="M33.9443 54.4195L34.0883 55.8228L32.6848 55.968L32.5412 54.5647L31.8258 54.6382L32.1905 58.2045L32.9058 58.131L32.7461 56.5704L34.1499 56.4256L34.3091 57.9849L35.0262 57.9114L34.6616 54.3451L33.9443 54.4195Z" fill="#9D0A12"/>
<path d="M28.927 55.3921C29.1023 55.211 29.3212 55.1268 29.5847 55.141C29.7759 55.1518 29.9349 55.2137 30.0631 55.328C30.191 55.4433 30.2707 55.5947 30.3026 55.7825L31.0239 55.6502C30.9575 55.3593 30.8479 55.1334 30.6945 54.9707C30.436 54.6981 30.0896 54.5498 29.6547 54.526C29.1556 54.4986 28.7448 54.6421 28.42 54.9558C28.0971 55.2685 27.9196 55.7231 27.8881 56.3178C27.8574 56.8825 27.9853 57.3337 28.2727 57.6749C28.5597 58.0164 28.94 58.199 29.4119 58.2252C29.7942 58.2454 30.1147 58.1684 30.3734 57.9925C30.6325 57.8156 30.8257 57.5354 30.9532 57.1493L30.2683 56.8895C30.1949 57.1485 30.0851 57.3355 29.9413 57.4512C29.7961 57.5651 29.6288 57.6174 29.438 57.6063C29.1795 57.5925 28.9744 57.4862 28.823 57.285C28.6704 57.0842 28.6071 56.757 28.6313 56.3046C28.6543 55.877 28.752 55.5741 28.927 55.3921Z" fill="#9D0A12"/>
<path d="M24.0085 57.3624L26.664 57.9173L26.7858 57.3261L24.8357 56.9186L25.0333 55.9643L26.7858 56.3302L26.9085 55.7381L25.1558 55.3731L25.3164 54.5938L27.2001 54.9873L27.323 54.3934L24.7352 53.8525L24.0085 57.3624Z" fill="#9D0A12"/>
<path d="M21.5009 52.7329L21.2957 53.3042L22.2915 53.6651L21.2857 56.4667L21.9639 56.7119L22.9688 53.9112L23.9618 54.2712L24.1665 53.6997L21.5009 52.7329Z" fill="#9D0A12"/>
<path d="M18.8162 55.3866L19.4655 55.6989L21.0047 52.4645L20.3555 52.1523L18.8162 55.3866Z" fill="#9D0A12"/>
<path d="M14.9631 53.1243L15.6115 53.5313L16.289 52.9974L17.4978 53.7553L17.3338 54.6122L17.9982 55.0287L18.6762 51.2284L18.0285 50.8226L14.9631 53.1243ZM17.621 53.1201L16.7951 52.6019L17.9049 51.731L17.621 53.1201Z" fill="#9D0A12"/>
<path d="M15.9318 49.292L15.0108 50.3587L13.9464 49.4287L14.867 48.3633L14.322 47.8895L11.985 50.5975L12.5294 51.0713L13.5509 49.8867L14.6165 50.8158L13.5946 52.0004L14.1388 52.4742L16.4746 49.7675L15.9318 49.292Z" fill="#9D0A12"/>
<path d="M11.4973 47.1999L11.0356 47.587L11.5636 48.2244L11.2155 48.5157C11.0808 48.4853 10.9427 48.432 10.7997 48.3521C10.6577 48.2732 10.5384 48.1743 10.4414 48.0582C10.2458 47.8233 10.1705 47.5647 10.2127 47.2824C10.2549 47.0013 10.4388 46.7248 10.7647 46.4528C11.0671 46.2003 11.353 46.0816 11.625 46.0965C11.8976 46.1122 12.1341 46.2421 12.336 46.4838C12.4681 46.6444 12.5403 46.8106 12.5501 46.9836C12.5614 47.1557 12.515 47.318 12.4124 47.4694L12.9719 47.9359C13.1786 47.6706 13.2741 47.3819 13.257 47.07C13.2413 46.7581 13.091 46.4313 12.8081 46.0897C12.5905 45.8261 12.3632 45.6441 12.1254 45.5437C11.8156 45.4114 11.4999 45.3766 11.1787 45.4416C10.8567 45.5079 10.5532 45.6599 10.2684 45.8979C10.0043 46.1175 9.80544 46.3751 9.6712 46.6697C9.53544 46.965 9.49867 47.2695 9.55502 47.5844C9.6118 47.8996 9.75975 48.2008 9.99777 48.4897C10.1858 48.7165 10.4135 48.9044 10.6829 49.054C10.9503 49.2045 11.1883 49.2902 11.3983 49.3139L12.4905 48.3996L11.4973 47.1999Z" fill="#9D0A12"/>
<path d="M10.8708 43.5359L8.81655 44.747L10.1324 42.271L9.77864 41.6632L6.70221 43.4762L7.04075 44.0558L9.04674 42.8738L7.76808 45.303L8.13295 45.9287L11.2094 44.1171L10.8708 43.5359Z" fill="#9D0A12"/>
<path d="M8.73648 39.1671L4.909 39.171L5.1864 39.885L6.04884 39.8653L6.56622 41.2006L5.92657 41.7881L6.2105 42.5217L9.01301 39.8812L8.73648 39.1671ZM7.0427 40.7636L6.68871 39.8524L8.09748 39.8196L7.0427 40.7636Z" fill="#9D0A12"/>
<path d="M7.96284 36.6706L6.59128 36.9704L6.29343 35.5851L7.6639 35.2852L7.51095 34.5785L4.02679 35.3386L4.17953 36.0446L5.70295 35.7123L6.00254 37.0973L4.47782 37.4304L4.63098 38.1389L8.11492 37.3779L7.96284 36.6706Z" fill="#9D0A12"/>
<path d="M4.30899 33.8832C4.49349 33.9858 4.68756 34.0315 4.89273 34.0182C5.11769 34.0042 5.3035 33.9447 5.45079 33.8404C5.59678 33.7354 5.70992 33.5965 5.78802 33.4222C5.86526 33.2478 5.93553 32.9821 5.99624 32.6249C6.05716 32.2699 6.12243 32.0436 6.19335 31.9482C6.24818 31.8721 6.31824 31.8334 6.40222 31.8268C6.49491 31.82 6.56997 31.855 6.63023 31.9294C6.72292 32.0409 6.77579 32.2032 6.78884 32.413C6.80233 32.6159 6.77122 32.771 6.69681 32.8782C6.62284 32.9832 6.49599 33.058 6.31519 33.1009L6.39091 33.8229C6.7177 33.7896 6.97073 33.6544 7.15305 33.4154C7.33516 33.177 7.41218 32.8318 7.38411 32.3837C7.36758 32.1085 7.3121 31.8749 7.21745 31.6864C7.12346 31.4976 6.99336 31.3568 6.82996 31.2621C6.66461 31.1693 6.49273 31.1271 6.3115 31.1394C6.02996 31.1568 5.79738 31.2813 5.61549 31.5138C5.4856 31.6787 5.3853 31.9576 5.31459 32.3485C5.25781 32.6547 5.21821 32.8522 5.19406 32.9383C5.15707 33.0652 5.11204 33.1544 5.0559 33.2078C4.99977 33.2612 4.92906 33.2894 4.84573 33.2953C4.7141 33.3038 4.5964 33.2518 4.49044 33.1394C4.38535 33.0278 4.32509 32.8557 4.31203 32.6234C4.29833 32.4029 4.34249 32.2249 4.44431 32.0895C4.54614 31.9537 4.71323 31.8574 4.94603 31.7999L4.83442 31.1011C4.43888 31.173 4.14472 31.3373 3.95152 31.593C3.75919 31.8474 3.67651 32.2019 3.70436 32.6536C3.72264 32.9646 3.78225 33.2209 3.88146 33.4235C3.98154 33.6278 4.12427 33.7802 4.30899 33.8832Z" fill="#9D0A12"/>
<path d="M22.5545 34.5461H22.058V37.8403H22.5545V34.5461Z" fill="#9D0A12"/>
<path d="M23.622 33.613H23.1244V37.2891H23.622V33.613Z" fill="#9D0A12"/>
<path d="M25.7532 32.3683H25.2561V36.3263H25.7532V32.3683Z" fill="#9D0A12"/>
<path d="M24.6882 32.9633H24.1911V36.7865H24.6882V32.9633Z" fill="#9D0A12"/>
<path d="M26.8207 31.9296H26.3242V36.0238H26.8207V31.9296Z" fill="#9D0A12"/>
<path d="M27.8841 31.5892H27.3876V35.7371H27.8841V31.5892Z" fill="#9D0A12"/>
<path d="M21.4876 35.5699H20.9904V38.529H21.4876V35.5699Z" fill="#9D0A12"/>
<path d="M20.4228 37.0006H19.9263V39.286H20.4228V37.0006Z" fill="#9D0A12"/>
<path d="M19.3552 38.5037H18.858V40.1522H19.3552V38.5037Z" fill="#9D0A12"/>
<path d="M18.2902 39.7072H17.7928V40.8546H18.2902V39.7072Z" fill="#9D0A12"/>
<path d="M17.2234 40.5961H16.7269V41.4333H17.2234V40.5961Z" fill="#9D0A12"/>
<path d="M16.1578 41.3503H15.6613V41.9667H16.1578V41.3503Z" fill="#9D0A12"/>
<path d="M39.6168 34.5461H39.1203V37.8403H39.6168V34.5461Z" fill="#9D0A12"/>
<path d="M38.549 33.6118H38.0518V37.2892H38.549V33.6118Z" fill="#9D0A12"/>
<path d="M36.4183 32.3683H35.9218V36.3263H36.4183V32.3683Z" fill="#9D0A12"/>
<path d="M37.4833 32.9633H36.9861V36.7865H37.4833V32.9633Z" fill="#9D0A12"/>
<path d="M35.3496 31.9296H34.8531V36.0238H35.3496V31.9296Z" fill="#9D0A12"/>
<path d="M34.2833 31.5892H33.7859V35.7371H34.2833V31.5892Z" fill="#9D0A12"/>
<path d="M40.682 35.5709H40.1848V38.53H40.682V35.5709Z" fill="#9D0A12"/>
<path d="M41.7477 37.0006H41.2512V39.286H41.7477V37.0006Z" fill="#9D0A12"/>
<path d="M42.8149 38.5037H42.3184V40.1522H42.8149V38.5037Z" fill="#9D0A12"/>
<path d="M43.8829 39.7072H43.3862V40.8546H43.8829V39.7072Z" fill="#9D0A12"/>
<path d="M44.9461 40.5961H44.4496V41.4333H44.9461V40.5961Z" fill="#9D0A12"/>
<path d="M46.0124 41.3503H45.5159V41.9667H46.0124V41.3503Z" fill="#9D0A12"/>
<path d="M27.5295 47.8062C27.7023 47.6494 27.8191 47.5282 27.8861 47.4449C27.9851 47.3158 28.0578 47.1957 28.1037 47.0787C28.1492 46.9621 28.1724 46.8407 28.1724 46.7126C28.1724 46.4853 28.0917 46.2966 27.9322 46.1465C27.7712 45.9936 27.5524 45.9188 27.2717 45.9188C27.0174 45.9188 26.803 45.9829 26.6338 46.1141C26.4634 46.2465 26.3605 46.4615 26.3296 46.7622L26.8711 46.8152C26.8812 46.6575 26.9203 46.5435 26.9875 46.475C27.0552 46.405 27.1455 46.3725 27.2584 46.3725C27.3722 46.3725 27.4634 46.4042 27.5282 46.4711C27.5939 46.5365 27.6261 46.6275 27.6261 46.7508C27.6261 46.8611 27.5889 46.9722 27.5136 47.0861C27.4588 47.1669 27.308 47.3232 27.0633 47.5531C26.7587 47.8346 26.5541 48.0641 26.4512 48.2366C26.3479 48.4088 26.2865 48.5903 26.2659 48.7817H28.1724V48.2743H27.0924C27.1203 48.225 27.1573 48.1752 27.2036 48.1231C27.2493 48.0711 27.3578 47.9672 27.5295 47.8062Z" fill="#9D0A12"/>
<path d="M29.8655 45.9188C29.5896 45.9188 29.3764 46.0142 29.2224 46.2097C29.037 46.4473 28.9443 46.834 28.9443 47.3696C28.9443 47.9169 29.029 48.2979 29.198 48.5116C29.3658 48.7257 29.5892 48.8307 29.8655 48.8307C30.1407 48.8307 30.3551 48.7333 30.5082 48.5398C30.6936 48.3036 30.7858 47.9144 30.7858 47.3744C30.7858 46.8361 30.6949 46.4475 30.51 46.2128C30.3557 46.0148 30.1407 45.9188 29.8655 45.9188ZM30.1612 48.0872C30.1334 48.1984 30.0924 48.271 30.0413 48.3145C29.9891 48.358 29.9301 48.3768 29.8653 48.3768C29.7994 48.3768 29.7411 48.358 29.6889 48.3154C29.6379 48.2742 29.5962 48.1898 29.5625 48.0643C29.5296 47.9387 29.5128 47.7097 29.5128 47.3744C29.5128 47.0413 29.5307 46.8029 29.5685 46.661C29.5975 46.5525 29.6366 46.4772 29.6889 46.4363C29.7396 46.3928 29.7994 46.3727 29.8653 46.3727C29.9301 46.3727 29.9889 46.3928 30.04 46.4363C30.0916 46.4774 30.1334 46.5614 30.1675 46.6863C30.2015 46.811 30.2178 47.0413 30.2178 47.3744C30.218 47.7095 30.1991 47.947 30.1612 48.0872Z" fill="#9D0A12"/>
<path d="M31.9279 46.3739C31.7605 46.5042 31.6074 46.5926 31.4636 46.6392V47.1363C31.7342 47.0458 31.9688 46.91 32.1663 46.7223V48.7818H32.7113V45.9187H32.2705C32.2081 46.0937 32.0943 46.2439 31.9279 46.3739Z" fill="#9D0A12"/>
<path d="M34.8716 47.25C35.1446 47.0999 35.2795 46.9 35.2795 46.6498C35.2795 46.4733 35.2147 46.3141 35.0811 46.1747C34.919 46.0039 34.7056 45.918 34.4386 45.918C34.2831 45.918 34.1416 45.9479 34.0148 46.0072C33.8906 46.0663 33.7922 46.1474 33.722 46.2487C33.6504 46.353 33.599 46.4908 33.5636 46.6623L34.0648 46.7487C34.0796 46.626 34.1177 46.5304 34.1845 46.4641C34.2509 46.4005 34.3303 46.3681 34.4243 46.3681C34.5187 46.3681 34.5933 46.3963 34.6495 46.4527C34.7065 46.5105 34.7341 46.5855 34.7341 46.6831C34.7341 46.7955 34.6958 46.8843 34.6188 46.9538C34.5413 47.0225 34.4295 47.0551 34.2813 47.0503L34.2224 47.4958C34.3181 47.4689 34.4014 47.4547 34.4721 47.4547C34.5774 47.4547 34.6671 47.4945 34.7406 47.5761C34.8139 47.6568 34.8505 47.7649 34.8505 47.9033C34.8505 48.0494 34.8126 48.1643 34.736 48.2498C34.6595 48.3344 34.5648 48.3771 34.4517 48.3771C34.3477 48.3771 34.2587 48.3421 34.1843 48.2712C34.1116 48.1999 34.0662 48.096 34.0487 47.9606L33.5233 48.0273C33.5496 48.2644 33.6475 48.4604 33.8162 48.6091C33.9861 48.7557 34.1984 48.8309 34.4563 48.8309C34.7256 48.8309 34.9527 48.7421 35.1351 48.5669C35.3176 48.39 35.4083 48.1769 35.4083 47.9256C35.4083 47.7539 35.3598 47.6083 35.2637 47.4838C35.1649 47.3624 35.035 47.2824 34.8716 47.25Z" fill="#9D0A12"/>
<path d="M35.3901 44.1349H34.7234V43.8687H34.0559V43.5999H32.6422L33.1885 40.6378C33.1992 40.6168 33.2057 40.5947 33.2057 40.5702C33.2057 40.5428 33.1985 40.5168 33.1846 40.4945L32.5234 37.5203C32.5234 37.519 32.524 37.519 32.524 37.5177C32.524 37.5078 32.5201 37.5015 32.5186 37.4917L32.8534 35.5107H33.2196V31.3351H32.7225V32.9368L32.4072 31.4212C32.4085 31.4127 32.412 31.4064 32.412 31.3989C32.412 31.3906 32.4052 31.386 32.4039 31.3788L32.8641 28.3766C32.8667 28.3641 32.8706 28.3534 32.8706 28.341C32.8706 28.3285 32.8648 28.3182 32.8619 28.3066C32.8606 28.3027 32.86 28.299 32.8584 28.2948C32.8558 28.2872 32.8565 28.2767 32.8521 28.269L32.2908 25.2557C32.2908 25.2543 32.2888 25.2543 32.2888 25.253L32.6881 22.2891C32.6966 22.2697 32.702 22.2489 32.702 22.227C32.702 22.2023 32.6959 22.1776 32.6844 22.1568L32.1696 19.1839C32.1703 19.1782 32.1735 19.1736 32.1735 19.1677C32.1735 19.1631 32.1696 19.1607 32.1696 19.1581L32.5369 16.1286L32.5451 15.961H31.1131L30.9791 12.9777H30.6954L30.5603 15.961H29.1206L29.5059 19.1526L28.9809 22.201C28.9796 22.206 28.9816 22.2115 28.9816 22.2165C28.9809 22.227 28.9774 22.236 28.9787 22.2471L29.381 25.2594L28.8162 28.2974C28.8149 28.3001 28.8149 28.3038 28.8143 28.3064L28.8127 28.3127C28.8121 28.3156 28.8134 28.318 28.8134 28.3219C28.8114 28.3357 28.8082 28.3493 28.8108 28.3635L29.2722 31.3945L28.9544 32.9284V31.3344H28.4579V35.51H28.8167L29.1526 37.5041C29.1519 37.5072 29.1513 37.5118 29.1513 37.5157L28.4801 40.538C28.4779 40.5461 28.4801 40.556 28.4801 40.5649C28.4801 40.5756 28.4772 40.5859 28.4788 40.5962L29.0321 43.5991H27.6157V43.8679H26.9493V44.134H26.2824V44.4335H35.3899L35.3901 44.1349ZM30.8318 34.7998L32.1244 37.3681H29.5438L30.8318 34.7998ZM30.8337 28.7034L32.0167 31.2498H29.6563L30.8337 28.7034ZM31.7991 19.0186H29.8767L30.837 16.5249L31.7991 19.0186ZM30.8331 22.6148L31.9081 25.1347H29.7585L30.8331 22.6148ZM30.8357 40.8865L32.2976 43.5999H29.3728L30.8357 40.8865ZM31.0785 40.4221L31.5076 39.5651L32.3156 37.958L32.8643 40.4221H31.0785ZM31.0705 34.309L32.1979 31.8749L32.7037 34.309H31.0705ZM31.0585 28.1918L31.2974 27.6312L32.0874 25.7926L32.536 28.1918H31.0585ZM31.052 22.0778L31.9612 19.7235L32.37 22.0778H31.052ZM29.7089 19.7237L30.3153 21.292L30.6181 22.0781H29.3031L29.7089 19.7237ZM29.584 25.7939L29.8949 26.5223L30.6083 28.1918H29.1371L29.584 25.7939ZM29.4772 31.8722L30.6038 34.309H28.972L29.4772 31.8722ZM29.3567 37.9645L30.589 40.4221H28.8112L29.3567 37.9645Z" fill="#9D0A12"/>
<path d="M38.257 50.9644C38.5383 50.9644 38.7837 50.9195 39.0069 50.8259C39.6844 50.5436 40.1072 49.8511 40.496 49.1415C40.7623 49.1643 41.0316 49.1838 41.2901 49.1838C41.8995 49.1838 42.3462 49.0753 42.6949 48.8404C43.302 48.432 43.5822 47.6737 43.8248 46.9038C44.622 46.8146 45.4161 46.6859 45.9302 46.1702C46.4441 45.6525 46.5699 44.852 46.6604 44.0484C47.4229 43.8041 48.1757 43.5234 48.5785 42.9171C48.981 42.3135 48.9512 41.5088 48.8839 40.7076C49.5915 40.3167 50.2805 39.892 50.562 39.2107C50.8386 38.5396 50.6473 37.7513 50.4245 36.9751C51.0379 36.4556 51.6279 35.9058 51.7709 35.1859C51.9114 34.4773 51.5759 33.7463 51.2084 33.0324C51.7115 32.399 52.1816 31.7406 52.1816 30.9965C52.1816 30.2586 51.718 29.6037 51.2202 28.9753C51.5842 28.264 51.909 27.535 51.7663 26.8139C51.6218 26.0882 51.0374 25.5363 50.4254 25.0164C50.6475 24.2413 50.8379 23.4539 50.5616 22.7842C50.2807 22.1026 49.5897 21.6781 48.8835 21.2872C48.9507 20.4863 48.9842 19.6787 48.5832 19.0777C48.177 18.4674 47.4236 18.1857 46.6591 17.9419C46.5692 17.1409 46.4421 16.3423 45.9293 15.8264C45.4135 15.3097 44.6161 15.1824 43.8165 15.0923C43.5733 14.3251 43.2937 13.5676 42.6912 13.1625C42.3377 12.9257 41.886 12.8146 41.2703 12.8146C41.0173 12.8146 40.7549 12.8334 40.4944 12.8561C40.1057 12.1472 39.6831 11.4541 39.0061 11.1717C38.782 11.0788 38.5368 11.0328 38.2561 11.0328C37.7842 11.0328 37.2799 11.1658 36.7829 11.31C36.2653 10.6921 35.7166 10.0989 34.9993 9.95476C34.8901 9.93332 34.7767 9.92173 34.6599 9.92173C34.0631 9.92173 33.4535 10.2104 32.8575 10.5202C32.2296 10.0164 31.5748 9.54443 30.8365 9.54443C30.1018 9.54443 29.4513 10.0092 28.826 10.5103C28.2355 10.2041 27.6298 9.92545 27.028 9.92545C26.9055 9.92545 26.7869 9.93726 26.6723 9.96044C25.9497 10.1046 25.4008 10.6927 24.8832 11.3087C24.3889 11.1645 23.8867 11.0328 23.4174 11.0328C23.1359 11.0328 22.8911 11.0788 22.667 11.1717C21.9891 11.4541 21.5668 12.1485 21.1771 12.8587C20.9106 12.8356 20.6419 12.8152 20.3828 12.8152C19.7714 12.8152 19.326 12.925 18.9771 13.1593C18.3707 13.5667 18.0902 14.3244 17.8479 15.0936C17.0524 15.1831 16.2581 15.3111 15.7453 15.8266C15.2303 16.3445 15.1048 17.1455 15.0147 17.9491C14.2512 18.1938 13.4967 18.4749 13.0942 19.0805C12.6928 19.6855 12.7213 20.4889 12.7879 21.2901C12.0818 21.6796 11.3932 22.1035 11.1139 22.7844C10.8369 23.4554 11.0273 24.245 11.2514 25.0206C10.6357 25.5412 10.0452 26.0915 9.9018 26.8119C9.76169 27.5204 10.0967 28.2518 10.464 28.9653C9.96185 29.5974 9.49255 30.2544 9.49255 30.9967C9.49255 31.7356 9.95685 32.3896 10.4553 33.0188C10.0898 33.731 9.76364 34.4611 9.90702 35.1831C10.0506 35.9093 10.6357 36.4609 11.2488 36.9825C11.026 37.7562 10.8367 38.5422 11.1132 39.2109C11.3932 39.8922 12.0832 40.317 12.7903 40.7078C12.7215 41.5101 12.688 42.3163 13.0894 42.9198C13.4956 43.5293 14.2495 43.8117 15.0149 44.0556C15.1043 44.8561 15.2318 45.6547 15.7438 46.1702C16.2585 46.6862 17.0553 46.8143 17.8546 46.9044C18.0987 47.6722 18.3777 48.4305 18.9808 48.8353C19.3345 49.0724 19.7862 49.1835 20.4021 49.1835C20.6556 49.1835 20.9186 49.1638 21.1786 49.1422C21.5672 49.8513 21.9895 50.5433 22.6662 50.8248C22.8909 50.9193 23.1363 50.9642 23.4172 50.9642C23.8878 50.9642 24.3924 50.8318 24.8884 50.6873C25.4069 51.3058 25.9545 51.9005 26.672 52.044C26.7811 52.0663 26.8957 52.0768 27.0115 52.0768C27.6089 52.0768 28.2201 51.7881 28.8158 51.4779C29.4448 51.983 30.0985 52.4541 30.837 52.4541C31.5702 52.4541 32.2199 51.9889 32.8456 51.4882C33.4358 51.7953 34.0413 52.0744 34.644 52.074C34.7663 52.074 34.8853 52.0628 34.9991 52.0394C35.7223 51.895 36.2719 51.3058 36.7895 50.6894C37.2849 50.8334 37.787 50.9644 38.257 50.9644ZM35.0021 49.8054C34.8503 49.8054 34.7038 49.8198 34.5687 49.8461C33.9358 49.9725 33.3519 50.4377 32.7877 50.8957C32.1446 50.5573 31.4805 50.2139 30.8348 50.2139C30.1786 50.2153 29.5163 50.5488 28.8734 50.8859C28.3121 50.4309 27.7329 49.9703 27.1057 49.8461C26.9701 49.82 26.823 49.8054 26.6705 49.8054C26.1529 49.8054 25.6003 49.96 25.0612 50.1186C24.5999 49.5615 24.1184 48.9981 23.5236 48.7494C23.2197 48.6221 22.8637 48.563 22.4027 48.563C22.0955 48.563 21.7741 48.5904 21.4595 48.6181C21.1142 47.9821 20.7533 47.3371 20.2179 46.9768C19.6796 46.6146 18.9477 46.5215 18.2304 46.4436C18.0134 45.7498 17.7806 45.0438 17.3218 44.5827C16.8647 44.1251 16.1613 43.8933 15.4722 43.677C15.3939 42.9532 15.3038 42.215 14.942 41.6722C14.585 41.1352 13.9442 40.7726 13.3124 40.4257C13.3757 39.7008 13.4286 38.96 13.1788 38.3524C12.9341 37.7564 12.3701 37.2737 11.816 36.8076C12.0192 36.1103 12.2154 35.3935 12.0873 34.7485C11.9631 34.1125 11.4992 33.5263 11.0449 32.9598C11.3819 32.313 11.7239 31.6457 11.7233 30.9965C11.7226 30.3371 11.3893 29.6704 11.0543 29.0234C11.5055 28.46 11.9641 27.8771 12.0877 27.2474C12.2146 26.6048 12.0207 25.8894 11.8177 25.1934C12.3725 24.7288 12.9325 24.2459 13.1799 23.6475C13.4297 23.0422 13.3744 22.2979 13.31 21.5702C13.9429 21.2251 14.585 20.8609 14.9433 20.3242C15.303 19.7826 15.3943 19.0479 15.4729 18.3275C16.1626 18.1081 16.8662 17.8758 17.3237 17.4134C17.7806 16.9539 18.0102 16.2476 18.2249 15.5538C18.9442 15.476 19.6792 15.3837 20.2192 15.0208C20.7542 14.661 21.1142 14.0164 21.4587 13.3824C21.7687 13.4097 22.0842 13.4364 22.3881 13.4364C22.8531 13.4364 23.212 13.3767 23.5203 13.2487C24.1141 13.0029 24.594 12.4355 25.0562 11.8778C25.5962 12.0374 26.1512 12.1921 26.6707 12.1921C26.8239 12.1921 26.9703 12.1789 27.1059 12.1525C27.7373 12.0265 28.3204 11.5604 28.8836 11.1041C29.5272 11.4416 30.191 11.7857 30.8374 11.7857C31.4938 11.785 32.1565 11.4502 32.8001 11.1125C33.361 11.5676 33.9402 12.0272 34.5679 12.1525C34.703 12.1789 34.85 12.1921 35.0019 12.1921C35.5204 12.1921 36.0719 12.039 36.6102 11.8797C37.0721 12.4368 37.552 13.0003 38.148 13.2487C38.4517 13.376 38.8083 13.4353 39.2684 13.4353C39.5772 13.4353 39.8992 13.408 40.2131 13.38C40.5593 14.016 40.9209 14.6612 41.4552 15.021C41.9942 15.3824 42.7245 15.4753 43.4412 15.5541C43.6581 16.2478 43.8905 16.9541 44.35 17.4163C44.8078 17.874 45.5118 18.1044 46.2013 18.3211C46.2794 19.0444 46.3703 19.7817 46.7319 20.3244C47.0898 20.8605 47.7288 21.2231 48.3609 21.5691C48.2969 22.2949 48.2441 23.0374 48.4938 23.645C48.7386 24.2415 49.303 24.7238 49.8575 25.1892C49.6541 25.887 49.4607 26.6024 49.5865 27.2461C49.7118 27.8813 50.1748 28.4679 50.6293 29.0346C50.2916 29.6816 49.9494 30.3504 49.95 31.0007C49.9507 31.6604 50.2831 32.3268 50.6188 32.9731C50.1676 33.5361 49.7105 34.1175 49.5865 34.7485C49.4607 35.3911 49.6543 36.1065 49.8569 36.8025C49.3017 37.2673 48.7412 37.7513 48.4932 38.3498C48.2427 38.9548 48.2987 39.6993 48.3615 40.4254C47.7295 40.7723 47.0896 41.1359 46.7326 41.6733C46.3717 42.2146 46.2801 42.9493 46.2024 43.6713C45.5116 43.8887 44.8078 44.1227 44.348 44.5851C43.8929 45.044 43.6636 45.7509 43.4477 46.4434C42.7295 46.521 41.9959 46.6133 41.4559 46.9766C40.9209 47.3366 40.5599 47.9814 40.2149 48.6166C39.9053 48.5893 39.5878 48.5628 39.2832 48.5628C38.8196 48.5628 38.4593 48.6219 38.1519 48.7498C37.5594 48.9963 37.0788 49.5624 36.6165 50.1195C36.0767 49.9613 35.5228 49.8054 35.0021 49.8054ZM38.8174 50.3651C38.6547 50.4327 38.4708 50.4659 38.2572 50.4659C37.9121 50.4659 37.5362 50.3808 37.1391 50.271C37.5316 49.8054 37.9121 49.3902 38.3414 49.2124C38.587 49.1098 38.8866 49.0624 39.2835 49.0624C39.4984 49.0624 39.7249 49.0772 39.9518 49.096C39.6279 49.67 39.2915 50.1674 38.8174 50.3651ZM42.4188 48.4257C42.1554 48.603 41.797 48.6855 41.2901 48.6855C41.1187 48.6855 40.9387 48.6752 40.7564 48.6617C41.0421 48.1468 41.3456 47.6523 41.7322 47.392C42.1243 47.1284 42.6976 47.0339 43.2826 46.9653C43.0772 47.5888 42.8431 48.1394 42.4188 48.4257ZM45.5786 45.8167C45.2203 46.1772 44.6378 46.299 43.989 46.381C44.169 45.8176 44.3704 45.2712 44.7005 44.9379C45.0336 44.6022 45.5786 44.397 46.1402 44.2146C46.059 44.8692 45.9374 45.4567 45.5786 45.8167ZM48.1662 42.6398C47.8855 43.0628 47.3398 43.2973 46.7204 43.5035C46.7896 42.9174 46.8832 42.3423 47.1453 41.9515C47.4038 41.5619 47.8936 41.2581 48.407 40.9716C48.4531 41.623 48.4457 42.219 48.1662 42.6398ZM50.1027 39.0202C49.9058 39.4974 49.4098 39.836 48.838 40.1621C48.7908 39.5683 48.7708 38.9814 48.9516 38.5427C49.1317 38.1079 49.5571 37.7118 50.0079 37.3286C50.1822 37.9633 50.2957 38.5527 50.1027 39.0202ZM51.2828 35.0891C51.1841 35.5923 50.767 36.0199 50.2722 36.4497C50.113 35.8806 49.9831 35.3139 50.074 34.846C50.1639 34.3894 50.492 33.9344 50.8675 33.4607C51.1597 34.0442 51.3812 34.5965 51.2828 35.0891ZM50.9576 32.5455C50.6869 32.0149 50.4474 31.4814 50.4467 31.0005C50.4461 30.5287 50.6856 30.0101 50.9678 29.4628C51.3559 29.9681 51.6853 30.4847 51.6853 30.9974C51.6853 31.5164 51.3494 32.0359 50.9576 32.5455ZM51.2791 26.9117C51.3779 27.4128 51.1584 27.9801 50.8782 28.549C50.4985 28.0694 50.1654 27.6103 50.0742 27.1501C49.9827 26.6807 50.1132 26.1135 50.2731 25.544C50.7542 25.9648 51.1791 26.4062 51.2791 26.9117ZM50.1021 22.9755C50.2946 23.4423 50.1822 24.0311 50.0083 24.6647C49.5449 24.2706 49.1317 23.887 48.9527 23.4548C48.7712 23.011 48.7899 22.4268 48.8371 21.834C49.4091 22.1604 49.905 22.4992 50.1021 22.9755ZM48.1703 19.3561C48.4492 19.7741 48.4531 20.3708 48.4059 21.025C47.8933 20.7387 47.4031 20.4351 47.1455 20.0468C46.8827 19.6534 46.7883 19.077 46.72 18.4876C47.3405 18.6943 47.8875 18.9292 48.1703 19.3561ZM46.1389 17.7776C45.578 17.5978 45.0329 17.3946 44.7018 17.0622C44.3681 16.7273 44.1644 16.18 43.9823 15.616C44.6339 15.6978 45.219 15.8191 45.578 16.1807C45.9361 16.5405 46.0575 17.1267 46.1389 17.7776ZM42.416 13.5779C42.8368 13.8603 43.0694 14.4101 43.275 15.0324C42.6923 14.9637 42.1219 14.869 41.7318 14.6061C41.3451 14.3463 41.0416 13.852 40.7566 13.3358C40.9326 13.324 41.1056 13.3148 41.2707 13.3148C41.7838 13.315 42.1475 13.3988 42.416 13.5779ZM38.8159 11.6339C39.29 11.831 39.6272 12.3283 39.9505 12.9014C39.7188 12.9204 39.4878 12.9366 39.2689 12.9366C38.8759 12.9366 38.5801 12.8898 38.3386 12.7892C37.9078 12.6081 37.5127 12.1816 37.1328 11.729C37.5316 11.6181 37.9095 11.5331 38.2565 11.5331C38.4702 11.5331 38.654 11.5665 38.8159 11.6339ZM34.9031 10.4447C35.4042 10.546 35.83 10.9646 36.2577 11.4618C35.6833 11.624 35.1016 11.7507 34.6647 11.6623C34.2097 11.5729 33.7574 11.2417 33.2855 10.864C33.8723 10.5726 34.431 10.3526 34.9031 10.4447ZM32.3739 10.7732C31.8463 11.0451 31.3148 11.2861 30.8363 11.2874C30.3677 11.2874 29.8529 11.0471 29.3103 10.7653C29.8133 10.3747 30.3259 10.0442 30.837 10.0442C31.352 10.0442 31.8678 10.3797 32.3739 10.7732ZM26.7693 10.4499C27.2514 10.3544 27.8265 10.5744 28.3987 10.8561C27.9231 11.2378 27.4677 11.572 27.0093 11.6623C26.5709 11.7507 25.9867 11.6227 25.4093 11.4604C25.8272 10.9782 26.2663 10.5506 26.7693 10.4499ZM22.857 11.6339C23.0197 11.5663 23.2038 11.5331 23.4179 11.5331C23.7623 11.5331 24.1385 11.6177 24.5338 11.7279C24.1426 12.194 23.761 12.6094 23.3306 12.7887C23.0852 12.89 22.7856 12.9381 22.3883 12.9381C22.1751 12.9381 21.9486 12.9226 21.7219 12.9045C22.0461 12.329 22.3831 11.8312 22.857 11.6339ZM19.254 13.5746C19.5164 13.3979 19.8754 13.3154 20.3832 13.3154C20.5542 13.3154 20.7339 13.3246 20.9167 13.3377C20.6317 13.8531 20.3288 14.3463 19.9426 14.6061C19.5497 14.8703 18.9762 14.9644 18.3901 15.0331C18.5959 14.4101 18.8291 13.8596 19.254 13.5746ZM16.0975 16.1809C16.4552 15.8207 17.0368 15.6993 17.6849 15.6168C17.5052 16.1809 17.3033 16.7288 16.9728 17.0613C16.6397 17.3968 16.0964 17.602 15.5358 17.7837C15.6167 17.1297 15.7383 16.5418 16.0975 16.1809ZM13.5076 19.359C13.7885 18.9355 14.3354 18.7019 14.954 18.4957C14.8859 19.0812 14.7915 19.6549 14.5302 20.0471C14.271 20.4351 13.7791 20.7402 13.2659 21.0267C13.22 20.3754 13.2269 19.7802 13.5076 19.359ZM11.5723 22.9768C11.7694 22.4998 12.2637 22.1612 12.8353 21.8358C12.8827 22.4292 12.9038 23.0171 12.7217 23.4572C12.5433 23.8907 12.1182 24.2868 11.6682 24.6698C11.4935 24.0337 11.3798 23.4438 11.5723 22.9768ZM10.3898 26.9104C10.4899 26.406 10.9078 25.9768 11.4028 25.5479C11.5627 26.116 11.6926 26.6827 11.6006 27.1505C11.5101 27.6074 11.1822 28.0624 10.806 28.5377C10.5134 27.9543 10.2921 27.4025 10.3898 26.9104ZM10.7159 29.4526C10.9851 29.983 11.2264 30.5169 11.227 30.9978C11.227 31.4692 10.9883 31.9852 10.7072 32.5333C10.3193 32.0274 9.98992 31.5127 9.98992 30.9974C9.98992 30.4793 10.3245 29.9613 10.7159 29.4526ZM10.3946 35.0853C10.2945 34.5842 10.516 34.0169 10.7973 33.4471C11.1765 33.9259 11.5101 34.3843 11.6006 34.8454C11.6926 35.3148 11.5614 35.8852 11.4004 36.455C10.9202 36.0337 10.4945 35.5923 10.3946 35.0853ZM11.5723 39.0202C11.3798 38.5527 11.4927 37.9674 11.6663 37.334C12.1299 37.7271 12.5431 38.1116 12.72 38.5438C12.9021 38.9862 12.8834 39.5707 12.8366 40.1619C12.2644 39.8356 11.7683 39.4965 11.5723 39.0202ZM13.5021 42.6422C13.2239 42.2236 13.22 41.6256 13.2674 40.9714C13.7798 41.2568 14.2704 41.5617 14.5297 41.9502C14.7917 42.345 14.8863 42.9224 14.9542 43.5112C14.3348 43.3045 13.7867 43.0687 13.5021 42.6422ZM15.5347 44.2207C16.0956 44.4018 16.6395 44.6052 16.9715 44.9359C17.3039 45.2712 17.5085 45.8176 17.6895 46.381C17.0398 46.2999 16.4552 46.1776 16.0958 45.8167C15.7383 45.4576 15.6154 44.8719 15.5347 44.2207ZM19.2571 48.4204C18.8356 48.138 18.6033 47.5882 18.397 46.965C18.9808 47.0337 19.5512 47.1282 19.9415 47.3918C20.3288 47.6518 20.6325 48.147 20.918 48.6632C20.742 48.6752 20.5681 48.6846 20.4021 48.6846C19.8893 48.6844 19.5247 48.6017 19.2571 48.4204ZM22.8563 50.3638C22.3838 50.1674 22.0465 49.6704 21.7232 49.0976C21.9545 49.0792 22.1856 49.0626 22.4027 49.0626C22.7958 49.0626 23.0919 49.1101 23.333 49.21C23.764 49.3907 24.1589 49.8187 24.5383 50.2699C24.1413 50.3797 23.7629 50.4653 23.4172 50.4653C23.2025 50.465 23.0191 50.4327 22.8563 50.3638ZM26.7687 51.5545C26.2676 51.4532 25.8418 51.0346 25.4134 50.5366C25.99 50.3764 26.5731 50.2492 27.0095 50.3362C27.4638 50.4263 27.9168 50.7562 28.3882 51.1345C27.8008 51.4278 27.2403 51.6459 26.7687 51.5545ZM29.2996 51.226C29.8264 50.9548 30.3588 50.7137 30.8363 50.7133C31.3056 50.7133 31.8189 50.9534 32.3615 51.2358C31.8591 51.6249 31.3474 51.9556 30.837 51.9556C30.3218 51.9556 29.8064 51.6192 29.2996 51.226ZM34.9025 51.5506C34.423 51.6459 33.8471 51.4263 33.2727 51.1444C33.7491 50.7625 34.2054 50.4276 34.6645 50.3362C35.102 50.2492 35.687 50.3773 36.2645 50.5392C35.8459 51.0221 35.4066 51.4497 34.9025 51.5506Z" fill="#9D0A12"/>
<path d="M20.1907 22.0092H18.4584L18.6859 21.8701L18.2847 21.2152L17.9693 21.4101L18.3376 22.0092H16.7896V22.3823H20.1907V22.0092Z" fill="#9D0A12"/>
<path d="M20.4257 24.6321H19.075L19.7351 22.858L19.3426 22.8484L18.6712 24.6321H18.1155L18.1092 24.6021L18.2682 24.5295L17.5899 22.8593H17.1734L17.9112 24.6321H16.5294V25.0022H20.4257V24.6321Z" fill="#9D0A12"/>
<path d="M16.3967 29.475L16.7154 29.6601L17.2722 28.7014L16.9526 28.5164L16.3967 29.475Z" fill="#9D0A12"/>
<path d="M18.714 29.1534L19.0308 28.9642L18.525 28.1127L18.2082 28.3036L18.714 29.1534Z" fill="#9D0A12"/>
<path d="M19.4648 28.5956L20.2561 29.5836L20.5444 29.3513L19.7538 28.3618L19.4648 28.5956Z" fill="#9D0A12"/>
<path d="M20.0279 27.6518H18.6672V27.0636H20.3547V26.6896H18.6672V26.0354H18.2976V26.6896H16.5296V27.0636H18.2976V27.6518H16.9371V28.0242H20.0279V27.6518Z" fill="#9D0A12"/>
<path d="M19.1019 29.5964H18.0402C17.9695 29.5809 17.9338 29.54 17.9253 29.4646V28.5566H17.555V29.6842C17.555 29.7482 17.5741 29.96 17.8135 29.9678H19.3558V29.9637H19.3695C19.5845 29.9429 19.797 29.5302 19.8364 29.4471L19.4274 29.2646C19.3639 29.4024 19.2579 29.5667 19.1019 29.5964Z" fill="#9D0A12"/>
<path d="M25.4574 29.5394L25.4608 29.5283V27.3531H26.6385V27.0024H25.4608V26.0234H25.0918V27.0024H23.0371V27.3531H24.9572L24.9408 27.3775C24.4824 28.0659 23.8217 28.6597 23.0371 29.0803V29.5355C23.2804 29.425 24.2609 28.9351 25.0629 27.8835L25.0921 27.8476L25.0914 29.2667C25.0635 29.4099 24.8932 29.4834 24.7677 29.5366L24.7311 29.5547L24.9441 30.009C25.0259 29.9685 25.4378 29.7575 25.4574 29.5394Z" fill="#9D0A12"/>
<path d="M38.483 30.1806H38.832V26.2666H35.2722V30.1806H35.6214V29.9328H38.483V30.1806ZM35.6214 26.6159H38.483V29.5831H35.6214V26.6159Z" fill="#9D0A12"/>
<path d="M37.5033 28.5266L37.777 28.8565H37.2346V28.1749H38.0655V27.8243H37.2346V27.3259H38.1539V26.9766H35.9701V27.3259H36.8859V27.8243H36.0574V28.1749H36.8859V28.8565H35.8914V29.2071H38.2307V28.8558L37.7729 28.3022L37.5033 28.5266Z" fill="#9D0A12"/>
<path d="M45.0484 21.9611L44.482 21.3397L44.2251 21.5775L44.7908 22.2006L45.0484 21.9611Z" fill="#9D0A12"/>
<path d="M43.7507 21.5581L43.4711 21.3492L42.9708 22.026L43.2504 22.2349L43.7507 21.5581Z" fill="#9D0A12"/>
<path d="M42.5596 22.005L42.1153 21.2898L41.8196 21.4775L42.2641 22.1914L42.5596 22.005Z" fill="#9D0A12"/>
<path d="M41.2179 23.6807L41.4389 24.0077C41.5044 23.9602 41.6828 23.8246 41.8969 23.6022L41.9239 23.5735V25.2542H42.2744V23.684L42.6438 24.1352L42.9236 23.9248L42.5264 23.4406L42.8858 23.0941L42.6432 22.8441L42.3166 23.1556L42.2979 23.1628L42.2803 23.1394L42.2877 23.1298C42.4158 22.9432 42.5281 22.7514 42.6171 22.5565H42.616L42.6227 22.5416C42.6834 22.4047 42.7259 22.2553 42.7396 22.2021H41.3156V22.5514H42.1811L42.1678 22.5746C41.8162 23.2275 41.3071 23.6144 41.2179 23.6807Z" fill="#9D0A12"/>
<path d="M42.7632 23.5629L43.0106 23.8724C43.0369 23.8556 43.1077 23.8062 43.2077 23.7167L43.2343 23.6946V25.2537H43.5833V25.0433H44.3948V25.2537H44.744V23.6087L44.7699 23.629C44.8589 23.6983 44.9526 23.7626 45.0403 23.814L45.276 23.496C45.0423 23.3569 44.4966 22.9752 44.1539 22.2276C44.1539 22.2276 44.1857 22.1353 44.1964 22.1054L43.7826 22.0951C43.4371 23.0496 42.8753 23.4818 42.7632 23.5629ZM44.3948 24.6918H43.5833V23.8337H44.3948V24.6918ZM43.4595 23.4571C43.6394 23.2456 43.8019 23.0002 43.9403 22.7263L43.9516 22.7023L43.9673 22.7263C44.1348 23.0052 44.3343 23.2495 44.5608 23.4558L44.5926 23.4838H43.4371L43.4595 23.4571Z" fill="#9D0A12"/>
<path d="M35.8252 23.3702L35.1283 23.6227V24.0083L35.8359 23.7401V24.5216L35.8346 24.5529H35.8332C35.8158 24.6743 35.7049 24.7834 35.5025 24.8772L35.6844 25.2784C35.7665 25.2381 36.1748 25.0273 36.1829 24.8164L36.1842 24.8009L36.1948 23.6025L36.6611 23.4376V23.0507L36.1844 23.2325V22.5916H36.6611V22.2405H36.1844V21.2664H35.8359V22.2405H35.1151V22.5916H35.8359L35.8252 23.3702Z" fill="#9D0A12"/>
<path d="M37.2015 23.2001L37.2083 23.1833H37.2359L37.2392 23.1964C37.2544 23.2483 37.3969 23.726 37.7565 24.2395L37.7642 24.2507L37.7565 24.2596C37.5982 24.4375 37.443 24.5805 37.3305 24.6831L37.3079 24.6962V25.2141C37.562 25.0492 37.8094 24.8368 38.0239 24.5989L38.0353 24.5857L38.0468 24.5989C38.3148 24.8869 38.6157 25.1039 38.9432 25.2467L38.9525 24.7929C38.7123 24.6728 38.4895 24.5029 38.2913 24.2861L38.2813 24.2756L38.2898 24.2647C38.5148 23.9418 38.6734 23.5875 38.7622 23.2137L38.7704 23.1794H38.7711C38.7878 23.1151 38.8233 22.9663 38.8405 22.8333H38.5994V22.8347H37.2015V21.8427H38.3111V22.0064L38.3098 22.0363H38.3079C38.292 22.1577 38.1817 22.2675 37.9778 22.3635L38.1595 22.7601C38.2409 22.7218 38.6371 22.5155 38.6553 22.3078L38.6605 22.2962V21.4917H36.8521V25.2384H37.2011V23.2001H37.2015ZM38.3651 23.1833L38.3583 23.2047C38.2918 23.4469 38.1786 23.6837 38.0266 23.9116L38.0133 23.9311L37.9989 23.9116C37.8064 23.6131 37.6987 23.3417 37.6523 23.2047L37.646 23.1833H38.3651Z" fill="#9D0A12"/>
<path d="M44.4847 29.603C44.424 29.603 44.3483 29.5471 44.2586 29.4836L44.2343 29.4646C43.9777 29.2601 43.7821 28.9265 43.652 28.469L43.6459 28.4488H44.7288V28.0969H43.5639L43.562 28.084C43.5252 27.8699 43.5078 27.6905 43.5013 27.575V27.5595H44.7288V26.3366L41.697 26.3353V29.603H41.6996L41.7009 29.6186C41.7131 29.8294 42.113 30.0339 42.195 30.0742L42.3716 29.6868C42.2433 29.6275 42.0457 29.5044 42.0457 29.3253V28.4491H43.2367L43.2387 28.4607C43.399 29.098 43.671 29.5584 44.0474 29.8257L44.0558 29.8355C44.2443 29.96 44.407 30.0256 44.5445 30.0256C44.9385 30.0256 45.0005 29.4836 45.0095 29.3797H44.5898C44.5874 29.481 44.5726 29.603 44.4847 29.603ZM42.0453 28.0969V27.5595H43.1064L43.107 27.5737C43.1125 27.6855 43.1255 27.8631 43.1612 28.0775L43.1634 28.0969H42.0453ZM42.0453 26.6873H44.3811V27.2078H42.0453V26.6873Z" fill="#9D0A12"/>
<path d="M23.5462 23.2456V23.2301H24.222V24.2283H24.2313L24.2239 24.2491C24.1948 24.3478 24.1064 24.4217 23.7664 24.4761L23.8125 24.8097C24.1556 24.7592 24.5074 24.6489 24.5616 24.2423L24.572 24.2307L24.5733 24.145H24.572V22.8799H23.546V22.3403H24.9471L24.9478 22.3545C25.002 22.9648 25.1125 23.4971 25.2722 23.9527C25.072 24.2045 24.8538 24.4215 24.633 24.5888V25.0873C24.9165 24.9016 25.1897 24.6575 25.4449 24.3668L25.4599 24.3499L25.4706 24.3694C25.6412 24.6824 25.9604 25.138 26.3698 25.138C26.4412 25.138 26.5138 25.1303 26.59 25.1135V24.685C26.4381 24.7305 26.1 24.781 25.7345 24.0009C25.9769 23.6634 26.1901 23.2843 26.3692 22.8714L25.9408 22.8624C25.8335 23.0936 25.7143 23.3088 25.5805 23.5199L25.5611 23.5505L25.5518 23.5155C25.4532 23.1739 25.3818 22.7832 25.3401 22.3567L25.3388 22.3405H26.474V21.9862L26.0583 21.2657H25.6203L26.0441 21.9888H25.3137L25.3131 21.9753C25.2992 21.7181 25.2972 21.4689 25.3066 21.2572H24.9149C24.9099 21.3677 24.9054 21.6255 24.9204 21.9737L24.9217 21.9886H23.1372V22.3198L23.1359 22.3329V23.2819C23.1359 23.6649 23.0869 24.5892 22.6461 24.9746L23.0558 25.2058C23.1204 25.1253 23.5462 24.5398 23.5462 23.2456Z" fill="#9D0A12"/>
<path d="M11.9672 17.1115L11.968 17.1104L11.9672 17.1115L11.9661 17.1104V17.1128L11.3654 17.5634L11.4437 18.1034L10.6694 19.5715L8.32505 18.3241L9.39876 16.2859L9.16965 16.1627H9.16791L8.56351 16.6157L8.64488 17.1577L8.09421 18.2008L6.09431 17.1376L5.74707 17.7964L10.3223 20.2318L9.17966 22.3978L9.40963 22.5219L12.2002 17.2336L11.9672 17.1115Z" fill="#9D0A12"/>
<path d="M25.2098 7.12771L25.262 7.38558L27.2588 6.97635L27.6248 8.783L28.3521 8.63187L27.986 6.82719L28.8823 6.64411L28.8301 6.3834L27.9331 6.56756L27.2038 2.97876L26.4758 3.13012L27.2055 6.7176L25.2098 7.12771Z" fill="#9D0A12"/>
<path d="M26.5506 4.74043C26.8074 4.13938 25.2913 4.03943 25.2913 4.03943L25.2211 4.18816C25.9105 4.57967 25.9206 4.75487 26.1534 4.86051C26.3237 4.93707 26.4945 4.87604 26.5506 4.74043Z" fill="#9D0A12"/>
<path d="M26.8095 6.23803C27.1261 5.67066 25.6286 5.41125 25.6286 5.41125L25.5439 5.55255C26.1893 6.01405 26.1779 6.18663 26.3994 6.31917C26.5622 6.41388 26.7382 6.36773 26.8095 6.23803Z" fill="#9D0A12"/>
<path d="M23.5386 4.73774L23.7026 5.54527L22.6666 5.75743L22.7201 6.01727L23.5958 5.83682C23.5808 6.06058 23.474 7.49321 23.0854 8.41053L23.2738 8.50721C23.2738 8.50721 23.7353 7.80992 23.9933 6.97659L24.4911 9.42431L25.2185 9.27558L24.6156 6.30467C25.037 6.64282 25.0564 6.78892 25.247 6.90178C25.409 6.99452 25.5857 6.95187 25.6569 6.82064C25.9284 6.33267 24.8616 6.07545 24.556 6.01202L24.4833 5.65353L25.3647 5.47243L25.3144 5.21478L24.4317 5.39588L24.2368 4.43569C24.5462 4.28455 24.8305 4.11635 25.0122 3.94378L24.2894 3.57764C24.2894 3.57764 23.6087 4.32195 22.4858 4.86285L22.5295 5.08354C22.5295 5.08354 22.996 4.94881 23.5386 4.73774Z" fill="#9D0A12"/>
<path d="M52.867 16.3093C52.9385 16.2702 53.0491 16.1899 53.142 16.117L55.3116 20.03L54.4452 20.2831L54.5864 20.5355L55.7236 20.7723L55.7249 20.775L55.7276 20.7745L55.7347 20.775L55.9523 20.6555L55.9025 19.8961L55.4084 19.6669V19.6682L55.0635 19.0484C55.3083 19.1245 55.8017 19.2601 56.4647 19.3364L56.2787 18.4292C56.2787 18.4292 55.329 18.6901 54.8453 18.6536L53.9609 17.0569C53.9931 17.0814 54.0299 17.0995 54.0699 17.1087C54.7609 17.2625 54.5453 15.49 54.5453 15.49L54.3714 15.4478C54.121 16.2857 53.9045 16.4143 53.846 16.696C53.8369 16.7478 53.8369 16.7979 53.8441 16.8447L53.3443 15.9438C53.4352 15.8482 53.5379 15.7271 53.5379 15.7271L53.4424 15.5584L53.4044 15.5733C52.8256 15.7693 52.5552 15.5545 52.2142 15.7452C52.0517 15.8382 51.9231 16.0589 52.038 16.2638C52.1979 16.5547 52.5123 16.5088 52.867 16.3093Z" fill="#9D0A12"/>
<path d="M54.8234 18.0763C55.483 18.2113 55.3101 16.5437 55.3101 16.5437L55.146 16.5039C54.8943 17.2933 54.6748 17.4302 54.6178 17.6907C54.5742 17.8814 54.673 18.045 54.8234 18.0763Z" fill="#9D0A12"/>
<path d="M50.2933 19.6608C50.9667 20.5779 51.6401 20.2106 51.6401 20.2106L52.6376 19.6536L53.729 21.6229L53.9542 21.4939L53.9555 21.4972V21.4939V21.4924L53.9046 20.7428L53.4152 20.5169L52.865 19.5258L53.2112 19.3323L54.2468 19.7931L54.4748 19.6652L52.9346 16.8876L52.7073 17.0155L53.8432 19.0654L52.8539 18.6857L52.8513 18.68L52.5045 18.8749L51.1795 16.4875L50.9521 16.614L52.2771 19.0033L51.2802 19.5604C51.1762 19.6188 51.1286 19.5486 51.0453 19.3994C50.9695 19.2631 50.6586 18.6022 50.5914 18.4635L50.4034 18.5698C50.8092 19.5352 50.2933 19.6608 50.2933 19.6608Z" fill="#9D0A12"/>
<path d="M37.4406 5.89003L36.4707 5.64921L36.4072 5.90359L36.5197 5.93158C36.5168 6.67415 36.685 7.29794 36.9233 7.81457C35.9194 8.42786 35.0108 8.58884 35.0108 8.58884L34.956 8.82003C35.8134 8.92065 36.5895 8.71614 37.2494 8.40206C37.8436 9.30166 38.5864 9.73123 38.5864 9.73123C38.8091 9.32113 39.1412 9.29707 39.2197 9.29707L39.2641 9.11487C38.6323 8.83316 38.1693 8.46702 37.8229 8.08534C38.7893 7.47445 39.3864 6.7157 39.432 6.6573L39.4371 6.65862L39.4984 6.40162L38.161 6.06916L38.3636 5.2402L40.0493 5.6608L40.1124 5.40512L40.1157 5.40446L39.5286 4.92743L39.028 5.13565L38.4271 4.98561L38.7154 3.81085L37.9946 3.63171L37.7063 4.80647L36.7346 4.565L36.6722 4.82003L37.6443 5.0615L37.4406 5.89003ZM37.3852 7.50376C36.9548 6.80079 36.8623 6.16277 36.8469 6.0136L38.4745 6.41868C38.144 6.86094 37.7672 7.21877 37.3852 7.50376Z" fill="#9D0A12"/>
<path d="M33.9399 8.56958L34.1342 8.6177L34.1336 8.61901L34.8544 8.79749L35.5084 6.13213C35.8384 6.04443 36.0895 5.96525 36.2338 5.91735L36.299 5.64394C36.0658 5.67981 35.8328 5.70562 35.6076 5.7264L35.8787 4.6236L36.5114 4.78086L36.5727 4.52846L35.9401 4.3712L36.229 3.19381L35.5088 3.01599L35.2199 4.19206L34.3883 3.98515L34.3261 4.23887L35.1588 4.44469L34.8326 5.77387C34.2075 5.79661 33.7661 5.77583 33.7661 5.77583L33.8164 6.47881C34.1342 6.43222 34.4279 6.3782 34.6977 6.32308L34.3605 7.69797L34.3703 7.64329C34.3181 7.85436 34.2843 7.92566 33.8799 7.82767C33.6978 7.78174 33.5307 7.72443 33.5307 7.72443L33.4926 7.88476C33.9978 8.11704 33.9399 8.56958 33.9399 8.56958Z" fill="#9D0A12"/>
<path d="M13.5583 9.9565C13.5874 9.30799 12.1312 9.7509 12.1312 9.7509L12.1204 9.91844C12.901 10.0372 12.9717 10.1967 13.2263 10.2137C13.4127 10.2214 13.5515 10.1065 13.5583 9.9565Z" fill="#9D0A12"/>
<path d="M12.5413 11.0674L12.5281 11.2336C13.3109 11.3537 13.3803 11.5114 13.634 11.5313C13.822 11.5391 13.9601 11.4204 13.9647 11.2712C13.9945 10.6214 12.5413 11.0674 12.5413 11.0674Z" fill="#9D0A12"/>
<path d="M19.1988 10.096L19.0371 9.89284L18.6246 10.2201L17.9275 9.33073L18.3396 9.00439L18.1775 8.79748L17.7654 9.12316L16.9041 8.02364L16.4663 8.37294L14.7105 9.76314C14.7068 9.57679 14.6977 9.37622 14.6753 9.16625L17.0146 7.31432L16.8519 7.10522L16.1154 7.27342L15.9711 7.8012L15.9785 7.79792L14.6355 8.86354C14.5991 8.62797 14.5485 8.38716 14.4758 8.14788L13.7178 8.4893C13.7178 8.4893 14.3587 9.62841 14.4327 10.8662L14.6381 10.8683C14.6381 10.8683 14.6653 10.7111 14.6866 10.4561L15.2236 11.1396L14.758 11.5083L14.9201 11.7166L15.3863 11.3467L16.0817 12.2354L16.0804 12.236L16.2418 12.4405L16.2424 12.4399L16.3284 12.5495L16.9095 12.0882L16.8242 11.9784L18.2027 10.8867C18.354 11.0879 18.4116 11.2424 18.1729 11.4298C17.8562 11.6816 17.3048 12.1173 17.3048 12.1173L17.408 12.2465C17.408 12.2465 18.1762 11.7336 18.4527 12.0858C18.4527 12.0858 19.4457 11.282 18.7834 10.4259L19.1988 10.096ZM15.1033 9.78589L16.482 8.69206L17.1828 9.58598L16.8799 9.82548C16.8812 9.81782 16.8849 9.81126 16.886 9.80404C16.9145 9.15181 15.4603 9.60085 15.4603 9.60085L15.4477 9.76292C16.2305 9.88322 16.2992 10.0446 16.5536 10.0591C16.5675 10.0597 16.5769 10.0558 16.5901 10.0558L15.804 10.6789L15.1033 9.78589ZM17.7469 10.9152C17.7476 10.9119 17.7496 10.9082 17.7496 10.9042C17.7767 10.257 16.3243 10.7023 16.3243 10.7023L16.3114 10.8631C17.0945 10.9841 17.1632 11.1442 17.4195 11.1597C17.4276 11.1603 17.4328 11.1571 17.4415 11.1571L16.6632 11.7736L15.9672 10.8856L17.3464 9.7918L18.0361 10.6708L18.0335 10.6715C18.0361 10.6748 18.038 10.6785 18.0411 10.6818L17.7469 10.9152Z" fill="#9D0A12"/>
<path d="M13.8398 12.7736L13.9862 12.9604C13.9862 12.9604 14.5499 12.6929 15.3188 13.6751C15.5682 13.9912 15.7546 14.223 15.7546 14.223L16.1395 13.9184C16.1395 13.9184 15.2318 12.7318 14.9416 12.3237C14.6716 11.9433 13.9762 9.80637 13.8672 9.46582L13.6629 9.62986C13.8313 10.1804 14.3361 11.8628 14.3076 12.2432C14.2808 12.6001 13.8398 12.7736 13.8398 12.7736Z" fill="#9D0A12"/>
<path d="M49.1853 11.7649L48.8522 11.0849L48.3104 11.0632L48.3144 11.0698L47.1495 10.1352C47.792 9.54245 48.2084 8.96087 48.3252 8.78961L47.6351 8.23734C47.267 8.80077 46.8884 9.25505 46.5116 9.62382L44.6657 8.14307L44.5043 8.34692L46.3179 9.80295C44.687 11.2769 43.107 11.1783 42.3728 11.0219L42.1839 11.2614C44.1207 12.1442 45.7945 11.2927 46.9095 10.3474C45.4329 12.4427 46.2644 14.5335 46.2644 14.5335C46.7907 14.187 47.1947 14.6387 47.1947 14.6387L47.3277 14.4685C46.2714 12.7809 47.0603 10.6947 47.1508 10.4722L49.0221 11.9736L49.1842 11.7684L49.1738 11.7605L49.1853 11.7649Z" fill="#9D0A12"/>
</g>
<defs>
<clipPath id="clip0_548_1019">
<rect width="230" height="62" fill="white"/>
</clipPath>
</defs>
</svg>
