<svg xmlns="http://www.w3.org/2000/svg" width="230" height="88" viewBox="0 0 230 88" fill="none">
  <g filter="url(#filter0_d_41_1856)">
    <path d="M171.976 27.23H171.726V27.48V38.184V38.434H171.976H202.072H202.322V38.184V27.48V27.23H202.072H171.976ZM187.551 17.3208L187.464 17.1734L187.295 17.2013L181.487 18.1613L181.059 18.2321L181.335 18.5669C181.905 19.2595 182.441 19.9872 182.942 20.75H165.976H165.726V21V25.704V25.954H165.976H208.024H208.274V25.704V21V20.75H208.024H189.322C188.761 19.502 188.156 18.3447 187.551 17.3208ZM164.92 48.782H164.67V49.032V53.544V53.794H164.92H185.118V55.32C185.118 56.1045 184.944 56.6602 184.638 57.0173C184.338 57.3674 183.876 57.566 183.208 57.566C181.777 57.566 179.768 57.4705 177.227 57.2787L176.864 57.2513L176.969 57.6001L178.313 62.0641L178.366 62.242H178.552H185.176C186.921 62.242 188.28 61.7868 189.201 60.8469C190.12 59.908 190.562 58.5265 190.562 56.76V53.794H209.08H209.33V53.544V49.032V48.782H209.08H191.764C196.358 46.9561 200.46 45.292 203.994 43.7901L204.146 43.7254V43.56V40.056V39.806H203.896H169.576H169.326V40.056V44.472V44.722H169.576H192.511L185.276 47.5997L185.118 47.6624V47.832V48.782H164.92ZM177.074 31.954H196.974V33.71H177.074V31.954Z" stroke="white" stroke-opacity="0.17" stroke-width="0.5" shape-rendering="crispEdges"/>
  </g>
  <g filter="url(#filter1_d_41_1856)">
    <path d="M131.69 18.1947L131.465 18.0571L131.34 18.2893C129.379 21.9234 127.326 24.9314 125.18 27.4112C122.509 30.4154 119.652 32.7002 116.704 34.3168L116.473 34.443L116.611 34.6667L119.347 39.1307L119.487 39.3596L119.705 39.2033C121.267 38.0856 122.685 37.0061 123.966 35.9626V36.12V40.968V41.218H124.216H132.534C131.586 44.8909 130.282 47.8753 128.671 50.1785C126.491 52.9253 123.259 55.4475 118.962 57.7394L118.699 57.8795L118.883 58.114L122.147 62.29L122.28 62.46L122.467 62.3534C127.386 59.5563 131.113 56.3659 133.635 52.8251L133.636 52.8252L133.641 52.8171C135.557 49.8946 137.04 46.0398 138.143 41.218H148.054C147.957 44.4101 147.78 47.0527 147.535 49.1471C147.284 51.3007 146.963 52.8589 146.591 53.8371C146.223 54.7551 145.678 55.4416 144.956 55.9011C144.231 56.3618 143.308 56.606 142.168 56.606C139.805 56.606 137.27 56.5199 134.598 56.429C134.452 56.4241 134.306 56.4191 134.16 56.4142L133.822 56.4027L133.91 56.7296L135.254 61.6736L135.305 61.858H135.496H144.712H144.719L144.726 61.8576C147.222 61.7108 149.077 60.8747 150.238 59.3601L150.24 59.358C151.434 57.7658 152.207 55.068 152.688 51.223C153.169 47.3743 153.457 42.3779 153.649 36.1434C154.883 37.1351 156.195 38.0773 157.585 38.9703L157.768 39.0882L157.91 38.9225L161.318 34.9385L161.513 34.7106L161.253 34.5599C154.196 30.459 149.389 24.8395 146.819 17.7468L146.718 17.47L146.462 17.6139L142.094 20.0619L141.904 20.1679L141.983 20.3701C144.33 26.4499 148.117 31.6086 153.312 35.87H124.216H124.079C126.218 34.1196 127.966 32.4703 129.346 30.9107C131.618 28.397 133.884 25.1166 136.098 21.1703L136.216 20.9603L136.01 20.8347L131.69 18.1947Z" stroke="white" stroke-opacity="0.17" stroke-width="0.5" shape-rendering="crispEdges"/>
  </g>
  <g filter="url(#filter2_d_41_1856)">
    <path d="M82.8299 35.5821H83.0799H89.5019V24.4661H83.9439H83.6939V24.2161V19.4161V19.1661H83.9439H106.792H107.042V19.4161V34.8241C107.042 43.756 107.523 49.9109 108.566 53.2292L108.567 53.2323C108.782 53.9485 108.981 54.4812 109.167 54.8307C109.255 54.9966 109.334 55.1092 109.402 55.1793C109.417 55.1156 109.433 55.0367 109.45 54.9417C109.508 54.6049 109.567 54.0979 109.615 53.4303C109.71 52.0932 109.758 50.6592 109.758 49.0321V48.6343L110.116 48.8069L114.004 50.6789L114.152 50.7502L114.146 50.9143C114.049 53.2718 113.881 55.2016 113.651 56.7137C113.422 58.2202 113.13 59.3319 112.775 60.0399L112.772 60.0468L112.768 60.0534C112.219 61.002 111.528 61.5701 110.632 61.5701H110.626V61.5701C108.459 61.5197 106.662 60.354 105.238 58.1438C105.238 58.1437 105.238 58.1437 105.238 58.1436L105.448 58.0081C103.048 54.3121 101.848 46.5841 101.848 34.8241L82.8299 35.5821ZM82.8299 35.5821V35.8321V40.6801V40.9301H83.0799H89.5019M82.8299 35.5821L89.5019 40.9301M89.5019 40.9301V62.0401V62.2901H89.7519H94.5999H94.8499V62.0401V40.9301H100.504H100.754V40.6801V35.8321V35.5821H100.504H94.8499V24.4661H101.598L89.5019 40.9301ZM75.4604 17.6852L75.288 17.5467L75.1295 17.7009L71.5775 21.1569L71.37 21.3588L71.6 21.5347C74.8553 24.024 77.3823 26.3622 79.1411 28.5488L79.3169 28.7674L79.5139 28.5677L82.9699 25.0637L83.1349 24.8964L82.9781 24.7213C80.9038 22.4059 78.3976 20.0446 75.4604 17.6852ZM68.7759 31.5021H68.5259V31.7521V36.5521V36.8021H68.7759H74.7179V53.4001C74.7179 54.4285 74.3194 55.2765 73.5485 56.0021L73.4216 56.1216L73.4898 56.282L75.4098 60.794L75.529 61.0741L75.7806 60.9027C79.1046 58.6386 82.2351 56.0859 85.2202 53.2452L85.3263 53.1443L85.2902 53.0025L83.9462 47.7225L83.8378 47.2967L83.5271 47.6074C82.3404 48.7941 81.1916 49.9054 80.1139 50.9082V31.7521V31.5021H79.8639H68.7759Z" stroke="white" stroke-opacity="0.17" stroke-width="0.5" shape-rendering="crispEdges"/>
  </g>
  <g filter="url(#filter3_d_41_1856)">
    <path d="M25.1233 17.8817L24.9452 17.8253L24.8406 17.9801L22.3446 21.6761L22.1592 21.9506L22.474 22.0536C25.0924 22.9106 27.6657 24.1492 30.1458 25.7231L30.3522 25.8541L30.4878 25.6507L33.1758 21.6187L33.3257 21.3939L33.0899 21.2619C30.6727 19.9083 28.0166 18.7979 25.1233 17.8817ZM39.3831 17.104L39.1777 17.0781L39.1139 17.2751C38.0751 20.486 36.1401 23.132 33.2028 25.3113L32.999 25.4625L33.1533 25.664L36.1293 29.552L36.2845 29.7548L36.484 29.5953C38.1443 28.267 39.6209 26.7974 40.8669 25.186H45.2024C44.5815 27.0604 43.5867 28.5919 42.2603 29.7868C40.3389 31.3784 37.1721 32.6627 32.7258 33.5711L32.4275 33.632L32.5452 33.9127L34.4172 38.3767L34.4933 38.5581H27.1118H26.8618V38.8081V53.7361V53.9861H27.1118H32.1038H32.3538V53.7361V43.7141H53.5018V53.1601V53.4101H53.7518H58.7918H59.0418V53.1601V38.8081V38.5581H58.7918H34.5575L34.7049 38.5234C40.2385 37.2242 44.1851 35.4344 46.4443 33.077L46.4444 33.0771L46.4496 33.0713C46.8123 32.6684 47.1751 32.2317 47.5617 31.7665C47.5792 31.7454 47.5967 31.7243 47.6144 31.703C50.6991 35.0981 55.542 37.4443 62.1491 38.8129L62.353 38.8551L62.4314 38.6622L64.2074 34.2942L64.3237 34.0081L64.0196 33.9539C57.1093 32.7233 52.4571 30.4709 49.9497 27.3326C50.1593 26.6567 50.3682 25.9406 50.5434 25.186H56.4816C56.0272 26.5805 55.4921 27.8447 54.8777 28.9419L54.7253 29.2139L55.024 29.3035L59.824 30.7435L60.0478 30.8107L60.1299 30.5918C60.9985 28.2755 61.6735 25.9126 62.2035 23.5999L62.2098 23.5723V23.5441V20.568V20.318H61.9598H43.6774C43.999 19.5975 44.2845 18.8419 44.5342 18.0513L44.6244 17.7655L44.3271 17.728L39.3831 17.104ZM40.8108 44.3188L40.5611 44.2998L40.5425 44.5495C40.2087 49.0318 39.0203 52.1667 36.9838 53.9758C35.8261 54.8765 34.0338 55.6084 31.5813 56.1561C29.1285 56.7038 26.0362 57.0627 22.3006 57.2303L21.9353 57.2467L22.0831 57.5811L24.0991 62.1411L24.1712 62.3042L24.3489 62.2892C28.8934 61.9044 32.6072 61.3026 35.4849 60.4743C38.3497 59.6498 40.4149 58.5929 41.6381 57.2758C42.7812 56.2775 43.721 54.7375 44.4589 52.6929C45.1998 50.6404 45.743 48.0636 46.0803 44.9792L46.1084 44.7224L45.8508 44.7028L40.8108 44.3188ZM31.0947 27.2227L30.9297 27.0274L30.7382 27.1968C28.2599 29.3891 25.1575 31.49 21.4765 33.4022L21.1998 33.546L21.4003 33.7848L24.6643 37.6728L24.8009 37.8355L24.9836 37.7269C28.548 35.6075 31.542 33.3874 33.9606 30.9688L34.1231 30.8063L33.9747 30.6307L31.0947 27.2227ZM46.7062 52.533L46.5371 52.4923L46.4402 52.6368L43.8962 56.4288L43.6963 56.7268L44.0451 56.8111C49.7883 58.199 55.3413 60.1616 60.8 62.6515L60.9969 62.7413L61.114 62.5594L63.802 58.3834L63.9626 58.1339L63.6895 58.0179C58.5869 55.8517 52.9095 54.0237 46.7062 52.533Z" stroke="white" stroke-opacity="0.17" stroke-width="0.5" shape-rendering="crispEdges"/>
  </g>
  <defs>
    <filter id="filter0_d_41_1856" x="144.42" y="0.898804" width="85.1602" height="85.5931" filterUnits="userSpaceOnUse" color-interpolation-filters="sRGB">
      <feFlood flood-opacity="0" result="BackgroundImageFix"/>
      <feColorMatrix in="SourceAlpha" type="matrix" values="0 0 0 0 0 0 0 0 0 0 0 0 0 0 0 0 0 0 127 0" result="hardAlpha"/>
      <feOffset dy="4"/>
      <feGaussianBlur stdDeviation="10"/>
      <feComposite in2="hardAlpha" operator="out"/>
      <feColorMatrix type="matrix" values="0 0 0 0 0 0 0 0 0 0 0 0 0 0 0 0 0 0 0.25 0"/>
      <feBlend mode="normal" in2="BackgroundImageFix" result="effect1_dropShadow_41_1856"/>
      <feBlend mode="normal" in="SourceGraphic" in2="effect1_dropShadow_41_1856" result="shape"/>
    </filter>
    <filter id="filter1_d_41_1856" x="96.123" y="1.10791" width="85.7744" height="85.6761" filterUnits="userSpaceOnUse" color-interpolation-filters="sRGB">
      <feFlood flood-opacity="0" result="BackgroundImageFix"/>
      <feColorMatrix in="SourceAlpha" type="matrix" values="0 0 0 0 0 0 0 0 0 0 0 0 0 0 0 0 0 0 127 0" result="hardAlpha"/>
      <feOffset dy="4"/>
      <feGaussianBlur stdDeviation="10"/>
      <feComposite in2="hardAlpha" operator="out"/>
      <feColorMatrix type="matrix" values="0 0 0 0 0 0 0 0 0 0 0 0 0 0 0 0 0 0 0.25 0"/>
      <feBlend mode="normal" in2="BackgroundImageFix" result="effect1_dropShadow_41_1856"/>
      <feBlend mode="normal" in="SourceGraphic" in2="effect1_dropShadow_41_1856" result="shape"/>
    </filter>
    <filter id="filter2_d_41_1856" x="48.2759" y="1.21338" width="86.1328" height="85.3268" filterUnits="userSpaceOnUse" color-interpolation-filters="sRGB">
      <feFlood flood-opacity="0" result="BackgroundImageFix"/>
      <feColorMatrix in="SourceAlpha" type="matrix" values="0 0 0 0 0 0 0 0 0 0 0 0 0 0 0 0 0 0 127 0" result="hardAlpha"/>
      <feOffset dy="4"/>
      <feGaussianBlur stdDeviation="10"/>
      <feComposite in2="hardAlpha" operator="out"/>
      <feColorMatrix type="matrix" values="0 0 0 0 0 0 0 0 0 0 0 0 0 0 0 0 0 0 0.25 0"/>
      <feBlend mode="normal" in2="BackgroundImageFix" result="effect1_dropShadow_41_1856"/>
      <feBlend mode="normal" in="SourceGraphic" in2="effect1_dropShadow_41_1856" result="shape"/>
    </filter>
    <filter id="filter3_d_41_1856" x="0.807617" y="0.804077" width="83.8643" height="86.2545" filterUnits="userSpaceOnUse" color-interpolation-filters="sRGB">
      <feFlood flood-opacity="0" result="BackgroundImageFix"/>
      <feColorMatrix in="SourceAlpha" type="matrix" values="0 0 0 0 0 0 0 0 0 0 0 0 0 0 0 0 0 0 127 0" result="hardAlpha"/>
      <feOffset dy="4"/>
      <feGaussianBlur stdDeviation="10"/>
      <feComposite in2="hardAlpha" operator="out"/>
      <feColorMatrix type="matrix" values="0 0 0 0 0 0 0 0 0 0 0 0 0 0 0 0 0 0 0.25 0"/>
      <feBlend mode="normal" in2="BackgroundImageFix" result="effect1_dropShadow_41_1856"/>
      <feBlend mode="normal" in="SourceGraphic" in2="effect1_dropShadow_41_1856" result="shape"/>
    </filter>
  </defs>
</svg>