<svg width="305" height="30" viewBox="0 0 305 30" fill="none" xmlns="http://www.w3.org/2000/svg">
<path d="M0.17875 29.0603L6.05683 1.40616H13.3908L15.3387 13.3376C15.569 14.9359 15.6537 16.6829 15.8222 18.3927H16.0122C16.9457 16.6829 17.773 14.9359 18.6447 13.3376L25.5128 1.40616H32.8848L27.0068 29.0603H20.8127L22.8274 19.5821C23.4121 16.8315 24.821 12.7057 25.7398 9.99234H25.5878L21.8255 16.6085L15.8765 26.7187H12.1525L10.4635 16.6085L9.58978 9.99234H9.43778C9.20303 12.7057 8.85806 16.8315 8.27341 19.5821L6.25875 29.0603H0.17875ZM42.2143 17.5749H47.9903L47.88 15.2333C47.7047 12.4827 47.6858 9.17461 47.5263 6.34972H47.3743C46.074 9.24894 44.6267 12.4827 43.32 15.2333L42.2143 17.5749ZM48.475 29.0603L48.192 22.7043H39.832L36.847 29.0603H29.931L44.587 1.40616H52.719L55.619 29.0603H48.475ZM58.5889 29.0603L64.467 1.40616H71.269L65.3909 29.0603H58.5889ZM71.8741 29.0603L77.7521 1.40616H84.6681L88.8855 14.6385L90.3559 20.7715H90.5459C90.7901 17.8351 91.1034 13.858 91.8066 10.5499L93.7501 1.40616H100.21L94.3321 29.0603H87.4161L83.2604 15.7165L81.7742 9.65781H81.5842C81.2324 12.7429 80.9966 16.5342 80.2855 19.8795L78.3341 29.0603H71.8741ZM109.577 29.0603L115.455 1.40616H125.335C131.187 1.40616 135.537 2.93011 134.408 8.24537C133.886 10.6986 131.911 13.3748 129.45 14.2297L129.418 14.3784C132.11 15.1217 133.833 17.2032 133.051 20.883C131.85 26.5328 126.411 29.0603 120.255 29.0603H109.577ZM119.927 12.3712H122.739C125.627 12.3712 127.179 11.1446 127.582 9.24894C128.001 7.27896 126.845 6.46122 123.995 6.46122H121.183L119.927 12.3712ZM117.462 23.9681H120.844C124.112 23.9681 126.028 22.8159 126.534 20.437C127.016 18.1697 125.572 17.2776 122.266 17.2776H118.884L117.462 23.9681ZM147.212 29.5807C139.65 29.5807 136.629 25.3806 138.612 16.051L141.725 1.40616H148.489L145.226 16.7572C144.112 21.9981 145.313 23.8566 148.429 23.8566C151.507 23.8566 153.612 21.9981 154.726 16.7572L157.989 1.40616H164.525L161.412 16.051C159.429 25.3806 154.736 29.5807 147.212 29.5807ZM173.204 29.5807C169.518 29.5807 165.85 28.2426 163.485 25.6036L168.295 21.0317C169.953 22.7043 172.33 23.8566 174.572 23.8566C177.08 23.8566 178.456 22.9274 178.772 21.4406C179.112 19.8423 177.664 19.3219 175.445 18.3183L172.151 16.8315C169.432 15.6793 167.172 13.2633 168.025 9.24894C169.013 4.60274 174.059 0.885783 180.063 0.885783C183.331 0.885783 186.528 2.11238 188.485 4.5284L184.218 8.6914C182.648 7.31612 181.058 6.57273 178.854 6.57273C176.764 6.57273 175.298 7.39047 174.982 8.87725C174.658 10.4012 176.318 10.9959 178.62 11.9623L181.862 13.3376C185.066 14.7129 186.666 17.0174 185.836 20.9202C184.857 25.5292 180.044 29.5807 173.204 29.5807ZM188.806 29.0603L194.684 1.40616H201.486L195.608 29.0603H188.806ZM202.091 29.0603L207.969 1.40616H214.885L219.102 14.6385L220.573 20.7715H220.763C221.007 17.8351 221.32 13.858 222.023 10.5499L223.967 1.40616H230.427L224.549 29.0603H217.633L213.477 15.7165L211.991 9.65781H211.801C211.449 12.7429 211.213 16.5342 210.502 19.8795L208.551 29.0603H202.091ZM231.11 29.0603L236.988 1.40616H254.924L253.755 6.90726H242.621L241.531 12.0367H250.993L249.808 17.6121H240.346L239.097 23.4849H250.649L249.464 29.0603H231.11ZM263.713 29.5807C260.027 29.5807 256.36 28.2426 253.995 25.6036L258.804 21.0317C260.463 22.7043 262.84 23.8566 265.082 23.8566C267.59 23.8566 268.966 22.9274 269.282 21.4406C269.621 19.8423 268.174 19.3219 265.955 18.3183L262.661 16.8315C259.942 15.6793 257.682 13.2633 258.535 9.24894C259.523 4.60274 264.569 0.885783 270.573 0.885783C273.841 0.885783 277.038 2.11238 278.994 4.5284L274.727 8.6914C273.158 7.31612 271.568 6.57273 269.364 6.57273C267.274 6.57273 265.808 7.39047 265.492 8.87725C265.168 10.4012 266.828 10.9959 269.13 11.9623L272.372 13.3376C275.576 14.7129 277.176 17.0174 276.346 20.9202C275.366 25.5292 270.553 29.5807 263.713 29.5807ZM287.129 29.5807C283.443 29.5807 279.776 28.2426 277.411 25.6036L282.22 21.0317C283.879 22.7043 286.256 23.8566 288.498 23.8566C291.006 23.8566 292.382 22.9274 292.698 21.4406C293.037 19.8423 291.59 19.3219 289.371 18.3183L286.077 16.8315C283.358 15.6793 281.098 13.2633 281.951 9.24894C282.939 4.60274 287.985 0.885783 293.989 0.885783C297.257 0.885783 300.454 2.11238 302.41 4.5284L298.144 8.6914C296.574 7.31612 294.984 6.57273 292.78 6.57273C290.69 6.57273 289.224 7.39047 288.908 8.87725C288.584 10.4012 290.244 10.9959 292.546 11.9623L295.788 13.3376C298.992 14.7129 300.592 17.0174 299.762 20.9202C298.783 25.5292 293.969 29.5807 287.129 29.5807Z" fill="#DFE5F1"/>
</svg>
