<?xml version="1.0" standalone="no"?><!DOCTYPE svg PUBLIC "-//W3C//DTD SVG 1.1//EN" "http://www.w3.org/Graphics/SVG/1.1/DTD/svg11.dtd"><svg class="icon" width="200px" height="200.00px" viewBox="0 0 1024 1024" version="1.1" xmlns="http://www.w3.org/2000/svg"><path  d="M509.769286 200.58305m-120.671423 0a120.671423 120.671423 0 1 0 241.342845 0 120.671423 120.671423 0 1 0-241.342845 0Z"  /><path  d="M416.582841 498.183924c0-36.049023 29.224302-65.273325 65.273325-65.273325 36.049023 0 65.273325 29.224302 65.273326 65.273325 0 28.279229-18.017214 52.28799-43.17174 61.354372l-3.617308 9.074896h262.160006c-10.358104-116.473934-99.367737-210.284346-213.567169-227.985319 0.507202 2.481274 0.773574 5.051339 0.773574 7.68222 0 21.10786-17.111062 38.220138-38.220138 38.220138-21.10786 0-38.218922-17.111062-38.218922-38.220138 0-2.831572 0.32962-5.581651 0.914666-8.238074C358.265598 356.345043 267.505693 450.922947 257.039338 568.613192h162.836057l11.552521-28.988338c-9.273154-11.27277-14.845075-25.705515-14.845075-41.44093z"  /><path  d="M482.070237 498.182708m-36.930848 0a36.930848 36.930848 0 1 0 73.861697 0 36.930848 36.930848 0 1 0-73.861697 0Z"  /><path  d="M499.36253 496.374054l-25.847824-12.547464-27.4643 84.786602h29.912734zM805.430144 855.662569l17.749625 17.750841-17.176742 17.176743-17.749626-17.749625z"  /><path  d="M853.114397 933.937042c-3.703667 3.703667-9.432491 3.979769-12.795591 0.617886l-36.196196-36.196197c-3.3631-3.3631-3.086997-9.091924 0.617886-12.795591l13.400097-13.400097c3.703667-3.703667 9.432491-3.979769 12.795591-0.617886l36.196197 36.196196c3.3631 3.3631 3.086997 9.091924-0.617886 12.795591l-13.400098 13.400098zM622.151549 814.418682c0-69.568119 56.395472-125.963591 125.963592-125.963592 49.962404 0 93.001566 29.162271 113.365043 71.326905V590.942228H154.913008v176.928235h99.564779l23.827531 169.57077v3.814351h467.954949v-0.96575c-68.704539-1.003457-124.108717-56.929433-124.108718-125.871152z"  /><path  d="M745.809015 719.598731c-52.620043 0-95.277283 42.65724-95.277283 95.277284s42.65724 95.277283 95.277283 95.277283 95.277283-42.65724 95.277284-95.277283-42.65724-95.277283-95.277284-95.277284z m0 154.346207c-32.692005 0-59.194204-26.502199-59.194203-59.194203s26.502199-59.194204 59.194203-59.194204 59.194204 26.502199 59.194204 59.194204-26.502199 59.194204-59.194204 59.194203z"  /></svg>